%TF.GenerationSoftware,KiCad,Pcbnew,9.0.7*%
%TF.CreationDate,2026-03-15T14:15:07+02:00*%
%TF.ProjectId,esp32_light_switch,65737033-325f-46c6-9967-68745f737769,rev?*%
%TF.SameCoordinates,Original*%
%TF.FileFunction,Legend,Top*%
%TF.FilePolarity,Positive*%
%FSLAX46Y46*%
G04 Gerber Fmt 4.6, Leading zero omitted, Abs format (unit mm)*
G04 Created by KiCad (PCBNEW 9.0.7) date 2026-03-15 14:15:07*
%MOMM*%
%LPD*%
G01*
G04 APERTURE LIST*
%ADD10C,0.100000*%
%ADD11C,0.050000*%
%ADD12C,0.090000*%
%ADD13C,0.150000*%
%ADD14C,0.254000*%
%ADD15C,0.120000*%
%ADD16C,0.200000*%
G04 APERTURE END LIST*
D10*
X143000000Y-42075000D02*
X141000000Y-43925000D01*
X141000000Y-42075000D02*
X143000000Y-42075000D01*
X141000000Y-43925000D02*
X141000000Y-42075000D01*
D11*
X170000000Y-51500000D02*
G75*
G02*
X164000000Y-51500000I-3000000J0D01*
G01*
X164000000Y-51500000D02*
G75*
G02*
X170000000Y-51500000I3000000J0D01*
G01*
D12*
X155106829Y-90434129D02*
X155392543Y-90434129D01*
X155249686Y-90934129D02*
X155249686Y-90434129D01*
X155654447Y-90434129D02*
X155749685Y-90434129D01*
X155749685Y-90434129D02*
X155797304Y-90457939D01*
X155797304Y-90457939D02*
X155844923Y-90505558D01*
X155844923Y-90505558D02*
X155868733Y-90600796D01*
X155868733Y-90600796D02*
X155868733Y-90767462D01*
X155868733Y-90767462D02*
X155844923Y-90862700D01*
X155844923Y-90862700D02*
X155797304Y-90910320D01*
X155797304Y-90910320D02*
X155749685Y-90934129D01*
X155749685Y-90934129D02*
X155654447Y-90934129D01*
X155654447Y-90934129D02*
X155606828Y-90910320D01*
X155606828Y-90910320D02*
X155559209Y-90862700D01*
X155559209Y-90862700D02*
X155535400Y-90767462D01*
X155535400Y-90767462D02*
X155535400Y-90600796D01*
X155535400Y-90600796D02*
X155559209Y-90505558D01*
X155559209Y-90505558D02*
X155606828Y-90457939D01*
X155606828Y-90457939D02*
X155654447Y-90434129D01*
X156344924Y-90457939D02*
X156297305Y-90434129D01*
X156297305Y-90434129D02*
X156225876Y-90434129D01*
X156225876Y-90434129D02*
X156154448Y-90457939D01*
X156154448Y-90457939D02*
X156106829Y-90505558D01*
X156106829Y-90505558D02*
X156083019Y-90553177D01*
X156083019Y-90553177D02*
X156059210Y-90648415D01*
X156059210Y-90648415D02*
X156059210Y-90719843D01*
X156059210Y-90719843D02*
X156083019Y-90815081D01*
X156083019Y-90815081D02*
X156106829Y-90862700D01*
X156106829Y-90862700D02*
X156154448Y-90910320D01*
X156154448Y-90910320D02*
X156225876Y-90934129D01*
X156225876Y-90934129D02*
X156273495Y-90934129D01*
X156273495Y-90934129D02*
X156344924Y-90910320D01*
X156344924Y-90910320D02*
X156368733Y-90886510D01*
X156368733Y-90886510D02*
X156368733Y-90719843D01*
X156368733Y-90719843D02*
X156273495Y-90719843D01*
X156844924Y-90457939D02*
X156797305Y-90434129D01*
X156797305Y-90434129D02*
X156725876Y-90434129D01*
X156725876Y-90434129D02*
X156654448Y-90457939D01*
X156654448Y-90457939D02*
X156606829Y-90505558D01*
X156606829Y-90505558D02*
X156583019Y-90553177D01*
X156583019Y-90553177D02*
X156559210Y-90648415D01*
X156559210Y-90648415D02*
X156559210Y-90719843D01*
X156559210Y-90719843D02*
X156583019Y-90815081D01*
X156583019Y-90815081D02*
X156606829Y-90862700D01*
X156606829Y-90862700D02*
X156654448Y-90910320D01*
X156654448Y-90910320D02*
X156725876Y-90934129D01*
X156725876Y-90934129D02*
X156773495Y-90934129D01*
X156773495Y-90934129D02*
X156844924Y-90910320D01*
X156844924Y-90910320D02*
X156868733Y-90886510D01*
X156868733Y-90886510D02*
X156868733Y-90719843D01*
X156868733Y-90719843D02*
X156773495Y-90719843D01*
X157321114Y-90934129D02*
X157083019Y-90934129D01*
X157083019Y-90934129D02*
X157083019Y-90434129D01*
X157487781Y-90672224D02*
X157654448Y-90672224D01*
X157725876Y-90934129D02*
X157487781Y-90934129D01*
X157487781Y-90934129D02*
X157487781Y-90434129D01*
X157487781Y-90434129D02*
X157725876Y-90434129D01*
X201291272Y-46345551D02*
X201291272Y-46107456D01*
X201434129Y-46393170D02*
X200934129Y-46226504D01*
X200934129Y-46226504D02*
X201434129Y-46059837D01*
X201386510Y-45607457D02*
X201410320Y-45631266D01*
X201410320Y-45631266D02*
X201434129Y-45702695D01*
X201434129Y-45702695D02*
X201434129Y-45750314D01*
X201434129Y-45750314D02*
X201410320Y-45821742D01*
X201410320Y-45821742D02*
X201362700Y-45869361D01*
X201362700Y-45869361D02*
X201315081Y-45893171D01*
X201315081Y-45893171D02*
X201219843Y-45916980D01*
X201219843Y-45916980D02*
X201148415Y-45916980D01*
X201148415Y-45916980D02*
X201053177Y-45893171D01*
X201053177Y-45893171D02*
X201005558Y-45869361D01*
X201005558Y-45869361D02*
X200957939Y-45821742D01*
X200957939Y-45821742D02*
X200934129Y-45750314D01*
X200934129Y-45750314D02*
X200934129Y-45702695D01*
X200934129Y-45702695D02*
X200957939Y-45631266D01*
X200957939Y-45631266D02*
X200981748Y-45607457D01*
X201434129Y-45131266D02*
X201434129Y-45416980D01*
X201434129Y-45274123D02*
X200934129Y-45274123D01*
X200934129Y-45274123D02*
X201005558Y-45321742D01*
X201005558Y-45321742D02*
X201053177Y-45369361D01*
X201053177Y-45369361D02*
X201076986Y-45416980D01*
X201291272Y-51345551D02*
X201291272Y-51107456D01*
X201434129Y-51393170D02*
X200934129Y-51226504D01*
X200934129Y-51226504D02*
X201434129Y-51059837D01*
X201386510Y-50607457D02*
X201410320Y-50631266D01*
X201410320Y-50631266D02*
X201434129Y-50702695D01*
X201434129Y-50702695D02*
X201434129Y-50750314D01*
X201434129Y-50750314D02*
X201410320Y-50821742D01*
X201410320Y-50821742D02*
X201362700Y-50869361D01*
X201362700Y-50869361D02*
X201315081Y-50893171D01*
X201315081Y-50893171D02*
X201219843Y-50916980D01*
X201219843Y-50916980D02*
X201148415Y-50916980D01*
X201148415Y-50916980D02*
X201053177Y-50893171D01*
X201053177Y-50893171D02*
X201005558Y-50869361D01*
X201005558Y-50869361D02*
X200957939Y-50821742D01*
X200957939Y-50821742D02*
X200934129Y-50750314D01*
X200934129Y-50750314D02*
X200934129Y-50702695D01*
X200934129Y-50702695D02*
X200957939Y-50631266D01*
X200957939Y-50631266D02*
X200981748Y-50607457D01*
X200981748Y-50416980D02*
X200957939Y-50393171D01*
X200957939Y-50393171D02*
X200934129Y-50345552D01*
X200934129Y-50345552D02*
X200934129Y-50226504D01*
X200934129Y-50226504D02*
X200957939Y-50178885D01*
X200957939Y-50178885D02*
X200981748Y-50155076D01*
X200981748Y-50155076D02*
X201029367Y-50131266D01*
X201029367Y-50131266D02*
X201076986Y-50131266D01*
X201076986Y-50131266D02*
X201148415Y-50155076D01*
X201148415Y-50155076D02*
X201434129Y-50440790D01*
X201434129Y-50440790D02*
X201434129Y-50131266D01*
X148678257Y-90434129D02*
X148678257Y-90838891D01*
X148678257Y-90838891D02*
X148702067Y-90886510D01*
X148702067Y-90886510D02*
X148725876Y-90910320D01*
X148725876Y-90910320D02*
X148773495Y-90934129D01*
X148773495Y-90934129D02*
X148868733Y-90934129D01*
X148868733Y-90934129D02*
X148916352Y-90910320D01*
X148916352Y-90910320D02*
X148940162Y-90886510D01*
X148940162Y-90886510D02*
X148963971Y-90838891D01*
X148963971Y-90838891D02*
X148963971Y-90434129D01*
X149178258Y-90910320D02*
X149249686Y-90934129D01*
X149249686Y-90934129D02*
X149368734Y-90934129D01*
X149368734Y-90934129D02*
X149416353Y-90910320D01*
X149416353Y-90910320D02*
X149440162Y-90886510D01*
X149440162Y-90886510D02*
X149463972Y-90838891D01*
X149463972Y-90838891D02*
X149463972Y-90791272D01*
X149463972Y-90791272D02*
X149440162Y-90743653D01*
X149440162Y-90743653D02*
X149416353Y-90719843D01*
X149416353Y-90719843D02*
X149368734Y-90696034D01*
X149368734Y-90696034D02*
X149273496Y-90672224D01*
X149273496Y-90672224D02*
X149225877Y-90648415D01*
X149225877Y-90648415D02*
X149202067Y-90624605D01*
X149202067Y-90624605D02*
X149178258Y-90576986D01*
X149178258Y-90576986D02*
X149178258Y-90529367D01*
X149178258Y-90529367D02*
X149202067Y-90481748D01*
X149202067Y-90481748D02*
X149225877Y-90457939D01*
X149225877Y-90457939D02*
X149273496Y-90434129D01*
X149273496Y-90434129D02*
X149392543Y-90434129D01*
X149392543Y-90434129D02*
X149463972Y-90457939D01*
X149654448Y-90791272D02*
X149892543Y-90791272D01*
X149606829Y-90934129D02*
X149773495Y-90434129D01*
X149773495Y-90434129D02*
X149940162Y-90934129D01*
X150392542Y-90934129D02*
X150225876Y-90696034D01*
X150106828Y-90934129D02*
X150106828Y-90434129D01*
X150106828Y-90434129D02*
X150297304Y-90434129D01*
X150297304Y-90434129D02*
X150344923Y-90457939D01*
X150344923Y-90457939D02*
X150368733Y-90481748D01*
X150368733Y-90481748D02*
X150392542Y-90529367D01*
X150392542Y-90529367D02*
X150392542Y-90600796D01*
X150392542Y-90600796D02*
X150368733Y-90648415D01*
X150368733Y-90648415D02*
X150344923Y-90672224D01*
X150344923Y-90672224D02*
X150297304Y-90696034D01*
X150297304Y-90696034D02*
X150106828Y-90696034D01*
X150535400Y-90434129D02*
X150821114Y-90434129D01*
X150678257Y-90934129D02*
X150678257Y-90434129D01*
X152106829Y-90434129D02*
X152392543Y-90434129D01*
X152249686Y-90934129D02*
X152249686Y-90434129D01*
X152511590Y-90434129D02*
X152844923Y-90934129D01*
X152844923Y-90434129D02*
X152511590Y-90934129D01*
X146963971Y-90934129D02*
X146797305Y-90696034D01*
X146678257Y-90934129D02*
X146678257Y-90434129D01*
X146678257Y-90434129D02*
X146868733Y-90434129D01*
X146868733Y-90434129D02*
X146916352Y-90457939D01*
X146916352Y-90457939D02*
X146940162Y-90481748D01*
X146940162Y-90481748D02*
X146963971Y-90529367D01*
X146963971Y-90529367D02*
X146963971Y-90600796D01*
X146963971Y-90600796D02*
X146940162Y-90648415D01*
X146940162Y-90648415D02*
X146916352Y-90672224D01*
X146916352Y-90672224D02*
X146868733Y-90696034D01*
X146868733Y-90696034D02*
X146678257Y-90696034D01*
X147130638Y-90434129D02*
X147463971Y-90934129D01*
X147463971Y-90434129D02*
X147130638Y-90934129D01*
D13*
X155669700Y-77833332D02*
X155717319Y-77690475D01*
X155717319Y-77690475D02*
X155717319Y-77452380D01*
X155717319Y-77452380D02*
X155669700Y-77357142D01*
X155669700Y-77357142D02*
X155622080Y-77309523D01*
X155622080Y-77309523D02*
X155526842Y-77261904D01*
X155526842Y-77261904D02*
X155431604Y-77261904D01*
X155431604Y-77261904D02*
X155336366Y-77309523D01*
X155336366Y-77309523D02*
X155288747Y-77357142D01*
X155288747Y-77357142D02*
X155241128Y-77452380D01*
X155241128Y-77452380D02*
X155193509Y-77642856D01*
X155193509Y-77642856D02*
X155145890Y-77738094D01*
X155145890Y-77738094D02*
X155098271Y-77785713D01*
X155098271Y-77785713D02*
X155003033Y-77833332D01*
X155003033Y-77833332D02*
X154907795Y-77833332D01*
X154907795Y-77833332D02*
X154812557Y-77785713D01*
X154812557Y-77785713D02*
X154764938Y-77738094D01*
X154764938Y-77738094D02*
X154717319Y-77642856D01*
X154717319Y-77642856D02*
X154717319Y-77404761D01*
X154717319Y-77404761D02*
X154764938Y-77261904D01*
X154717319Y-76928570D02*
X155717319Y-76690475D01*
X155717319Y-76690475D02*
X155003033Y-76499999D01*
X155003033Y-76499999D02*
X155717319Y-76309523D01*
X155717319Y-76309523D02*
X154717319Y-76071428D01*
X155717319Y-75166666D02*
X155717319Y-75738094D01*
X155717319Y-75452380D02*
X154717319Y-75452380D01*
X154717319Y-75452380D02*
X154860176Y-75547618D01*
X154860176Y-75547618D02*
X154955414Y-75642856D01*
X154955414Y-75642856D02*
X155003033Y-75738094D01*
D14*
X197804318Y-48923332D02*
X198711461Y-48923332D01*
X198711461Y-48923332D02*
X198892889Y-48983809D01*
X198892889Y-48983809D02*
X199013842Y-49104761D01*
X199013842Y-49104761D02*
X199074318Y-49286190D01*
X199074318Y-49286190D02*
X199074318Y-49407142D01*
X197925270Y-48379047D02*
X197864794Y-48318571D01*
X197864794Y-48318571D02*
X197804318Y-48197618D01*
X197804318Y-48197618D02*
X197804318Y-47895237D01*
X197804318Y-47895237D02*
X197864794Y-47774285D01*
X197864794Y-47774285D02*
X197925270Y-47713809D01*
X197925270Y-47713809D02*
X198046222Y-47653332D01*
X198046222Y-47653332D02*
X198167175Y-47653332D01*
X198167175Y-47653332D02*
X198348603Y-47713809D01*
X198348603Y-47713809D02*
X199074318Y-48439523D01*
X199074318Y-48439523D02*
X199074318Y-47653332D01*
D12*
X149679010Y-69583333D02*
X149702820Y-69607142D01*
X149702820Y-69607142D02*
X149726629Y-69678571D01*
X149726629Y-69678571D02*
X149726629Y-69726190D01*
X149726629Y-69726190D02*
X149702820Y-69797618D01*
X149702820Y-69797618D02*
X149655200Y-69845237D01*
X149655200Y-69845237D02*
X149607581Y-69869047D01*
X149607581Y-69869047D02*
X149512343Y-69892856D01*
X149512343Y-69892856D02*
X149440915Y-69892856D01*
X149440915Y-69892856D02*
X149345677Y-69869047D01*
X149345677Y-69869047D02*
X149298058Y-69845237D01*
X149298058Y-69845237D02*
X149250439Y-69797618D01*
X149250439Y-69797618D02*
X149226629Y-69726190D01*
X149226629Y-69726190D02*
X149226629Y-69678571D01*
X149226629Y-69678571D02*
X149250439Y-69607142D01*
X149250439Y-69607142D02*
X149274248Y-69583333D01*
X149226629Y-69154761D02*
X149226629Y-69249999D01*
X149226629Y-69249999D02*
X149250439Y-69297618D01*
X149250439Y-69297618D02*
X149274248Y-69321428D01*
X149274248Y-69321428D02*
X149345677Y-69369047D01*
X149345677Y-69369047D02*
X149440915Y-69392856D01*
X149440915Y-69392856D02*
X149631391Y-69392856D01*
X149631391Y-69392856D02*
X149679010Y-69369047D01*
X149679010Y-69369047D02*
X149702820Y-69345237D01*
X149702820Y-69345237D02*
X149726629Y-69297618D01*
X149726629Y-69297618D02*
X149726629Y-69202380D01*
X149726629Y-69202380D02*
X149702820Y-69154761D01*
X149702820Y-69154761D02*
X149679010Y-69130952D01*
X149679010Y-69130952D02*
X149631391Y-69107142D01*
X149631391Y-69107142D02*
X149512343Y-69107142D01*
X149512343Y-69107142D02*
X149464724Y-69130952D01*
X149464724Y-69130952D02*
X149440915Y-69154761D01*
X149440915Y-69154761D02*
X149417105Y-69202380D01*
X149417105Y-69202380D02*
X149417105Y-69297618D01*
X149417105Y-69297618D02*
X149440915Y-69345237D01*
X149440915Y-69345237D02*
X149464724Y-69369047D01*
X149464724Y-69369047D02*
X149512343Y-69392856D01*
D13*
X191954819Y-56926785D02*
X190954819Y-56926785D01*
X190954819Y-56926785D02*
X190954819Y-56545833D01*
X190954819Y-56545833D02*
X191002438Y-56450595D01*
X191002438Y-56450595D02*
X191050057Y-56402976D01*
X191050057Y-56402976D02*
X191145295Y-56355357D01*
X191145295Y-56355357D02*
X191288152Y-56355357D01*
X191288152Y-56355357D02*
X191383390Y-56402976D01*
X191383390Y-56402976D02*
X191431009Y-56450595D01*
X191431009Y-56450595D02*
X191478628Y-56545833D01*
X191478628Y-56545833D02*
X191478628Y-56926785D01*
X191907200Y-55974404D02*
X191954819Y-55831547D01*
X191954819Y-55831547D02*
X191954819Y-55593452D01*
X191954819Y-55593452D02*
X191907200Y-55498214D01*
X191907200Y-55498214D02*
X191859580Y-55450595D01*
X191859580Y-55450595D02*
X191764342Y-55402976D01*
X191764342Y-55402976D02*
X191669104Y-55402976D01*
X191669104Y-55402976D02*
X191573866Y-55450595D01*
X191573866Y-55450595D02*
X191526247Y-55498214D01*
X191526247Y-55498214D02*
X191478628Y-55593452D01*
X191478628Y-55593452D02*
X191431009Y-55783928D01*
X191431009Y-55783928D02*
X191383390Y-55879166D01*
X191383390Y-55879166D02*
X191335771Y-55926785D01*
X191335771Y-55926785D02*
X191240533Y-55974404D01*
X191240533Y-55974404D02*
X191145295Y-55974404D01*
X191145295Y-55974404D02*
X191050057Y-55926785D01*
X191050057Y-55926785D02*
X191002438Y-55879166D01*
X191002438Y-55879166D02*
X190954819Y-55783928D01*
X190954819Y-55783928D02*
X190954819Y-55545833D01*
X190954819Y-55545833D02*
X191002438Y-55402976D01*
X191050057Y-55022023D02*
X191002438Y-54974404D01*
X191002438Y-54974404D02*
X190954819Y-54879166D01*
X190954819Y-54879166D02*
X190954819Y-54641071D01*
X190954819Y-54641071D02*
X191002438Y-54545833D01*
X191002438Y-54545833D02*
X191050057Y-54498214D01*
X191050057Y-54498214D02*
X191145295Y-54450595D01*
X191145295Y-54450595D02*
X191240533Y-54450595D01*
X191240533Y-54450595D02*
X191383390Y-54498214D01*
X191383390Y-54498214D02*
X191954819Y-55069642D01*
X191954819Y-55069642D02*
X191954819Y-54450595D01*
D12*
X143989129Y-90083333D02*
X143751034Y-90249999D01*
X143989129Y-90369047D02*
X143489129Y-90369047D01*
X143489129Y-90369047D02*
X143489129Y-90178571D01*
X143489129Y-90178571D02*
X143512939Y-90130952D01*
X143512939Y-90130952D02*
X143536748Y-90107142D01*
X143536748Y-90107142D02*
X143584367Y-90083333D01*
X143584367Y-90083333D02*
X143655796Y-90083333D01*
X143655796Y-90083333D02*
X143703415Y-90107142D01*
X143703415Y-90107142D02*
X143727224Y-90130952D01*
X143727224Y-90130952D02*
X143751034Y-90178571D01*
X143751034Y-90178571D02*
X143751034Y-90369047D01*
X143489129Y-89654761D02*
X143489129Y-89749999D01*
X143489129Y-89749999D02*
X143512939Y-89797618D01*
X143512939Y-89797618D02*
X143536748Y-89821428D01*
X143536748Y-89821428D02*
X143608177Y-89869047D01*
X143608177Y-89869047D02*
X143703415Y-89892856D01*
X143703415Y-89892856D02*
X143893891Y-89892856D01*
X143893891Y-89892856D02*
X143941510Y-89869047D01*
X143941510Y-89869047D02*
X143965320Y-89845237D01*
X143965320Y-89845237D02*
X143989129Y-89797618D01*
X143989129Y-89797618D02*
X143989129Y-89702380D01*
X143989129Y-89702380D02*
X143965320Y-89654761D01*
X143965320Y-89654761D02*
X143941510Y-89630952D01*
X143941510Y-89630952D02*
X143893891Y-89607142D01*
X143893891Y-89607142D02*
X143774843Y-89607142D01*
X143774843Y-89607142D02*
X143727224Y-89630952D01*
X143727224Y-89630952D02*
X143703415Y-89654761D01*
X143703415Y-89654761D02*
X143679605Y-89702380D01*
X143679605Y-89702380D02*
X143679605Y-89797618D01*
X143679605Y-89797618D02*
X143703415Y-89845237D01*
X143703415Y-89845237D02*
X143727224Y-89869047D01*
X143727224Y-89869047D02*
X143774843Y-89892856D01*
X148913519Y-85160100D02*
X148937329Y-85183909D01*
X148937329Y-85183909D02*
X148961138Y-85255338D01*
X148961138Y-85255338D02*
X148961138Y-85302957D01*
X148961138Y-85302957D02*
X148937329Y-85374385D01*
X148937329Y-85374385D02*
X148889709Y-85422004D01*
X148889709Y-85422004D02*
X148842090Y-85445814D01*
X148842090Y-85445814D02*
X148746852Y-85469623D01*
X148746852Y-85469623D02*
X148675424Y-85469623D01*
X148675424Y-85469623D02*
X148580186Y-85445814D01*
X148580186Y-85445814D02*
X148532567Y-85422004D01*
X148532567Y-85422004D02*
X148484948Y-85374385D01*
X148484948Y-85374385D02*
X148461138Y-85302957D01*
X148461138Y-85302957D02*
X148461138Y-85255338D01*
X148461138Y-85255338D02*
X148484948Y-85183909D01*
X148484948Y-85183909D02*
X148508757Y-85160100D01*
X148961138Y-84922004D02*
X148961138Y-84826766D01*
X148961138Y-84826766D02*
X148937329Y-84779147D01*
X148937329Y-84779147D02*
X148913519Y-84755338D01*
X148913519Y-84755338D02*
X148842090Y-84707719D01*
X148842090Y-84707719D02*
X148746852Y-84683909D01*
X148746852Y-84683909D02*
X148556376Y-84683909D01*
X148556376Y-84683909D02*
X148508757Y-84707719D01*
X148508757Y-84707719D02*
X148484948Y-84731528D01*
X148484948Y-84731528D02*
X148461138Y-84779147D01*
X148461138Y-84779147D02*
X148461138Y-84874385D01*
X148461138Y-84874385D02*
X148484948Y-84922004D01*
X148484948Y-84922004D02*
X148508757Y-84945814D01*
X148508757Y-84945814D02*
X148556376Y-84969623D01*
X148556376Y-84969623D02*
X148675424Y-84969623D01*
X148675424Y-84969623D02*
X148723043Y-84945814D01*
X148723043Y-84945814D02*
X148746852Y-84922004D01*
X148746852Y-84922004D02*
X148770662Y-84874385D01*
X148770662Y-84874385D02*
X148770662Y-84779147D01*
X148770662Y-84779147D02*
X148746852Y-84731528D01*
X148746852Y-84731528D02*
X148723043Y-84707719D01*
X148723043Y-84707719D02*
X148675424Y-84683909D01*
X152941510Y-82583333D02*
X152965320Y-82607142D01*
X152965320Y-82607142D02*
X152989129Y-82678571D01*
X152989129Y-82678571D02*
X152989129Y-82726190D01*
X152989129Y-82726190D02*
X152965320Y-82797618D01*
X152965320Y-82797618D02*
X152917700Y-82845237D01*
X152917700Y-82845237D02*
X152870081Y-82869047D01*
X152870081Y-82869047D02*
X152774843Y-82892856D01*
X152774843Y-82892856D02*
X152703415Y-82892856D01*
X152703415Y-82892856D02*
X152608177Y-82869047D01*
X152608177Y-82869047D02*
X152560558Y-82845237D01*
X152560558Y-82845237D02*
X152512939Y-82797618D01*
X152512939Y-82797618D02*
X152489129Y-82726190D01*
X152489129Y-82726190D02*
X152489129Y-82678571D01*
X152489129Y-82678571D02*
X152512939Y-82607142D01*
X152512939Y-82607142D02*
X152536748Y-82583333D01*
X152655796Y-82154761D02*
X152989129Y-82154761D01*
X152465320Y-82273809D02*
X152822462Y-82392856D01*
X152822462Y-82392856D02*
X152822462Y-82083333D01*
D13*
X176654761Y-50754819D02*
X176321428Y-50278628D01*
X176083333Y-50754819D02*
X176083333Y-49754819D01*
X176083333Y-49754819D02*
X176464285Y-49754819D01*
X176464285Y-49754819D02*
X176559523Y-49802438D01*
X176559523Y-49802438D02*
X176607142Y-49850057D01*
X176607142Y-49850057D02*
X176654761Y-49945295D01*
X176654761Y-49945295D02*
X176654761Y-50088152D01*
X176654761Y-50088152D02*
X176607142Y-50183390D01*
X176607142Y-50183390D02*
X176559523Y-50231009D01*
X176559523Y-50231009D02*
X176464285Y-50278628D01*
X176464285Y-50278628D02*
X176083333Y-50278628D01*
X176940476Y-49754819D02*
X177273809Y-50754819D01*
X177273809Y-50754819D02*
X177607142Y-49754819D01*
X178464285Y-50754819D02*
X177892857Y-50754819D01*
X178178571Y-50754819D02*
X178178571Y-49754819D01*
X178178571Y-49754819D02*
X178083333Y-49897676D01*
X178083333Y-49897676D02*
X177988095Y-49992914D01*
X177988095Y-49992914D02*
X177892857Y-50040533D01*
X189454819Y-47761904D02*
X190264342Y-47761904D01*
X190264342Y-47761904D02*
X190359580Y-47714285D01*
X190359580Y-47714285D02*
X190407200Y-47666666D01*
X190407200Y-47666666D02*
X190454819Y-47571428D01*
X190454819Y-47571428D02*
X190454819Y-47380952D01*
X190454819Y-47380952D02*
X190407200Y-47285714D01*
X190407200Y-47285714D02*
X190359580Y-47238095D01*
X190359580Y-47238095D02*
X190264342Y-47190476D01*
X190264342Y-47190476D02*
X189454819Y-47190476D01*
X189550057Y-46761904D02*
X189502438Y-46714285D01*
X189502438Y-46714285D02*
X189454819Y-46619047D01*
X189454819Y-46619047D02*
X189454819Y-46380952D01*
X189454819Y-46380952D02*
X189502438Y-46285714D01*
X189502438Y-46285714D02*
X189550057Y-46238095D01*
X189550057Y-46238095D02*
X189645295Y-46190476D01*
X189645295Y-46190476D02*
X189740533Y-46190476D01*
X189740533Y-46190476D02*
X189883390Y-46238095D01*
X189883390Y-46238095D02*
X190454819Y-46809523D01*
X190454819Y-46809523D02*
X190454819Y-46190476D01*
D12*
X160989129Y-79380952D02*
X161393891Y-79380952D01*
X161393891Y-79380952D02*
X161441510Y-79357142D01*
X161441510Y-79357142D02*
X161465320Y-79333333D01*
X161465320Y-79333333D02*
X161489129Y-79285714D01*
X161489129Y-79285714D02*
X161489129Y-79190476D01*
X161489129Y-79190476D02*
X161465320Y-79142857D01*
X161465320Y-79142857D02*
X161441510Y-79119047D01*
X161441510Y-79119047D02*
X161393891Y-79095238D01*
X161393891Y-79095238D02*
X160989129Y-79095238D01*
X160989129Y-78904761D02*
X160989129Y-78595237D01*
X160989129Y-78595237D02*
X161179605Y-78761904D01*
X161179605Y-78761904D02*
X161179605Y-78690475D01*
X161179605Y-78690475D02*
X161203415Y-78642856D01*
X161203415Y-78642856D02*
X161227224Y-78619047D01*
X161227224Y-78619047D02*
X161274843Y-78595237D01*
X161274843Y-78595237D02*
X161393891Y-78595237D01*
X161393891Y-78595237D02*
X161441510Y-78619047D01*
X161441510Y-78619047D02*
X161465320Y-78642856D01*
X161465320Y-78642856D02*
X161489129Y-78690475D01*
X161489129Y-78690475D02*
X161489129Y-78833332D01*
X161489129Y-78833332D02*
X161465320Y-78880951D01*
X161465320Y-78880951D02*
X161441510Y-78904761D01*
X156941510Y-82583333D02*
X156965320Y-82607142D01*
X156965320Y-82607142D02*
X156989129Y-82678571D01*
X156989129Y-82678571D02*
X156989129Y-82726190D01*
X156989129Y-82726190D02*
X156965320Y-82797618D01*
X156965320Y-82797618D02*
X156917700Y-82845237D01*
X156917700Y-82845237D02*
X156870081Y-82869047D01*
X156870081Y-82869047D02*
X156774843Y-82892856D01*
X156774843Y-82892856D02*
X156703415Y-82892856D01*
X156703415Y-82892856D02*
X156608177Y-82869047D01*
X156608177Y-82869047D02*
X156560558Y-82845237D01*
X156560558Y-82845237D02*
X156512939Y-82797618D01*
X156512939Y-82797618D02*
X156489129Y-82726190D01*
X156489129Y-82726190D02*
X156489129Y-82678571D01*
X156489129Y-82678571D02*
X156512939Y-82607142D01*
X156512939Y-82607142D02*
X156536748Y-82583333D01*
X156703415Y-82297618D02*
X156679605Y-82345237D01*
X156679605Y-82345237D02*
X156655796Y-82369047D01*
X156655796Y-82369047D02*
X156608177Y-82392856D01*
X156608177Y-82392856D02*
X156584367Y-82392856D01*
X156584367Y-82392856D02*
X156536748Y-82369047D01*
X156536748Y-82369047D02*
X156512939Y-82345237D01*
X156512939Y-82345237D02*
X156489129Y-82297618D01*
X156489129Y-82297618D02*
X156489129Y-82202380D01*
X156489129Y-82202380D02*
X156512939Y-82154761D01*
X156512939Y-82154761D02*
X156536748Y-82130952D01*
X156536748Y-82130952D02*
X156584367Y-82107142D01*
X156584367Y-82107142D02*
X156608177Y-82107142D01*
X156608177Y-82107142D02*
X156655796Y-82130952D01*
X156655796Y-82130952D02*
X156679605Y-82154761D01*
X156679605Y-82154761D02*
X156703415Y-82202380D01*
X156703415Y-82202380D02*
X156703415Y-82297618D01*
X156703415Y-82297618D02*
X156727224Y-82345237D01*
X156727224Y-82345237D02*
X156751034Y-82369047D01*
X156751034Y-82369047D02*
X156798653Y-82392856D01*
X156798653Y-82392856D02*
X156893891Y-82392856D01*
X156893891Y-82392856D02*
X156941510Y-82369047D01*
X156941510Y-82369047D02*
X156965320Y-82345237D01*
X156965320Y-82345237D02*
X156989129Y-82297618D01*
X156989129Y-82297618D02*
X156989129Y-82202380D01*
X156989129Y-82202380D02*
X156965320Y-82154761D01*
X156965320Y-82154761D02*
X156941510Y-82130952D01*
X156941510Y-82130952D02*
X156893891Y-82107142D01*
X156893891Y-82107142D02*
X156798653Y-82107142D01*
X156798653Y-82107142D02*
X156751034Y-82130952D01*
X156751034Y-82130952D02*
X156727224Y-82154761D01*
X156727224Y-82154761D02*
X156703415Y-82202380D01*
X144726629Y-69583333D02*
X144488534Y-69749999D01*
X144726629Y-69869047D02*
X144226629Y-69869047D01*
X144226629Y-69869047D02*
X144226629Y-69678571D01*
X144226629Y-69678571D02*
X144250439Y-69630952D01*
X144250439Y-69630952D02*
X144274248Y-69607142D01*
X144274248Y-69607142D02*
X144321867Y-69583333D01*
X144321867Y-69583333D02*
X144393296Y-69583333D01*
X144393296Y-69583333D02*
X144440915Y-69607142D01*
X144440915Y-69607142D02*
X144464724Y-69630952D01*
X144464724Y-69630952D02*
X144488534Y-69678571D01*
X144488534Y-69678571D02*
X144488534Y-69869047D01*
X144274248Y-69392856D02*
X144250439Y-69369047D01*
X144250439Y-69369047D02*
X144226629Y-69321428D01*
X144226629Y-69321428D02*
X144226629Y-69202380D01*
X144226629Y-69202380D02*
X144250439Y-69154761D01*
X144250439Y-69154761D02*
X144274248Y-69130952D01*
X144274248Y-69130952D02*
X144321867Y-69107142D01*
X144321867Y-69107142D02*
X144369486Y-69107142D01*
X144369486Y-69107142D02*
X144440915Y-69130952D01*
X144440915Y-69130952D02*
X144726629Y-69416666D01*
X144726629Y-69416666D02*
X144726629Y-69107142D01*
X148989129Y-82583333D02*
X148751034Y-82749999D01*
X148989129Y-82869047D02*
X148489129Y-82869047D01*
X148489129Y-82869047D02*
X148489129Y-82678571D01*
X148489129Y-82678571D02*
X148512939Y-82630952D01*
X148512939Y-82630952D02*
X148536748Y-82607142D01*
X148536748Y-82607142D02*
X148584367Y-82583333D01*
X148584367Y-82583333D02*
X148655796Y-82583333D01*
X148655796Y-82583333D02*
X148703415Y-82607142D01*
X148703415Y-82607142D02*
X148727224Y-82630952D01*
X148727224Y-82630952D02*
X148751034Y-82678571D01*
X148751034Y-82678571D02*
X148751034Y-82869047D01*
X148989129Y-82107142D02*
X148989129Y-82392856D01*
X148989129Y-82249999D02*
X148489129Y-82249999D01*
X148489129Y-82249999D02*
X148560558Y-82297618D01*
X148560558Y-82297618D02*
X148608177Y-82345237D01*
X148608177Y-82345237D02*
X148631986Y-82392856D01*
D13*
X194324761Y-90000057D02*
X194229523Y-89952438D01*
X194229523Y-89952438D02*
X194134285Y-89857200D01*
X194134285Y-89857200D02*
X193991428Y-89714342D01*
X193991428Y-89714342D02*
X193896190Y-89666723D01*
X193896190Y-89666723D02*
X193800952Y-89666723D01*
X193848571Y-89904819D02*
X193753333Y-89857200D01*
X193753333Y-89857200D02*
X193658095Y-89761961D01*
X193658095Y-89761961D02*
X193610476Y-89571485D01*
X193610476Y-89571485D02*
X193610476Y-89238152D01*
X193610476Y-89238152D02*
X193658095Y-89047676D01*
X193658095Y-89047676D02*
X193753333Y-88952438D01*
X193753333Y-88952438D02*
X193848571Y-88904819D01*
X193848571Y-88904819D02*
X194039047Y-88904819D01*
X194039047Y-88904819D02*
X194134285Y-88952438D01*
X194134285Y-88952438D02*
X194229523Y-89047676D01*
X194229523Y-89047676D02*
X194277142Y-89238152D01*
X194277142Y-89238152D02*
X194277142Y-89571485D01*
X194277142Y-89571485D02*
X194229523Y-89761961D01*
X194229523Y-89761961D02*
X194134285Y-89857200D01*
X194134285Y-89857200D02*
X194039047Y-89904819D01*
X194039047Y-89904819D02*
X193848571Y-89904819D01*
X194658095Y-89000057D02*
X194705714Y-88952438D01*
X194705714Y-88952438D02*
X194800952Y-88904819D01*
X194800952Y-88904819D02*
X195039047Y-88904819D01*
X195039047Y-88904819D02*
X195134285Y-88952438D01*
X195134285Y-88952438D02*
X195181904Y-89000057D01*
X195181904Y-89000057D02*
X195229523Y-89095295D01*
X195229523Y-89095295D02*
X195229523Y-89190533D01*
X195229523Y-89190533D02*
X195181904Y-89333390D01*
X195181904Y-89333390D02*
X194610476Y-89904819D01*
X194610476Y-89904819D02*
X195229523Y-89904819D01*
D12*
X185226629Y-43083333D02*
X184988534Y-43249999D01*
X185226629Y-43369047D02*
X184726629Y-43369047D01*
X184726629Y-43369047D02*
X184726629Y-43178571D01*
X184726629Y-43178571D02*
X184750439Y-43130952D01*
X184750439Y-43130952D02*
X184774248Y-43107142D01*
X184774248Y-43107142D02*
X184821867Y-43083333D01*
X184821867Y-43083333D02*
X184893296Y-43083333D01*
X184893296Y-43083333D02*
X184940915Y-43107142D01*
X184940915Y-43107142D02*
X184964724Y-43130952D01*
X184964724Y-43130952D02*
X184988534Y-43178571D01*
X184988534Y-43178571D02*
X184988534Y-43369047D01*
X184893296Y-42654761D02*
X185226629Y-42654761D01*
X184702820Y-42773809D02*
X185059962Y-42892856D01*
X185059962Y-42892856D02*
X185059962Y-42583333D01*
X156989129Y-85083333D02*
X156751034Y-85249999D01*
X156989129Y-85369047D02*
X156489129Y-85369047D01*
X156489129Y-85369047D02*
X156489129Y-85178571D01*
X156489129Y-85178571D02*
X156512939Y-85130952D01*
X156512939Y-85130952D02*
X156536748Y-85107142D01*
X156536748Y-85107142D02*
X156584367Y-85083333D01*
X156584367Y-85083333D02*
X156655796Y-85083333D01*
X156655796Y-85083333D02*
X156703415Y-85107142D01*
X156703415Y-85107142D02*
X156727224Y-85130952D01*
X156727224Y-85130952D02*
X156751034Y-85178571D01*
X156751034Y-85178571D02*
X156751034Y-85369047D01*
X156489129Y-84916666D02*
X156489129Y-84607142D01*
X156489129Y-84607142D02*
X156679605Y-84773809D01*
X156679605Y-84773809D02*
X156679605Y-84702380D01*
X156679605Y-84702380D02*
X156703415Y-84654761D01*
X156703415Y-84654761D02*
X156727224Y-84630952D01*
X156727224Y-84630952D02*
X156774843Y-84607142D01*
X156774843Y-84607142D02*
X156893891Y-84607142D01*
X156893891Y-84607142D02*
X156941510Y-84630952D01*
X156941510Y-84630952D02*
X156965320Y-84654761D01*
X156965320Y-84654761D02*
X156989129Y-84702380D01*
X156989129Y-84702380D02*
X156989129Y-84845237D01*
X156989129Y-84845237D02*
X156965320Y-84892856D01*
X156965320Y-84892856D02*
X156941510Y-84916666D01*
D13*
X202431009Y-78583333D02*
X202431009Y-78916666D01*
X202954819Y-78916666D02*
X201954819Y-78916666D01*
X201954819Y-78916666D02*
X201954819Y-78440476D01*
X202954819Y-77535714D02*
X202954819Y-78107142D01*
X202954819Y-77821428D02*
X201954819Y-77821428D01*
X201954819Y-77821428D02*
X202097676Y-77916666D01*
X202097676Y-77916666D02*
X202192914Y-78011904D01*
X202192914Y-78011904D02*
X202240533Y-78107142D01*
X142444819Y-66321904D02*
X143254342Y-66321904D01*
X143254342Y-66321904D02*
X143349580Y-66274285D01*
X143349580Y-66274285D02*
X143397200Y-66226666D01*
X143397200Y-66226666D02*
X143444819Y-66131428D01*
X143444819Y-66131428D02*
X143444819Y-65940952D01*
X143444819Y-65940952D02*
X143397200Y-65845714D01*
X143397200Y-65845714D02*
X143349580Y-65798095D01*
X143349580Y-65798095D02*
X143254342Y-65750476D01*
X143254342Y-65750476D02*
X142444819Y-65750476D01*
X143444819Y-64750476D02*
X143444819Y-65321904D01*
X143444819Y-65036190D02*
X142444819Y-65036190D01*
X142444819Y-65036190D02*
X142587676Y-65131428D01*
X142587676Y-65131428D02*
X142682914Y-65226666D01*
X142682914Y-65226666D02*
X142730533Y-65321904D01*
D12*
X185416666Y-50726629D02*
X185250000Y-50488534D01*
X185130952Y-50726629D02*
X185130952Y-50226629D01*
X185130952Y-50226629D02*
X185321428Y-50226629D01*
X185321428Y-50226629D02*
X185369047Y-50250439D01*
X185369047Y-50250439D02*
X185392857Y-50274248D01*
X185392857Y-50274248D02*
X185416666Y-50321867D01*
X185416666Y-50321867D02*
X185416666Y-50393296D01*
X185416666Y-50393296D02*
X185392857Y-50440915D01*
X185392857Y-50440915D02*
X185369047Y-50464724D01*
X185369047Y-50464724D02*
X185321428Y-50488534D01*
X185321428Y-50488534D02*
X185130952Y-50488534D01*
X185869047Y-50226629D02*
X185630952Y-50226629D01*
X185630952Y-50226629D02*
X185607143Y-50464724D01*
X185607143Y-50464724D02*
X185630952Y-50440915D01*
X185630952Y-50440915D02*
X185678571Y-50417105D01*
X185678571Y-50417105D02*
X185797619Y-50417105D01*
X185797619Y-50417105D02*
X185845238Y-50440915D01*
X185845238Y-50440915D02*
X185869047Y-50464724D01*
X185869047Y-50464724D02*
X185892857Y-50512343D01*
X185892857Y-50512343D02*
X185892857Y-50631391D01*
X185892857Y-50631391D02*
X185869047Y-50679010D01*
X185869047Y-50679010D02*
X185845238Y-50702820D01*
X185845238Y-50702820D02*
X185797619Y-50726629D01*
X185797619Y-50726629D02*
X185678571Y-50726629D01*
X185678571Y-50726629D02*
X185630952Y-50702820D01*
X185630952Y-50702820D02*
X185607143Y-50679010D01*
X141916666Y-50679010D02*
X141892857Y-50702820D01*
X141892857Y-50702820D02*
X141821428Y-50726629D01*
X141821428Y-50726629D02*
X141773809Y-50726629D01*
X141773809Y-50726629D02*
X141702381Y-50702820D01*
X141702381Y-50702820D02*
X141654762Y-50655200D01*
X141654762Y-50655200D02*
X141630952Y-50607581D01*
X141630952Y-50607581D02*
X141607143Y-50512343D01*
X141607143Y-50512343D02*
X141607143Y-50440915D01*
X141607143Y-50440915D02*
X141630952Y-50345677D01*
X141630952Y-50345677D02*
X141654762Y-50298058D01*
X141654762Y-50298058D02*
X141702381Y-50250439D01*
X141702381Y-50250439D02*
X141773809Y-50226629D01*
X141773809Y-50226629D02*
X141821428Y-50226629D01*
X141821428Y-50226629D02*
X141892857Y-50250439D01*
X141892857Y-50250439D02*
X141916666Y-50274248D01*
X142392857Y-50726629D02*
X142107143Y-50726629D01*
X142250000Y-50726629D02*
X142250000Y-50226629D01*
X142250000Y-50226629D02*
X142202381Y-50298058D01*
X142202381Y-50298058D02*
X142154762Y-50345677D01*
X142154762Y-50345677D02*
X142107143Y-50369486D01*
D13*
X146919700Y-77833332D02*
X146967319Y-77690475D01*
X146967319Y-77690475D02*
X146967319Y-77452380D01*
X146967319Y-77452380D02*
X146919700Y-77357142D01*
X146919700Y-77357142D02*
X146872080Y-77309523D01*
X146872080Y-77309523D02*
X146776842Y-77261904D01*
X146776842Y-77261904D02*
X146681604Y-77261904D01*
X146681604Y-77261904D02*
X146586366Y-77309523D01*
X146586366Y-77309523D02*
X146538747Y-77357142D01*
X146538747Y-77357142D02*
X146491128Y-77452380D01*
X146491128Y-77452380D02*
X146443509Y-77642856D01*
X146443509Y-77642856D02*
X146395890Y-77738094D01*
X146395890Y-77738094D02*
X146348271Y-77785713D01*
X146348271Y-77785713D02*
X146253033Y-77833332D01*
X146253033Y-77833332D02*
X146157795Y-77833332D01*
X146157795Y-77833332D02*
X146062557Y-77785713D01*
X146062557Y-77785713D02*
X146014938Y-77738094D01*
X146014938Y-77738094D02*
X145967319Y-77642856D01*
X145967319Y-77642856D02*
X145967319Y-77404761D01*
X145967319Y-77404761D02*
X146014938Y-77261904D01*
X145967319Y-76928570D02*
X146967319Y-76690475D01*
X146967319Y-76690475D02*
X146253033Y-76499999D01*
X146253033Y-76499999D02*
X146967319Y-76309523D01*
X146967319Y-76309523D02*
X145967319Y-76071428D01*
X146062557Y-75738094D02*
X146014938Y-75690475D01*
X146014938Y-75690475D02*
X145967319Y-75595237D01*
X145967319Y-75595237D02*
X145967319Y-75357142D01*
X145967319Y-75357142D02*
X146014938Y-75261904D01*
X146014938Y-75261904D02*
X146062557Y-75214285D01*
X146062557Y-75214285D02*
X146157795Y-75166666D01*
X146157795Y-75166666D02*
X146253033Y-75166666D01*
X146253033Y-75166666D02*
X146395890Y-75214285D01*
X146395890Y-75214285D02*
X146967319Y-75785713D01*
X146967319Y-75785713D02*
X146967319Y-75166666D01*
D12*
X152140833Y-89496629D02*
X152140833Y-89853772D01*
X152140833Y-89853772D02*
X152117024Y-89925200D01*
X152117024Y-89925200D02*
X152069405Y-89972820D01*
X152069405Y-89972820D02*
X151997976Y-89996629D01*
X151997976Y-89996629D02*
X151950357Y-89996629D01*
X152640833Y-89996629D02*
X152355119Y-89996629D01*
X152497976Y-89996629D02*
X152497976Y-89496629D01*
X152497976Y-89496629D02*
X152450357Y-89568058D01*
X152450357Y-89568058D02*
X152402738Y-89615677D01*
X152402738Y-89615677D02*
X152355119Y-89639486D01*
D13*
X162122080Y-86166666D02*
X162169700Y-86214285D01*
X162169700Y-86214285D02*
X162217319Y-86357142D01*
X162217319Y-86357142D02*
X162217319Y-86452380D01*
X162217319Y-86452380D02*
X162169700Y-86595237D01*
X162169700Y-86595237D02*
X162074461Y-86690475D01*
X162074461Y-86690475D02*
X161979223Y-86738094D01*
X161979223Y-86738094D02*
X161788747Y-86785713D01*
X161788747Y-86785713D02*
X161645890Y-86785713D01*
X161645890Y-86785713D02*
X161455414Y-86738094D01*
X161455414Y-86738094D02*
X161360176Y-86690475D01*
X161360176Y-86690475D02*
X161264938Y-86595237D01*
X161264938Y-86595237D02*
X161217319Y-86452380D01*
X161217319Y-86452380D02*
X161217319Y-86357142D01*
X161217319Y-86357142D02*
X161264938Y-86214285D01*
X161264938Y-86214285D02*
X161312557Y-86166666D01*
X161217319Y-85261904D02*
X161217319Y-85738094D01*
X161217319Y-85738094D02*
X161693509Y-85785713D01*
X161693509Y-85785713D02*
X161645890Y-85738094D01*
X161645890Y-85738094D02*
X161598271Y-85642856D01*
X161598271Y-85642856D02*
X161598271Y-85404761D01*
X161598271Y-85404761D02*
X161645890Y-85309523D01*
X161645890Y-85309523D02*
X161693509Y-85261904D01*
X161693509Y-85261904D02*
X161788747Y-85214285D01*
X161788747Y-85214285D02*
X162026842Y-85214285D01*
X162026842Y-85214285D02*
X162122080Y-85261904D01*
X162122080Y-85261904D02*
X162169700Y-85309523D01*
X162169700Y-85309523D02*
X162217319Y-85404761D01*
X162217319Y-85404761D02*
X162217319Y-85642856D01*
X162217319Y-85642856D02*
X162169700Y-85738094D01*
X162169700Y-85738094D02*
X162122080Y-85785713D01*
D12*
X141916666Y-55216510D02*
X141892857Y-55240320D01*
X141892857Y-55240320D02*
X141821428Y-55264129D01*
X141821428Y-55264129D02*
X141773809Y-55264129D01*
X141773809Y-55264129D02*
X141702381Y-55240320D01*
X141702381Y-55240320D02*
X141654762Y-55192700D01*
X141654762Y-55192700D02*
X141630952Y-55145081D01*
X141630952Y-55145081D02*
X141607143Y-55049843D01*
X141607143Y-55049843D02*
X141607143Y-54978415D01*
X141607143Y-54978415D02*
X141630952Y-54883177D01*
X141630952Y-54883177D02*
X141654762Y-54835558D01*
X141654762Y-54835558D02*
X141702381Y-54787939D01*
X141702381Y-54787939D02*
X141773809Y-54764129D01*
X141773809Y-54764129D02*
X141821428Y-54764129D01*
X141821428Y-54764129D02*
X141892857Y-54787939D01*
X141892857Y-54787939D02*
X141916666Y-54811748D01*
X142107143Y-54811748D02*
X142130952Y-54787939D01*
X142130952Y-54787939D02*
X142178571Y-54764129D01*
X142178571Y-54764129D02*
X142297619Y-54764129D01*
X142297619Y-54764129D02*
X142345238Y-54787939D01*
X142345238Y-54787939D02*
X142369047Y-54811748D01*
X142369047Y-54811748D02*
X142392857Y-54859367D01*
X142392857Y-54859367D02*
X142392857Y-54906986D01*
X142392857Y-54906986D02*
X142369047Y-54978415D01*
X142369047Y-54978415D02*
X142083333Y-55264129D01*
X142083333Y-55264129D02*
X142392857Y-55264129D01*
D13*
X162122080Y-73166666D02*
X162169700Y-73214285D01*
X162169700Y-73214285D02*
X162217319Y-73357142D01*
X162217319Y-73357142D02*
X162217319Y-73452380D01*
X162217319Y-73452380D02*
X162169700Y-73595237D01*
X162169700Y-73595237D02*
X162074461Y-73690475D01*
X162074461Y-73690475D02*
X161979223Y-73738094D01*
X161979223Y-73738094D02*
X161788747Y-73785713D01*
X161788747Y-73785713D02*
X161645890Y-73785713D01*
X161645890Y-73785713D02*
X161455414Y-73738094D01*
X161455414Y-73738094D02*
X161360176Y-73690475D01*
X161360176Y-73690475D02*
X161264938Y-73595237D01*
X161264938Y-73595237D02*
X161217319Y-73452380D01*
X161217319Y-73452380D02*
X161217319Y-73357142D01*
X161217319Y-73357142D02*
X161264938Y-73214285D01*
X161264938Y-73214285D02*
X161312557Y-73166666D01*
X161217319Y-72833332D02*
X161217319Y-72166666D01*
X161217319Y-72166666D02*
X162217319Y-72595237D01*
D12*
X158905833Y-89496629D02*
X158905833Y-89853772D01*
X158905833Y-89853772D02*
X158882024Y-89925200D01*
X158882024Y-89925200D02*
X158834405Y-89972820D01*
X158834405Y-89972820D02*
X158762976Y-89996629D01*
X158762976Y-89996629D02*
X158715357Y-89996629D01*
X159096309Y-89496629D02*
X159405833Y-89496629D01*
X159405833Y-89496629D02*
X159239166Y-89687105D01*
X159239166Y-89687105D02*
X159310595Y-89687105D01*
X159310595Y-89687105D02*
X159358214Y-89710915D01*
X159358214Y-89710915D02*
X159382023Y-89734724D01*
X159382023Y-89734724D02*
X159405833Y-89782343D01*
X159405833Y-89782343D02*
X159405833Y-89901391D01*
X159405833Y-89901391D02*
X159382023Y-89949010D01*
X159382023Y-89949010D02*
X159358214Y-89972820D01*
X159358214Y-89972820D02*
X159310595Y-89996629D01*
X159310595Y-89996629D02*
X159167738Y-89996629D01*
X159167738Y-89996629D02*
X159120119Y-89972820D01*
X159120119Y-89972820D02*
X159096309Y-89949010D01*
D13*
X144067319Y-85688094D02*
X143067319Y-85688094D01*
X143067319Y-85688094D02*
X143067319Y-85449999D01*
X143067319Y-85449999D02*
X143114938Y-85307142D01*
X143114938Y-85307142D02*
X143210176Y-85211904D01*
X143210176Y-85211904D02*
X143305414Y-85164285D01*
X143305414Y-85164285D02*
X143495890Y-85116666D01*
X143495890Y-85116666D02*
X143638747Y-85116666D01*
X143638747Y-85116666D02*
X143829223Y-85164285D01*
X143829223Y-85164285D02*
X143924461Y-85211904D01*
X143924461Y-85211904D02*
X144019700Y-85307142D01*
X144019700Y-85307142D02*
X144067319Y-85449999D01*
X144067319Y-85449999D02*
X144067319Y-85688094D01*
X144067319Y-84164285D02*
X144067319Y-84735713D01*
X144067319Y-84449999D02*
X143067319Y-84449999D01*
X143067319Y-84449999D02*
X143210176Y-84545237D01*
X143210176Y-84545237D02*
X143305414Y-84640475D01*
X143305414Y-84640475D02*
X143353033Y-84735713D01*
D12*
X145187111Y-81255234D02*
X145187111Y-80969520D01*
X145187111Y-81112377D02*
X145687111Y-81112377D01*
X145687111Y-81112377D02*
X145615682Y-81064758D01*
X145615682Y-81064758D02*
X145568063Y-81017139D01*
X145568063Y-81017139D02*
X145544254Y-80969520D01*
D15*
%TO.C,SW1*%
X152142500Y-74000000D02*
X152142500Y-79000000D01*
X154162500Y-73380000D02*
X156362500Y-73380000D01*
X156362500Y-79620000D02*
X154162500Y-79620000D01*
X158382500Y-74000000D02*
X158382500Y-79000000D01*
X157012500Y-76500000D02*
G75*
G02*
X153512500Y-76500000I-1750000J0D01*
G01*
X153512500Y-76500000D02*
G75*
G02*
X157012500Y-76500000I1750000J0D01*
G01*
D16*
%TO.C,J2*%
X194700000Y-43200000D02*
X202300000Y-43200000D01*
X194700000Y-53800000D02*
X194700000Y-43200000D01*
D10*
X199200000Y-54300000D02*
X199200000Y-54300000D01*
X199200000Y-54400000D02*
X199200000Y-54400000D01*
D16*
X202300000Y-43200000D02*
X202300000Y-53800000D01*
X202300000Y-53800000D02*
X194700000Y-53800000D01*
D10*
X199200000Y-54300000D02*
G75*
G02*
X199200000Y-54400000I0J-50000D01*
G01*
X199200000Y-54400000D02*
G75*
G02*
X199200000Y-54300000I0J50000D01*
G01*
D15*
%TO.C,C6*%
X149238748Y-68765000D02*
X149761252Y-68765000D01*
X149238748Y-70235000D02*
X149761252Y-70235000D01*
%TO.C,PS2*%
X170140000Y-53242500D02*
X183704000Y-53242500D01*
X170140000Y-90262500D02*
X170140000Y-53242500D01*
X184296000Y-53242500D02*
X192860000Y-53242500D01*
X192860000Y-53242500D02*
X192860000Y-90262500D01*
X192860000Y-90262500D02*
X170140000Y-90262500D01*
X184000000Y-53242500D02*
X183560000Y-52632500D01*
X184440000Y-52632500D01*
X184000000Y-53242500D01*
G36*
X184000000Y-53242500D02*
G01*
X183560000Y-52632500D01*
X184440000Y-52632500D01*
X184000000Y-53242500D01*
G37*
%TO.C,R6*%
X143535436Y-89265000D02*
X143989564Y-89265000D01*
X143535436Y-90735000D02*
X143989564Y-90735000D01*
%TO.C,C9*%
X148473257Y-84341767D02*
X148995761Y-84341767D01*
X148473257Y-85811767D02*
X148995761Y-85811767D01*
%TO.C,C4*%
X152501248Y-81765000D02*
X153023752Y-81765000D01*
X152501248Y-83235000D02*
X153023752Y-83235000D01*
D13*
%TO.C,RV1*%
X171250000Y-52250000D02*
X171250000Y-48350000D01*
X183250000Y-48350000D02*
X171250000Y-48350000D01*
X183250000Y-52250000D02*
X171250000Y-52250000D01*
X183250000Y-52250000D02*
X183250000Y-48350000D01*
D15*
%TO.C,U2*%
X187400000Y-44350000D02*
X187400000Y-49650000D01*
X187400000Y-49650000D02*
X192600000Y-49650000D01*
X192600000Y-44350000D02*
X187400000Y-44350000D01*
X192600000Y-46000000D02*
X192600000Y-44350000D01*
X192600000Y-49650000D02*
X192600000Y-48000000D01*
X192660000Y-41860000D02*
X187340000Y-41860000D01*
X187340000Y-52140000D01*
X192660000Y-52140000D01*
X192660000Y-41860000D01*
X192600000Y-48000000D02*
G75*
G02*
X192600000Y-46000000I0J1000000D01*
G01*
%TO.C,U3*%
X160352500Y-77375000D02*
X162172500Y-77375000D01*
X160352500Y-77425000D02*
X160352500Y-77375000D01*
X160352500Y-79325000D02*
X160352500Y-78545000D01*
X160352500Y-80495000D02*
X160352500Y-80445000D01*
X162172500Y-77375000D02*
X162172500Y-77425000D01*
X162172500Y-80445000D02*
X162172500Y-80495000D01*
X162172500Y-80495000D02*
X160352500Y-80495000D01*
X162952500Y-80775000D02*
X162472500Y-80775000D01*
X162712500Y-80445000D01*
X162952500Y-80775000D01*
G36*
X162952500Y-80775000D02*
G01*
X162472500Y-80775000D01*
X162712500Y-80445000D01*
X162952500Y-80775000D01*
G37*
%TO.C,C8*%
X157023752Y-81765000D02*
X156501248Y-81765000D01*
X157023752Y-83235000D02*
X156501248Y-83235000D01*
%TO.C,R2*%
X144272936Y-68765000D02*
X144727064Y-68765000D01*
X144272936Y-70235000D02*
X144727064Y-70235000D01*
%TO.C,R1*%
X148989564Y-81765000D02*
X148535436Y-81765000D01*
X148989564Y-83235000D02*
X148535436Y-83235000D01*
%TO.C,Q2*%
X193350000Y-85640000D02*
X203570000Y-85640000D01*
X193350000Y-90260000D02*
X193350000Y-85640000D01*
X196610000Y-90260000D02*
X196610000Y-88880000D01*
X200310000Y-90260000D02*
X200310000Y-88880000D01*
X203570000Y-85640000D02*
X203570000Y-90260000D01*
X203570000Y-88880000D02*
X193350000Y-88880000D01*
X203570000Y-90260000D02*
X193350000Y-90260000D01*
%TO.C,R4*%
X184772936Y-42265000D02*
X185227064Y-42265000D01*
X184772936Y-43735000D02*
X185227064Y-43735000D01*
%TO.C,R3*%
X156989564Y-84265000D02*
X156535436Y-84265000D01*
X156989564Y-85735000D02*
X156535436Y-85735000D01*
%TO.C,F1*%
X193590000Y-56890000D02*
X193590000Y-79610000D01*
X193590000Y-56890000D02*
X196750000Y-56890000D01*
X193590000Y-79610000D02*
X196750000Y-79610000D01*
X200250000Y-56890000D02*
X203410000Y-56890000D01*
X200250000Y-79610000D02*
X203410000Y-79610000D01*
X203410000Y-56890000D02*
X203410000Y-79610000D01*
%TO.C,U1*%
X144480000Y-41270000D02*
X144480000Y-47430000D01*
X144480000Y-41270000D02*
X162720000Y-41270000D01*
X144480000Y-66230000D02*
X144480000Y-67010000D01*
X144480000Y-67010000D02*
X145480000Y-67010000D01*
X162720000Y-41270000D02*
X162720000Y-47685000D01*
X162720000Y-66230000D02*
X162720000Y-67010000D01*
X162720000Y-67010000D02*
X161720000Y-67010000D01*
X144475000Y-48155000D02*
X143975000Y-48155000D01*
X144475000Y-47655000D01*
X144475000Y-48155000D01*
G36*
X144475000Y-48155000D02*
G01*
X143975000Y-48155000D01*
X144475000Y-47655000D01*
X144475000Y-48155000D01*
G37*
%TO.C,R5*%
X184765000Y-50272936D02*
X184765000Y-50727064D01*
X186235000Y-50272936D02*
X186235000Y-50727064D01*
%TO.C,C1*%
X141265000Y-50276248D02*
X141265000Y-50798752D01*
X142735000Y-50276248D02*
X142735000Y-50798752D01*
%TO.C,SW2*%
X143392500Y-74000000D02*
X143392500Y-79000000D01*
X145412500Y-73380000D02*
X147612500Y-73380000D01*
X147612500Y-79620000D02*
X145412500Y-79620000D01*
X149632500Y-74000000D02*
X149632500Y-79000000D01*
X148262500Y-76500000D02*
G75*
G02*
X144762500Y-76500000I-1750000J0D01*
G01*
X144762500Y-76500000D02*
G75*
G02*
X148262500Y-76500000I1750000J0D01*
G01*
%TO.C,J1*%
X147117500Y-87120000D02*
X147117500Y-89880000D01*
X149767500Y-87120000D02*
X147117500Y-87120000D01*
X149767500Y-87120000D02*
X149767500Y-89880000D01*
X149767500Y-89880000D02*
X147117500Y-89880000D01*
X151037500Y-87120000D02*
X152417500Y-87120000D01*
X152417500Y-87120000D02*
X152417500Y-88500000D01*
%TO.C,C5*%
X160052500Y-83000000D02*
X160052500Y-89940000D01*
X160052500Y-89940000D02*
X163472500Y-89940000D01*
X163472500Y-89940000D02*
X163472500Y-83000000D01*
%TO.C,C2*%
X141265000Y-54738748D02*
X141265000Y-55261252D01*
X142735000Y-54738748D02*
X142735000Y-55261252D01*
%TO.C,C7*%
X160392500Y-70380000D02*
X160729500Y-70380000D01*
X160392500Y-75620000D02*
X160392500Y-70380000D01*
X160729500Y-75620000D02*
X160392500Y-75620000D01*
X162795500Y-70380000D02*
X163132500Y-70380000D01*
X163132500Y-70380000D02*
X163132500Y-75620000D01*
X163132500Y-75620000D02*
X162795500Y-75620000D01*
%TO.C,J3*%
X153882500Y-87120000D02*
X153882500Y-89880000D01*
X156532500Y-87120000D02*
X153882500Y-87120000D01*
X156532500Y-87120000D02*
X156532500Y-89880000D01*
X156532500Y-89880000D02*
X153882500Y-89880000D01*
X157802500Y-87120000D02*
X159182500Y-87120000D01*
X159182500Y-87120000D02*
X159182500Y-88500000D01*
%TO.C,D1*%
X140862500Y-81450000D02*
X140862500Y-88000000D01*
X140862500Y-88000000D02*
X141312500Y-88450000D01*
X141312500Y-88450000D02*
X146362500Y-88450000D01*
X142712500Y-82250000D02*
X144512500Y-82250000D01*
X142712500Y-87650000D02*
X144512500Y-87650000D01*
X146362500Y-81450000D02*
X140862500Y-81450000D01*
X146362500Y-81450000D02*
X146362500Y-88450000D01*
%TD*%
M02*
