%TF.GenerationSoftware,KiCad,Pcbnew,9.0.7*%
%TF.CreationDate,2026-03-15T14:15:07+02:00*%
%TF.ProjectId,esp32_light_switch,65737033-325f-46c6-9967-68745f737769,rev?*%
%TF.SameCoordinates,Original*%
%TF.FileFunction,Copper,L2,Bot*%
%TF.FilePolarity,Positive*%
%FSLAX46Y46*%
G04 Gerber Fmt 4.6, Leading zero omitted, Abs format (unit mm)*
G04 Created by KiCad (PCBNEW 9.0.7) date 2026-03-15 14:15:07*
%MOMM*%
%LPD*%
G01*
G04 APERTURE LIST*
G04 Aperture macros list*
%AMRoundRect*
0 Rectangle with rounded corners*
0 $1 Rounding radius*
0 $2 $3 $4 $5 $6 $7 $8 $9 X,Y pos of 4 corners*
0 Add a 4 corners polygon primitive as box body*
4,1,4,$2,$3,$4,$5,$6,$7,$8,$9,$2,$3,0*
0 Add four circle primitives for the rounded corners*
1,1,$1+$1,$2,$3*
1,1,$1+$1,$4,$5*
1,1,$1+$1,$6,$7*
1,1,$1+$1,$8,$9*
0 Add four rect primitives between the rounded corners*
20,1,$1+$1,$2,$3,$4,$5,0*
20,1,$1+$1,$4,$5,$6,$7,0*
20,1,$1+$1,$6,$7,$8,$9,0*
20,1,$1+$1,$8,$9,$2,$3,0*%
G04 Aperture macros list end*
%TA.AperFunction,ComponentPad*%
%ADD10C,1.700000*%
%TD*%
%TA.AperFunction,ComponentPad*%
%ADD11R,2.100000X2.100000*%
%TD*%
%TA.AperFunction,ComponentPad*%
%ADD12C,2.100000*%
%TD*%
%TA.AperFunction,ComponentPad*%
%ADD13RoundRect,0.250000X-0.750000X0.600000X-0.750000X-0.600000X0.750000X-0.600000X0.750000X0.600000X0*%
%TD*%
%TA.AperFunction,ComponentPad*%
%ADD14O,2.000000X1.700000*%
%TD*%
%TA.AperFunction,ComponentPad*%
%ADD15C,1.800000*%
%TD*%
%TA.AperFunction,ComponentPad*%
%ADD16R,1.905000X2.000000*%
%TD*%
%TA.AperFunction,ComponentPad*%
%ADD17O,1.905000X2.000000*%
%TD*%
%TA.AperFunction,ComponentPad*%
%ADD18C,3.000000*%
%TD*%
%TA.AperFunction,HeatsinkPad*%
%ADD19C,0.800000*%
%TD*%
%TA.AperFunction,ComponentPad*%
%ADD20R,1.700000X1.700000*%
%TD*%
%TA.AperFunction,ComponentPad*%
%ADD21C,1.600000*%
%TD*%
%TA.AperFunction,ViaPad*%
%ADD22C,0.800000*%
%TD*%
%TA.AperFunction,ViaPad*%
%ADD23C,2.200000*%
%TD*%
%TA.AperFunction,Conductor*%
%ADD24C,0.200000*%
%TD*%
%TA.AperFunction,Conductor*%
%ADD25C,1.750000*%
%TD*%
%TA.AperFunction,Conductor*%
%ADD26C,0.500000*%
%TD*%
G04 APERTURE END LIST*
D10*
%TO.P,SW1,1,A*%
%TO.N,GND*%
X157512500Y-73250000D03*
X157512500Y-79750000D03*
%TO.P,SW1,2,B*%
%TO.N,EN*%
X153012500Y-73250000D03*
X153012500Y-79750000D03*
%TD*%
D11*
%TO.P,J2,1,Pin_1*%
%TO.N,220V_OUT*%
X199200000Y-50700000D03*
D12*
%TO.P,J2,2,Pin_2*%
%TO.N,220V_IN_UNSAFE*%
X199200000Y-45700000D03*
%TD*%
D13*
%TO.P,PS2,1,AC/L*%
%TO.N,220V_IN*%
X184000000Y-57212500D03*
D14*
%TO.P,PS2,2,AC/N*%
%TO.N,220V_OUT*%
X179000000Y-57212500D03*
%TO.P,PS2,3,-Vout*%
%TO.N,GND*%
X189000000Y-86292500D03*
%TO.P,PS2,4,+Vout*%
%TO.N,5V*%
X174000000Y-86292500D03*
%TD*%
D15*
%TO.P,RV1,1*%
%TO.N,220V_IN*%
X181000000Y-51000000D03*
%TO.P,RV1,2*%
%TO.N,220V_OUT*%
X173500000Y-49600000D03*
%TD*%
D16*
%TO.P,Q2,1,A1*%
%TO.N,220V_OUT*%
X201000000Y-87000000D03*
D17*
%TO.P,Q2,2,A2*%
%TO.N,220V_IN*%
X198460000Y-87000000D03*
%TO.P,Q2,3,G*%
%TO.N,LIGHT_TRIAC_GATE*%
X195920000Y-87000000D03*
%TD*%
D18*
%TO.P,F1,1*%
%TO.N,220V_IN_UNSAFE*%
X198500000Y-57000000D03*
%TO.P,F1,2*%
%TO.N,220V_IN*%
X198500000Y-79500000D03*
%TD*%
D19*
%TO.P,U1,39,GND*%
%TO.N,GND*%
X150700000Y-55900000D03*
X150700000Y-57300000D03*
X151400000Y-55200000D03*
X151400000Y-56600000D03*
X151400000Y-58000000D03*
X152075000Y-55900000D03*
X152075000Y-57300000D03*
X152800000Y-55200000D03*
X152800000Y-56600000D03*
X152800000Y-58000000D03*
X153500000Y-55900000D03*
X153500000Y-57300000D03*
%TD*%
D10*
%TO.P,SW2,1,A*%
%TO.N,GND*%
X148762500Y-73250000D03*
X148762500Y-79750000D03*
%TO.P,SW2,2,B*%
%TO.N,BOOT*%
X144262500Y-73250000D03*
X144262500Y-79750000D03*
%TD*%
D20*
%TO.P,J1,1,Pin_1*%
%TO.N,USART0_TX*%
X151037500Y-88500000D03*
D10*
%TO.P,J1,2,Pin_2*%
%TO.N,USART0_RX*%
X148497500Y-88500000D03*
%TD*%
D21*
%TO.P,C7,1*%
%TO.N,Net-(U3-BP)*%
X161762500Y-75500000D03*
%TO.P,C7,2*%
%TO.N,GND*%
X161762500Y-70500000D03*
%TD*%
D20*
%TO.P,J3,1,Pin_1*%
%TO.N,Net-(J3-Pin_1)*%
X157802500Y-88500000D03*
D10*
%TO.P,J3,2,Pin_2*%
%TO.N,TOGGLE_SW*%
X155262500Y-88500000D03*
%TD*%
D22*
%TO.N,GND*%
X142000000Y-85500000D03*
X163000000Y-90500000D03*
X189901661Y-42400000D03*
X148500000Y-65000000D03*
X149841980Y-83800000D03*
X152000000Y-69500000D03*
X143000000Y-48500000D03*
X152500000Y-81500000D03*
X159000000Y-83000000D03*
X160500000Y-49500000D03*
X146500000Y-49000000D03*
X143000000Y-57500000D03*
X162000000Y-77000000D03*
%TO.N,3V3*%
X157500000Y-86500000D03*
X154000000Y-86000000D03*
%TO.N,EN*%
X147501225Y-71001225D03*
X147000000Y-69500000D03*
%TO.N,BOOT*%
X159000000Y-68000000D03*
X162000000Y-68000000D03*
%TO.N,LIGHT_CTRL*%
X184000000Y-45500000D03*
X172500000Y-56500000D03*
%TO.N,TOGGLE_SW*%
X154584269Y-83921503D03*
X153000000Y-86500000D03*
X160731404Y-68700000D03*
X159300000Y-69000000D03*
%TO.N,USART0_RX*%
X150337500Y-86500000D03*
X150290090Y-79290090D03*
X152126225Y-71373775D03*
X150500000Y-72000000D03*
X157550813Y-69038138D03*
X159200000Y-63500000D03*
X159500000Y-52500000D03*
X159200000Y-55000000D03*
%TO.N,USART0_TX*%
X151479841Y-85075018D03*
X158500000Y-64500000D03*
X151529289Y-72756739D03*
X154000000Y-70800000D03*
X158500000Y-54000000D03*
X159000000Y-51000000D03*
X151732362Y-78476884D03*
X156500000Y-68700000D03*
D23*
%TO.N,220V_OUT*%
X184298714Y-62701286D03*
D22*
%TO.N,LIGHT_TRIAC_GATE*%
X191500000Y-69000000D03*
X191553919Y-63946081D03*
%TD*%
D24*
%TO.N,3V3*%
X157000000Y-86000000D02*
X157500000Y-86500000D01*
X154000000Y-86000000D02*
X157000000Y-86000000D01*
%TO.N,EN*%
X147501225Y-70001225D02*
X147000000Y-69500000D01*
X147501225Y-71001225D02*
X147501225Y-70001225D01*
%TO.N,BOOT*%
X159000000Y-68000000D02*
X162000000Y-68000000D01*
%TO.N,LIGHT_CTRL*%
X174500000Y-55000000D02*
X174000000Y-55000000D01*
X184000000Y-45500000D02*
X174500000Y-55000000D01*
X174000000Y-55000000D02*
X172500000Y-56500000D01*
%TO.N,TOGGLE_SW*%
X160431404Y-69000000D02*
X160731404Y-68700000D01*
X153000000Y-85505772D02*
X154584269Y-83921503D01*
X159300000Y-69000000D02*
X160431404Y-69000000D01*
X153000000Y-86500000D02*
X153000000Y-85505772D01*
%TO.N,USART0_RX*%
X150601000Y-79601000D02*
X150290090Y-79290090D01*
X159195682Y-64204318D02*
X159201000Y-64209636D01*
X159500000Y-52500000D02*
X159500000Y-54700000D01*
X158000000Y-66000000D02*
X158000000Y-68588951D01*
X159201000Y-64790364D02*
X159000000Y-64991364D01*
X150337500Y-86500000D02*
X150601000Y-86236500D01*
X159200000Y-63500000D02*
X159200000Y-64200000D01*
X159000000Y-65000000D02*
X158000000Y-66000000D01*
X150601000Y-86236500D02*
X150601000Y-79601000D01*
X159201000Y-64209636D02*
X159201000Y-64790364D01*
X159500000Y-54700000D02*
X159200000Y-55000000D01*
X159000000Y-64991364D02*
X159000000Y-65000000D01*
X158000000Y-68588951D02*
X157550813Y-69038138D01*
X159200000Y-64200000D02*
X159195682Y-64204318D01*
X150500000Y-72000000D02*
X151500000Y-72000000D01*
X151500000Y-72000000D02*
X152126225Y-71373775D01*
%TO.N,USART0_TX*%
X157599000Y-65401000D02*
X157599000Y-68000000D01*
X154000000Y-70900000D02*
X154000000Y-70800000D01*
X152185028Y-72101000D02*
X152748943Y-72101000D01*
X152748943Y-72101000D02*
X152799000Y-72101000D01*
X158500000Y-64500000D02*
X157599000Y-65401000D01*
X156500000Y-68700000D02*
X156899000Y-68700000D01*
X156899000Y-68700000D02*
X157599000Y-68000000D01*
X151732362Y-78476884D02*
X151732362Y-84822497D01*
X151600000Y-72686028D02*
X152185028Y-72101000D01*
X159000000Y-51000000D02*
X158500000Y-51500000D01*
X152799000Y-72101000D02*
X154000000Y-70900000D01*
X151732362Y-84822497D02*
X151479841Y-85075018D01*
X158500000Y-51500000D02*
X158500000Y-54000000D01*
D25*
%TO.N,220V_OUT*%
X184298714Y-62701286D02*
X196300000Y-50700000D01*
X196300000Y-50700000D02*
X199200000Y-50700000D01*
D26*
%TO.N,LIGHT_TRIAC_GATE*%
X191553919Y-63946081D02*
X191553919Y-68946081D01*
X191553919Y-68946081D02*
X191500000Y-69000000D01*
%TD*%
%TA.AperFunction,Conductor*%
%TO.N,GND*%
G36*
X203442539Y-42020185D02*
G01*
X203488294Y-42072989D01*
X203499500Y-42124500D01*
X203499500Y-90875500D01*
X203479815Y-90942539D01*
X203427011Y-90988294D01*
X203375500Y-90999500D01*
X141124500Y-90999500D01*
X141057461Y-90979815D01*
X141011706Y-90927011D01*
X141000500Y-90875500D01*
X141000500Y-88393713D01*
X147147000Y-88393713D01*
X147147000Y-88606286D01*
X147180253Y-88816239D01*
X147245944Y-89018414D01*
X147342451Y-89207820D01*
X147467390Y-89379786D01*
X147617713Y-89530109D01*
X147789679Y-89655048D01*
X147789681Y-89655049D01*
X147789684Y-89655051D01*
X147979088Y-89751557D01*
X148181257Y-89817246D01*
X148391213Y-89850500D01*
X148391214Y-89850500D01*
X148603786Y-89850500D01*
X148603787Y-89850500D01*
X148813743Y-89817246D01*
X149015912Y-89751557D01*
X149205316Y-89655051D01*
X149377292Y-89530104D01*
X149490829Y-89416566D01*
X149552148Y-89383084D01*
X149621840Y-89388068D01*
X149677774Y-89429939D01*
X149694689Y-89460917D01*
X149743702Y-89592328D01*
X149743706Y-89592335D01*
X149829952Y-89707544D01*
X149829955Y-89707547D01*
X149945164Y-89793793D01*
X149945171Y-89793797D01*
X150080017Y-89844091D01*
X150080016Y-89844091D01*
X150086944Y-89844835D01*
X150139627Y-89850500D01*
X151935372Y-89850499D01*
X151994983Y-89844091D01*
X152129831Y-89793796D01*
X152245046Y-89707546D01*
X152331296Y-89592331D01*
X152381591Y-89457483D01*
X152388000Y-89397873D01*
X152387999Y-87602128D01*
X152381591Y-87542517D01*
X152380310Y-87539083D01*
X152330619Y-87405853D01*
X152325635Y-87336161D01*
X152359120Y-87274838D01*
X152420444Y-87241354D01*
X152490135Y-87246338D01*
X152515693Y-87259419D01*
X152573444Y-87298008D01*
X152573459Y-87298016D01*
X152696363Y-87348923D01*
X152737334Y-87365894D01*
X152737336Y-87365894D01*
X152737341Y-87365896D01*
X152911304Y-87400499D01*
X152911307Y-87400500D01*
X152911309Y-87400500D01*
X153088693Y-87400500D01*
X153088694Y-87400499D01*
X153146682Y-87388964D01*
X153262658Y-87365896D01*
X153262661Y-87365894D01*
X153262666Y-87365894D01*
X153426547Y-87298013D01*
X153574035Y-87199464D01*
X153699464Y-87074035D01*
X153780636Y-86952552D01*
X153834247Y-86907749D01*
X153903572Y-86899042D01*
X153907930Y-86899828D01*
X153911308Y-86900500D01*
X153911309Y-86900500D01*
X154088693Y-86900500D01*
X154088694Y-86900499D01*
X154146682Y-86888964D01*
X154262658Y-86865896D01*
X154262661Y-86865894D01*
X154262666Y-86865894D01*
X154426547Y-86798013D01*
X154574035Y-86699464D01*
X154636681Y-86636817D01*
X154698002Y-86603334D01*
X154724361Y-86600500D01*
X156500085Y-86600500D01*
X156567124Y-86620185D01*
X156612879Y-86672989D01*
X156621702Y-86700309D01*
X156634103Y-86762658D01*
X156634106Y-86762667D01*
X156701983Y-86926540D01*
X156701990Y-86926553D01*
X156766133Y-87022549D01*
X156787011Y-87089227D01*
X156768526Y-87156607D01*
X156716548Y-87203297D01*
X156711795Y-87205315D01*
X156710164Y-87206206D01*
X156594955Y-87292452D01*
X156594952Y-87292455D01*
X156508706Y-87407664D01*
X156508703Y-87407669D01*
X156459689Y-87539083D01*
X156417817Y-87595016D01*
X156352353Y-87619433D01*
X156284080Y-87604581D01*
X156255826Y-87583430D01*
X156142286Y-87469890D01*
X155970320Y-87344951D01*
X155780914Y-87248444D01*
X155780913Y-87248443D01*
X155780912Y-87248443D01*
X155578743Y-87182754D01*
X155578741Y-87182753D01*
X155578740Y-87182753D01*
X155417457Y-87157208D01*
X155368787Y-87149500D01*
X155156213Y-87149500D01*
X155107542Y-87157208D01*
X154946260Y-87182753D01*
X154869943Y-87207550D01*
X154750567Y-87246338D01*
X154744085Y-87248444D01*
X154554679Y-87344951D01*
X154382713Y-87469890D01*
X154232390Y-87620213D01*
X154107451Y-87792179D01*
X154010944Y-87981585D01*
X153945253Y-88183760D01*
X153912000Y-88393713D01*
X153912000Y-88606286D01*
X153945253Y-88816239D01*
X154010944Y-89018414D01*
X154107451Y-89207820D01*
X154232390Y-89379786D01*
X154382713Y-89530109D01*
X154554679Y-89655048D01*
X154554681Y-89655049D01*
X154554684Y-89655051D01*
X154744088Y-89751557D01*
X154946257Y-89817246D01*
X155156213Y-89850500D01*
X155156214Y-89850500D01*
X155368786Y-89850500D01*
X155368787Y-89850500D01*
X155578743Y-89817246D01*
X155780912Y-89751557D01*
X155970316Y-89655051D01*
X156142292Y-89530104D01*
X156255829Y-89416566D01*
X156317148Y-89383084D01*
X156386840Y-89388068D01*
X156442774Y-89429939D01*
X156459689Y-89460917D01*
X156508702Y-89592328D01*
X156508706Y-89592335D01*
X156594952Y-89707544D01*
X156594955Y-89707547D01*
X156710164Y-89793793D01*
X156710171Y-89793797D01*
X156845017Y-89844091D01*
X156845016Y-89844091D01*
X156851944Y-89844835D01*
X156904627Y-89850500D01*
X158700372Y-89850499D01*
X158759983Y-89844091D01*
X158894831Y-89793796D01*
X159010046Y-89707546D01*
X159096296Y-89592331D01*
X159146591Y-89457483D01*
X159153000Y-89397873D01*
X159152999Y-87602128D01*
X159146591Y-87542517D01*
X159145310Y-87539083D01*
X159096297Y-87407671D01*
X159096293Y-87407664D01*
X159010047Y-87292455D01*
X159010044Y-87292452D01*
X158894835Y-87206206D01*
X158894828Y-87206202D01*
X158759982Y-87155908D01*
X158759983Y-87155908D01*
X158700383Y-87149501D01*
X158700381Y-87149500D01*
X158700373Y-87149500D01*
X158700365Y-87149500D01*
X158381029Y-87149500D01*
X158313990Y-87129815D01*
X158268235Y-87077011D01*
X158258291Y-87007853D01*
X158277927Y-86956610D01*
X158298006Y-86926558D01*
X158298009Y-86926553D01*
X158298013Y-86926547D01*
X158365894Y-86762666D01*
X158400500Y-86588691D01*
X158400500Y-86411309D01*
X158400500Y-86411306D01*
X158400499Y-86411304D01*
X158365896Y-86237341D01*
X158365894Y-86237336D01*
X158365894Y-86237334D01*
X158344719Y-86186213D01*
X172499500Y-86186213D01*
X172499500Y-86398786D01*
X172532194Y-86605211D01*
X172532754Y-86608743D01*
X172582767Y-86762667D01*
X172598444Y-86810914D01*
X172694951Y-87000320D01*
X172819890Y-87172286D01*
X172970213Y-87322609D01*
X173142179Y-87447548D01*
X173142181Y-87447549D01*
X173142184Y-87447551D01*
X173331588Y-87544057D01*
X173533757Y-87609746D01*
X173743713Y-87643000D01*
X173743714Y-87643000D01*
X174256286Y-87643000D01*
X174256287Y-87643000D01*
X174466243Y-87609746D01*
X174668412Y-87544057D01*
X174857816Y-87447551D01*
X174879789Y-87431586D01*
X175029786Y-87322609D01*
X175029788Y-87322606D01*
X175029792Y-87322604D01*
X175180104Y-87172292D01*
X175180106Y-87172288D01*
X175180109Y-87172286D01*
X175305048Y-87000320D01*
X175305047Y-87000320D01*
X175305051Y-87000316D01*
X175401557Y-86810912D01*
X175467246Y-86608743D01*
X175498518Y-86411304D01*
X175500500Y-86398787D01*
X175500500Y-86186212D01*
X175486681Y-86098961D01*
X175477738Y-86042500D01*
X187522769Y-86042500D01*
X188566988Y-86042500D01*
X188534075Y-86099507D01*
X188500000Y-86226674D01*
X188500000Y-86358326D01*
X188534075Y-86485493D01*
X188566988Y-86542500D01*
X187522769Y-86542500D01*
X187533242Y-86608626D01*
X187533242Y-86608629D01*
X187598904Y-86810717D01*
X187695379Y-87000057D01*
X187820272Y-87171959D01*
X187820276Y-87171964D01*
X187970535Y-87322223D01*
X187970540Y-87322227D01*
X188142442Y-87447120D01*
X188331782Y-87543595D01*
X188533870Y-87609257D01*
X188743754Y-87642500D01*
X188750000Y-87642500D01*
X188750000Y-86725512D01*
X188807007Y-86758425D01*
X188934174Y-86792500D01*
X189065826Y-86792500D01*
X189192993Y-86758425D01*
X189250000Y-86725512D01*
X189250000Y-87642500D01*
X189256246Y-87642500D01*
X189466127Y-87609257D01*
X189466130Y-87609257D01*
X189668217Y-87543595D01*
X189857557Y-87447120D01*
X190029459Y-87322227D01*
X190029464Y-87322223D01*
X190179723Y-87171964D01*
X190179727Y-87171959D01*
X190304620Y-87000057D01*
X190375088Y-86861757D01*
X194767000Y-86861757D01*
X194767000Y-87138243D01*
X194768783Y-87149500D01*
X194795391Y-87317496D01*
X194795391Y-87317499D01*
X194851471Y-87490095D01*
X194908552Y-87602123D01*
X194933866Y-87651804D01*
X195040541Y-87798629D01*
X195168871Y-87926959D01*
X195315696Y-88033634D01*
X195387051Y-88069991D01*
X195477404Y-88116028D01*
X195650001Y-88172108D01*
X195650002Y-88172108D01*
X195650005Y-88172109D01*
X195829257Y-88200500D01*
X195829258Y-88200500D01*
X196010742Y-88200500D01*
X196010743Y-88200500D01*
X196189995Y-88172109D01*
X196189998Y-88172108D01*
X196189999Y-88172108D01*
X196362595Y-88116028D01*
X196362595Y-88116027D01*
X196362598Y-88116027D01*
X196524304Y-88033634D01*
X196671129Y-87926959D01*
X196799459Y-87798629D01*
X196906134Y-87651804D01*
X196988527Y-87490098D01*
X197002352Y-87447551D01*
X197019495Y-87394788D01*
X197058932Y-87337112D01*
X197123290Y-87309913D01*
X197192136Y-87321827D01*
X197243613Y-87369071D01*
X197255357Y-87394787D01*
X197298797Y-87528482D01*
X197357147Y-87643000D01*
X197388338Y-87704215D01*
X197504265Y-87863775D01*
X197643725Y-88003235D01*
X197803285Y-88119162D01*
X197908485Y-88172764D01*
X197979017Y-88208702D01*
X198072801Y-88239174D01*
X198166588Y-88269647D01*
X198256807Y-88283936D01*
X198361382Y-88300500D01*
X198361387Y-88300500D01*
X198558618Y-88300500D01*
X198653052Y-88285542D01*
X198753412Y-88269647D01*
X198940985Y-88208701D01*
X199116715Y-88119162D01*
X199276275Y-88003235D01*
X199415735Y-87863775D01*
X199522683Y-87716572D01*
X199578011Y-87673908D01*
X199647625Y-87667929D01*
X199709420Y-87700534D01*
X199743777Y-87761373D01*
X199747000Y-87789459D01*
X199747000Y-88044856D01*
X199747002Y-88044882D01*
X199749913Y-88069987D01*
X199749915Y-88069991D01*
X199795293Y-88172764D01*
X199795294Y-88172765D01*
X199874735Y-88252206D01*
X199977509Y-88297585D01*
X200002635Y-88300500D01*
X201997364Y-88300499D01*
X201997379Y-88300497D01*
X201997382Y-88300497D01*
X202022487Y-88297586D01*
X202022488Y-88297585D01*
X202022491Y-88297585D01*
X202125265Y-88252206D01*
X202204706Y-88172765D01*
X202250085Y-88069991D01*
X202253000Y-88044865D01*
X202252999Y-85955136D01*
X202251350Y-85940914D01*
X202250086Y-85930012D01*
X202250085Y-85930010D01*
X202250085Y-85930009D01*
X202204706Y-85827235D01*
X202125265Y-85747794D01*
X202078853Y-85727301D01*
X202022492Y-85702415D01*
X201997365Y-85699500D01*
X200002643Y-85699500D01*
X200002617Y-85699502D01*
X199977512Y-85702413D01*
X199977508Y-85702415D01*
X199874735Y-85747793D01*
X199795294Y-85827234D01*
X199749915Y-85930006D01*
X199749915Y-85930008D01*
X199747000Y-85955131D01*
X199747000Y-86210539D01*
X199727315Y-86277578D01*
X199674511Y-86323333D01*
X199605353Y-86333277D01*
X199541797Y-86304252D01*
X199522682Y-86283425D01*
X199489196Y-86237336D01*
X199415735Y-86136225D01*
X199276275Y-85996765D01*
X199116715Y-85880838D01*
X199012801Y-85827891D01*
X198940982Y-85791297D01*
X198753413Y-85730353D01*
X198558618Y-85699500D01*
X198558613Y-85699500D01*
X198361387Y-85699500D01*
X198361382Y-85699500D01*
X198166586Y-85730353D01*
X197979017Y-85791297D01*
X197803284Y-85880838D01*
X197643722Y-85996767D01*
X197504267Y-86136222D01*
X197388338Y-86295784D01*
X197298798Y-86471516D01*
X197255357Y-86605213D01*
X197215919Y-86662888D01*
X197151561Y-86690086D01*
X197082714Y-86678171D01*
X197031238Y-86630927D01*
X197019495Y-86605211D01*
X196988529Y-86509906D01*
X196968968Y-86471515D01*
X196906134Y-86348196D01*
X196799459Y-86201371D01*
X196671129Y-86073041D01*
X196524304Y-85966366D01*
X196502227Y-85955117D01*
X196362595Y-85883971D01*
X196189998Y-85827891D01*
X196055556Y-85806597D01*
X196010743Y-85799500D01*
X195829257Y-85799500D01*
X195769506Y-85808963D01*
X195650003Y-85827891D01*
X195650000Y-85827891D01*
X195477404Y-85883971D01*
X195315695Y-85966366D01*
X195239330Y-86021849D01*
X195168871Y-86073041D01*
X195168869Y-86073043D01*
X195168868Y-86073043D01*
X195040543Y-86201368D01*
X195040543Y-86201369D01*
X195040541Y-86201371D01*
X195020617Y-86228794D01*
X194933866Y-86348195D01*
X194851471Y-86509904D01*
X194795391Y-86682500D01*
X194795391Y-86682503D01*
X194782694Y-86762667D01*
X194767000Y-86861757D01*
X190375088Y-86861757D01*
X190401095Y-86810717D01*
X190466757Y-86608629D01*
X190466757Y-86608626D01*
X190477231Y-86542500D01*
X189433012Y-86542500D01*
X189465925Y-86485493D01*
X189500000Y-86358326D01*
X189500000Y-86226674D01*
X189465925Y-86099507D01*
X189433012Y-86042500D01*
X190477231Y-86042500D01*
X190466757Y-85976373D01*
X190466757Y-85976370D01*
X190401095Y-85774282D01*
X190304620Y-85584942D01*
X190179727Y-85413040D01*
X190179723Y-85413035D01*
X190029464Y-85262776D01*
X190029459Y-85262772D01*
X189857557Y-85137879D01*
X189668217Y-85041404D01*
X189466129Y-84975742D01*
X189256246Y-84942500D01*
X189250000Y-84942500D01*
X189250000Y-85859488D01*
X189192993Y-85826575D01*
X189065826Y-85792500D01*
X188934174Y-85792500D01*
X188807007Y-85826575D01*
X188750000Y-85859488D01*
X188750000Y-84942500D01*
X188743754Y-84942500D01*
X188533872Y-84975742D01*
X188533869Y-84975742D01*
X188331782Y-85041404D01*
X188142442Y-85137879D01*
X187970540Y-85262772D01*
X187970535Y-85262776D01*
X187820276Y-85413035D01*
X187820272Y-85413040D01*
X187695379Y-85584942D01*
X187598904Y-85774282D01*
X187533242Y-85976370D01*
X187533242Y-85976373D01*
X187522769Y-86042500D01*
X175477738Y-86042500D01*
X175470494Y-85996765D01*
X175467246Y-85976257D01*
X175401557Y-85774088D01*
X175305051Y-85584684D01*
X175305049Y-85584681D01*
X175305048Y-85584679D01*
X175180109Y-85412713D01*
X175029786Y-85262390D01*
X174857820Y-85137451D01*
X174668414Y-85040944D01*
X174668413Y-85040943D01*
X174668412Y-85040943D01*
X174466243Y-84975254D01*
X174466241Y-84975253D01*
X174466240Y-84975253D01*
X174304957Y-84949708D01*
X174256287Y-84942000D01*
X173743713Y-84942000D01*
X173695042Y-84949708D01*
X173533760Y-84975253D01*
X173331585Y-85040944D01*
X173142179Y-85137451D01*
X172970213Y-85262390D01*
X172819890Y-85412713D01*
X172694951Y-85584679D01*
X172598444Y-85774085D01*
X172598443Y-85774087D01*
X172598443Y-85774088D01*
X172589849Y-85800538D01*
X172532753Y-85976260D01*
X172499500Y-86186213D01*
X158344719Y-86186213D01*
X158324013Y-86136223D01*
X158298016Y-86073458D01*
X158298009Y-86073446D01*
X158199464Y-85925965D01*
X158199461Y-85925961D01*
X158074038Y-85800538D01*
X158074034Y-85800535D01*
X157926553Y-85701990D01*
X157926540Y-85701983D01*
X157762667Y-85634106D01*
X157762658Y-85634103D01*
X157588694Y-85599500D01*
X157588691Y-85599500D01*
X157500098Y-85599500D01*
X157433059Y-85579815D01*
X157427194Y-85575804D01*
X157419308Y-85570072D01*
X157368716Y-85519480D01*
X157281904Y-85469360D01*
X157276269Y-85466106D01*
X157276267Y-85466105D01*
X157231785Y-85440423D01*
X157079057Y-85399499D01*
X156920943Y-85399499D01*
X156913347Y-85399499D01*
X156913331Y-85399500D01*
X154724361Y-85399500D01*
X154657322Y-85379815D01*
X154636684Y-85363185D01*
X154574035Y-85300536D01*
X154574034Y-85300535D01*
X154574033Y-85300534D01*
X154426553Y-85201990D01*
X154426541Y-85201984D01*
X154404585Y-85192889D01*
X154379035Y-85172299D01*
X154352772Y-85152639D01*
X154351969Y-85150487D01*
X154350182Y-85149047D01*
X154339821Y-85117915D01*
X154328356Y-85087174D01*
X154328844Y-85084930D01*
X154328119Y-85082752D01*
X154336231Y-85050969D01*
X154343208Y-85018901D01*
X154345043Y-85016448D01*
X154345400Y-85015053D01*
X154364355Y-84990651D01*
X154496687Y-84858321D01*
X154558011Y-84824837D01*
X154584368Y-84822003D01*
X154672962Y-84822003D01*
X154672963Y-84822002D01*
X154730951Y-84810467D01*
X154846927Y-84787399D01*
X154846930Y-84787397D01*
X154846935Y-84787397D01*
X155010816Y-84719516D01*
X155158304Y-84620967D01*
X155283733Y-84495538D01*
X155382282Y-84348050D01*
X155450163Y-84184169D01*
X155484769Y-84010194D01*
X155484769Y-83832812D01*
X155484769Y-83832809D01*
X155484768Y-83832807D01*
X155450165Y-83658844D01*
X155450162Y-83658835D01*
X155382285Y-83494962D01*
X155382278Y-83494949D01*
X155283733Y-83347468D01*
X155283730Y-83347464D01*
X155158307Y-83222041D01*
X155158303Y-83222038D01*
X155010822Y-83123493D01*
X155010809Y-83123486D01*
X154846936Y-83055609D01*
X154846927Y-83055606D01*
X154672963Y-83021003D01*
X154672960Y-83021003D01*
X154495578Y-83021003D01*
X154495575Y-83021003D01*
X154321610Y-83055606D01*
X154321601Y-83055609D01*
X154157728Y-83123486D01*
X154157715Y-83123493D01*
X154010234Y-83222038D01*
X154010230Y-83222041D01*
X153884807Y-83347464D01*
X153884804Y-83347468D01*
X153786259Y-83494949D01*
X153786252Y-83494962D01*
X153718375Y-83658835D01*
X153718372Y-83658844D01*
X153683769Y-83832807D01*
X153683769Y-83921405D01*
X153664084Y-83988444D01*
X153647450Y-84009086D01*
X152631283Y-85025253D01*
X152591716Y-85064819D01*
X152530393Y-85098304D01*
X152460701Y-85093318D01*
X152404768Y-85051446D01*
X152381782Y-84992250D01*
X152381530Y-84992301D01*
X152381244Y-84990863D01*
X152380633Y-84989290D01*
X152380341Y-84986332D01*
X152380341Y-84986327D01*
X152380030Y-84984766D01*
X152345736Y-84812354D01*
X152345733Y-84812346D01*
X152342301Y-84804059D01*
X152340675Y-84795886D01*
X152337888Y-84791550D01*
X152332866Y-84756630D01*
X152332863Y-84756615D01*
X152332863Y-84743439D01*
X152332862Y-84743435D01*
X152332862Y-81119842D01*
X152352547Y-81052803D01*
X152405351Y-81007048D01*
X152474509Y-80997104D01*
X152495168Y-81001908D01*
X152696257Y-81067246D01*
X152906213Y-81100500D01*
X152906214Y-81100500D01*
X153118786Y-81100500D01*
X153118787Y-81100500D01*
X153328743Y-81067246D01*
X153530912Y-81001557D01*
X153720316Y-80905051D01*
X153775072Y-80865269D01*
X153892286Y-80780109D01*
X153892288Y-80780106D01*
X153892292Y-80780104D01*
X154042604Y-80629792D01*
X154042606Y-80629788D01*
X154042609Y-80629786D01*
X154167548Y-80457820D01*
X154167547Y-80457820D01*
X154167551Y-80457816D01*
X154264057Y-80268412D01*
X154329746Y-80066243D01*
X154363000Y-79856287D01*
X154363000Y-79643753D01*
X156162500Y-79643753D01*
X156162500Y-79856246D01*
X156195742Y-80066127D01*
X156195742Y-80066130D01*
X156261404Y-80268217D01*
X156357875Y-80457550D01*
X156397228Y-80511716D01*
X157029537Y-79879408D01*
X157046575Y-79942993D01*
X157112401Y-80057007D01*
X157205493Y-80150099D01*
X157319507Y-80215925D01*
X157383090Y-80232962D01*
X156750782Y-80865269D01*
X156750782Y-80865270D01*
X156804949Y-80904624D01*
X156994282Y-81001095D01*
X157196370Y-81066757D01*
X157406254Y-81100000D01*
X157618746Y-81100000D01*
X157828627Y-81066757D01*
X157828630Y-81066757D01*
X158030717Y-81001095D01*
X158220054Y-80904622D01*
X158274216Y-80865270D01*
X158274217Y-80865270D01*
X157641908Y-80232962D01*
X157705493Y-80215925D01*
X157819507Y-80150099D01*
X157912599Y-80057007D01*
X157978425Y-79942993D01*
X157995462Y-79879408D01*
X158627770Y-80511717D01*
X158627770Y-80511716D01*
X158667122Y-80457554D01*
X158763595Y-80268217D01*
X158829257Y-80066130D01*
X158829257Y-80066127D01*
X158862500Y-79856246D01*
X158862500Y-79643753D01*
X158829258Y-79433873D01*
X158825661Y-79422803D01*
X158825660Y-79422801D01*
X158814531Y-79388549D01*
X196799500Y-79388549D01*
X196799500Y-79611450D01*
X196799501Y-79611466D01*
X196828594Y-79832452D01*
X196828595Y-79832457D01*
X196828596Y-79832463D01*
X196886290Y-80047780D01*
X196886293Y-80047790D01*
X196971593Y-80253722D01*
X196971595Y-80253726D01*
X197083052Y-80446774D01*
X197083057Y-80446780D01*
X197083058Y-80446782D01*
X197218751Y-80623622D01*
X197218757Y-80623629D01*
X197376370Y-80781242D01*
X197376377Y-80781248D01*
X197502294Y-80877867D01*
X197553226Y-80916948D01*
X197746274Y-81028405D01*
X197952219Y-81113710D01*
X198167537Y-81171404D01*
X198388543Y-81200500D01*
X198388550Y-81200500D01*
X198611450Y-81200500D01*
X198611457Y-81200500D01*
X198832463Y-81171404D01*
X199047781Y-81113710D01*
X199253726Y-81028405D01*
X199446774Y-80916948D01*
X199623624Y-80781247D01*
X199781247Y-80623624D01*
X199916948Y-80446774D01*
X200028405Y-80253726D01*
X200113710Y-80047781D01*
X200171404Y-79832463D01*
X200200500Y-79611457D01*
X200200500Y-79388543D01*
X200171404Y-79167537D01*
X200113710Y-78952219D01*
X200028405Y-78746274D01*
X199916948Y-78553226D01*
X199853427Y-78470443D01*
X199781248Y-78376377D01*
X199781242Y-78376370D01*
X199623629Y-78218757D01*
X199623622Y-78218751D01*
X199446782Y-78083058D01*
X199446780Y-78083057D01*
X199446774Y-78083052D01*
X199253726Y-77971595D01*
X199253722Y-77971593D01*
X199047790Y-77886293D01*
X199047783Y-77886291D01*
X199047781Y-77886290D01*
X198832463Y-77828596D01*
X198832457Y-77828595D01*
X198832452Y-77828594D01*
X198611466Y-77799501D01*
X198611463Y-77799500D01*
X198611457Y-77799500D01*
X198388543Y-77799500D01*
X198388537Y-77799500D01*
X198388533Y-77799501D01*
X198167547Y-77828594D01*
X198167540Y-77828595D01*
X198167537Y-77828596D01*
X197952219Y-77886290D01*
X197952209Y-77886293D01*
X197746277Y-77971593D01*
X197746273Y-77971595D01*
X197553226Y-78083052D01*
X197553217Y-78083058D01*
X197376377Y-78218751D01*
X197376370Y-78218757D01*
X197218757Y-78376370D01*
X197218751Y-78376377D01*
X197083058Y-78553217D01*
X197083052Y-78553226D01*
X196971595Y-78746273D01*
X196971593Y-78746277D01*
X196886293Y-78952209D01*
X196886290Y-78952219D01*
X196828597Y-79167534D01*
X196828594Y-79167547D01*
X196799501Y-79388533D01*
X196799500Y-79388549D01*
X158814531Y-79388549D01*
X158763595Y-79231782D01*
X158667124Y-79042449D01*
X158627770Y-78988282D01*
X158627769Y-78988282D01*
X157995462Y-79620590D01*
X157978425Y-79557007D01*
X157912599Y-79442993D01*
X157819507Y-79349901D01*
X157705493Y-79284075D01*
X157641909Y-79267037D01*
X158274216Y-78634728D01*
X158220050Y-78595375D01*
X158030717Y-78498904D01*
X157828629Y-78433242D01*
X157618746Y-78400000D01*
X157406254Y-78400000D01*
X157196372Y-78433242D01*
X157196369Y-78433242D01*
X156994282Y-78498904D01*
X156804939Y-78595380D01*
X156750782Y-78634727D01*
X156750782Y-78634728D01*
X157383091Y-79267037D01*
X157319507Y-79284075D01*
X157205493Y-79349901D01*
X157112401Y-79442993D01*
X157046575Y-79557007D01*
X157029537Y-79620591D01*
X156397228Y-78988282D01*
X156397227Y-78988282D01*
X156357880Y-79042439D01*
X156261404Y-79231782D01*
X156195742Y-79433869D01*
X156195742Y-79433872D01*
X156162500Y-79643753D01*
X154363000Y-79643753D01*
X154363000Y-79643713D01*
X154329746Y-79433757D01*
X154264057Y-79231588D01*
X154167551Y-79042184D01*
X154167549Y-79042181D01*
X154167548Y-79042179D01*
X154042609Y-78870213D01*
X153892286Y-78719890D01*
X153720320Y-78594951D01*
X153530914Y-78498444D01*
X153530913Y-78498443D01*
X153530912Y-78498443D01*
X153328743Y-78432754D01*
X153328741Y-78432753D01*
X153328740Y-78432753D01*
X153167457Y-78407208D01*
X153118787Y-78399500D01*
X152906213Y-78399500D01*
X152861941Y-78406512D01*
X152761147Y-78422476D01*
X152691853Y-78413521D01*
X152638401Y-78368525D01*
X152620132Y-78324194D01*
X152598258Y-78214225D01*
X152598255Y-78214216D01*
X152530378Y-78050343D01*
X152530371Y-78050330D01*
X152431826Y-77902849D01*
X152431823Y-77902845D01*
X152306400Y-77777422D01*
X152306396Y-77777419D01*
X152158915Y-77678874D01*
X152158902Y-77678867D01*
X151995029Y-77610990D01*
X151995020Y-77610987D01*
X151821056Y-77576384D01*
X151821053Y-77576384D01*
X151643671Y-77576384D01*
X151643668Y-77576384D01*
X151469703Y-77610987D01*
X151469694Y-77610990D01*
X151305821Y-77678867D01*
X151305808Y-77678874D01*
X151158327Y-77777419D01*
X151158323Y-77777422D01*
X151032900Y-77902845D01*
X151032897Y-77902849D01*
X150934352Y-78050330D01*
X150934345Y-78050343D01*
X150866468Y-78214216D01*
X150866466Y-78214224D01*
X150833476Y-78380074D01*
X150801091Y-78441985D01*
X150740375Y-78476559D01*
X150670605Y-78472819D01*
X150664407Y-78470443D01*
X150552757Y-78424196D01*
X150552748Y-78424193D01*
X150378784Y-78389590D01*
X150378781Y-78389590D01*
X150201399Y-78389590D01*
X150201396Y-78389590D01*
X150027431Y-78424193D01*
X150027422Y-78424196D01*
X149863549Y-78492073D01*
X149863536Y-78492080D01*
X149716058Y-78590623D01*
X149684668Y-78622012D01*
X149623344Y-78655495D01*
X149553652Y-78650509D01*
X149524104Y-78634646D01*
X149470057Y-78595379D01*
X149280717Y-78498904D01*
X149078629Y-78433242D01*
X148868746Y-78400000D01*
X148656254Y-78400000D01*
X148446372Y-78433242D01*
X148446369Y-78433242D01*
X148244282Y-78498904D01*
X148054939Y-78595380D01*
X148000782Y-78634727D01*
X148000782Y-78634728D01*
X148633091Y-79267037D01*
X148569507Y-79284075D01*
X148455493Y-79349901D01*
X148362401Y-79442993D01*
X148296575Y-79557007D01*
X148279537Y-79620591D01*
X147647228Y-78988282D01*
X147647227Y-78988282D01*
X147607880Y-79042439D01*
X147511404Y-79231782D01*
X147445742Y-79433869D01*
X147445742Y-79433872D01*
X147412500Y-79643753D01*
X147412500Y-79856246D01*
X147445742Y-80066127D01*
X147445742Y-80066130D01*
X147511404Y-80268217D01*
X147607875Y-80457550D01*
X147647228Y-80511716D01*
X148279537Y-79879408D01*
X148296575Y-79942993D01*
X148362401Y-80057007D01*
X148455493Y-80150099D01*
X148569507Y-80215925D01*
X148633090Y-80232962D01*
X148000782Y-80865269D01*
X148000782Y-80865270D01*
X148054949Y-80904624D01*
X148244282Y-81001095D01*
X148446370Y-81066757D01*
X148656254Y-81100000D01*
X148868746Y-81100000D01*
X149078627Y-81066757D01*
X149078630Y-81066757D01*
X149280717Y-81001095D01*
X149470054Y-80904622D01*
X149524216Y-80865270D01*
X149524217Y-80865270D01*
X148891908Y-80232962D01*
X148955493Y-80215925D01*
X149069507Y-80150099D01*
X149162599Y-80057007D01*
X149228425Y-79942993D01*
X149245462Y-79879408D01*
X149881790Y-80515737D01*
X149935147Y-80526946D01*
X149984904Y-80575996D01*
X150000500Y-80636200D01*
X150000500Y-85582040D01*
X149980815Y-85649079D01*
X149928011Y-85694834D01*
X149923958Y-85696599D01*
X149910956Y-85701985D01*
X149910955Y-85701985D01*
X149763465Y-85800535D01*
X149763461Y-85800538D01*
X149638038Y-85925961D01*
X149638035Y-85925965D01*
X149539490Y-86073446D01*
X149539483Y-86073459D01*
X149471606Y-86237332D01*
X149471603Y-86237341D01*
X149437000Y-86411304D01*
X149437000Y-86588695D01*
X149471603Y-86762658D01*
X149471606Y-86762667D01*
X149539483Y-86926540D01*
X149539490Y-86926553D01*
X149638035Y-87074034D01*
X149638038Y-87074038D01*
X149765322Y-87201322D01*
X149798807Y-87262645D01*
X149793823Y-87332337D01*
X149789452Y-87342616D01*
X149784194Y-87353580D01*
X149743704Y-87407669D01*
X149693409Y-87542517D01*
X149693353Y-87543030D01*
X149690318Y-87549362D01*
X149670536Y-87571346D01*
X149652817Y-87595016D01*
X149647430Y-87597025D01*
X149643583Y-87601301D01*
X149615055Y-87609100D01*
X149587353Y-87619433D01*
X149581733Y-87618210D01*
X149576187Y-87619727D01*
X149547974Y-87610866D01*
X149519080Y-87604581D01*
X149512662Y-87599776D01*
X149509527Y-87598792D01*
X149506500Y-87595163D01*
X149490826Y-87583430D01*
X149377286Y-87469890D01*
X149205320Y-87344951D01*
X149015914Y-87248444D01*
X149015913Y-87248443D01*
X149015912Y-87248443D01*
X148813743Y-87182754D01*
X148813741Y-87182753D01*
X148813740Y-87182753D01*
X148652457Y-87157208D01*
X148603787Y-87149500D01*
X148391213Y-87149500D01*
X148342542Y-87157208D01*
X148181260Y-87182753D01*
X148104943Y-87207550D01*
X147985567Y-87246338D01*
X147979085Y-87248444D01*
X147789679Y-87344951D01*
X147617713Y-87469890D01*
X147467390Y-87620213D01*
X147342451Y-87792179D01*
X147245944Y-87981585D01*
X147180253Y-88183760D01*
X147147000Y-88393713D01*
X141000500Y-88393713D01*
X141000500Y-79643713D01*
X142912000Y-79643713D01*
X142912000Y-79856287D01*
X142922034Y-79919644D01*
X142945235Y-80066127D01*
X142945254Y-80066243D01*
X143006171Y-80253726D01*
X143010944Y-80268414D01*
X143107451Y-80457820D01*
X143232390Y-80629786D01*
X143382713Y-80780109D01*
X143554679Y-80905048D01*
X143554681Y-80905049D01*
X143554684Y-80905051D01*
X143744088Y-81001557D01*
X143946257Y-81067246D01*
X144156213Y-81100500D01*
X144156214Y-81100500D01*
X144368786Y-81100500D01*
X144368787Y-81100500D01*
X144578743Y-81067246D01*
X144780912Y-81001557D01*
X144970316Y-80905051D01*
X145025072Y-80865269D01*
X145142286Y-80780109D01*
X145142288Y-80780106D01*
X145142292Y-80780104D01*
X145292604Y-80629792D01*
X145292606Y-80629788D01*
X145292609Y-80629786D01*
X145417548Y-80457820D01*
X145417547Y-80457820D01*
X145417551Y-80457816D01*
X145514057Y-80268412D01*
X145579746Y-80066243D01*
X145613000Y-79856287D01*
X145613000Y-79643713D01*
X145579746Y-79433757D01*
X145514057Y-79231588D01*
X145417551Y-79042184D01*
X145417549Y-79042181D01*
X145417548Y-79042179D01*
X145292609Y-78870213D01*
X145142286Y-78719890D01*
X144970320Y-78594951D01*
X144780914Y-78498444D01*
X144780913Y-78498443D01*
X144780912Y-78498443D01*
X144578743Y-78432754D01*
X144578741Y-78432753D01*
X144578740Y-78432753D01*
X144417457Y-78407208D01*
X144368787Y-78399500D01*
X144156213Y-78399500D01*
X144107542Y-78407208D01*
X143946260Y-78432753D01*
X143946257Y-78432754D01*
X143763681Y-78492077D01*
X143744085Y-78498444D01*
X143554679Y-78594951D01*
X143382713Y-78719890D01*
X143232390Y-78870213D01*
X143107451Y-79042179D01*
X143010944Y-79231585D01*
X142945253Y-79433760D01*
X142917110Y-79611450D01*
X142912000Y-79643713D01*
X141000500Y-79643713D01*
X141000500Y-75397648D01*
X160462000Y-75397648D01*
X160462000Y-75602351D01*
X160494022Y-75804534D01*
X160557281Y-75999223D01*
X160650215Y-76181613D01*
X160770528Y-76347213D01*
X160915286Y-76491971D01*
X161070249Y-76604556D01*
X161080890Y-76612287D01*
X161197107Y-76671503D01*
X161263276Y-76705218D01*
X161263278Y-76705218D01*
X161263281Y-76705220D01*
X161367637Y-76739127D01*
X161457965Y-76768477D01*
X161559057Y-76784488D01*
X161660148Y-76800500D01*
X161660149Y-76800500D01*
X161864851Y-76800500D01*
X161864852Y-76800500D01*
X162067034Y-76768477D01*
X162261719Y-76705220D01*
X162444110Y-76612287D01*
X162537090Y-76544732D01*
X162609713Y-76491971D01*
X162609715Y-76491968D01*
X162609719Y-76491966D01*
X162754466Y-76347219D01*
X162754468Y-76347215D01*
X162754471Y-76347213D01*
X162807232Y-76274590D01*
X162874787Y-76181610D01*
X162967720Y-75999219D01*
X163030977Y-75804534D01*
X163063000Y-75602352D01*
X163063000Y-75397648D01*
X163030977Y-75195466D01*
X162967720Y-75000781D01*
X162967718Y-75000778D01*
X162967718Y-75000776D01*
X162934003Y-74934607D01*
X162874787Y-74818390D01*
X162867056Y-74807749D01*
X162754471Y-74652786D01*
X162609713Y-74508028D01*
X162444113Y-74387715D01*
X162444112Y-74387714D01*
X162444110Y-74387713D01*
X162387153Y-74358691D01*
X162261723Y-74294781D01*
X162067034Y-74231522D01*
X161892495Y-74203878D01*
X161864852Y-74199500D01*
X161660148Y-74199500D01*
X161635829Y-74203351D01*
X161457965Y-74231522D01*
X161263276Y-74294781D01*
X161080886Y-74387715D01*
X160915286Y-74508028D01*
X160770528Y-74652786D01*
X160650215Y-74818386D01*
X160557281Y-75000776D01*
X160494022Y-75195465D01*
X160462000Y-75397648D01*
X141000500Y-75397648D01*
X141000500Y-73143713D01*
X142912000Y-73143713D01*
X142912000Y-73356287D01*
X142945254Y-73566243D01*
X142974820Y-73657238D01*
X143010944Y-73768414D01*
X143107451Y-73957820D01*
X143232390Y-74129786D01*
X143382713Y-74280109D01*
X143554679Y-74405048D01*
X143554681Y-74405049D01*
X143554684Y-74405051D01*
X143744088Y-74501557D01*
X143946257Y-74567246D01*
X144156213Y-74600500D01*
X144156214Y-74600500D01*
X144368786Y-74600500D01*
X144368787Y-74600500D01*
X144578743Y-74567246D01*
X144780912Y-74501557D01*
X144970316Y-74405051D01*
X145122091Y-74294781D01*
X145142286Y-74280109D01*
X145142288Y-74280106D01*
X145142292Y-74280104D01*
X145292604Y-74129792D01*
X145292606Y-74129788D01*
X145292609Y-74129786D01*
X145417548Y-73957820D01*
X145417547Y-73957820D01*
X145417551Y-73957816D01*
X145514057Y-73768412D01*
X145579746Y-73566243D01*
X145613000Y-73356287D01*
X145613000Y-73143713D01*
X145593311Y-73019405D01*
X145590238Y-73000000D01*
X147435269Y-73000000D01*
X148329488Y-73000000D01*
X148296575Y-73057007D01*
X148262500Y-73184174D01*
X148262500Y-73315826D01*
X148296575Y-73442993D01*
X148329488Y-73500000D01*
X147435269Y-73500000D01*
X147445742Y-73566126D01*
X147445742Y-73566129D01*
X147511404Y-73768217D01*
X147607879Y-73957557D01*
X147732772Y-74129459D01*
X147732776Y-74129464D01*
X147883035Y-74279723D01*
X147883040Y-74279727D01*
X148054942Y-74404620D01*
X148244282Y-74501095D01*
X148446371Y-74566757D01*
X148512500Y-74577231D01*
X148512500Y-73683012D01*
X148569507Y-73715925D01*
X148696674Y-73750000D01*
X148828326Y-73750000D01*
X148955493Y-73715925D01*
X149012500Y-73683012D01*
X149012500Y-74577230D01*
X149078626Y-74566757D01*
X149078629Y-74566757D01*
X149280717Y-74501095D01*
X149470057Y-74404620D01*
X149641959Y-74279727D01*
X149641964Y-74279723D01*
X149792223Y-74129464D01*
X149792227Y-74129459D01*
X149917120Y-73957557D01*
X150013595Y-73768217D01*
X150079257Y-73566129D01*
X150079257Y-73566126D01*
X150089731Y-73500000D01*
X149195512Y-73500000D01*
X149228425Y-73442993D01*
X149262500Y-73315826D01*
X149262500Y-73184174D01*
X149228425Y-73057007D01*
X149195512Y-73000000D01*
X150089732Y-73000000D01*
X150092082Y-72997247D01*
X150099784Y-72937649D01*
X150144779Y-72884196D01*
X150211531Y-72863556D01*
X150237495Y-72865926D01*
X150411306Y-72900500D01*
X150537979Y-72900500D01*
X150605018Y-72920185D01*
X150650773Y-72972989D01*
X150659596Y-73000308D01*
X150663393Y-73019398D01*
X150663395Y-73019406D01*
X150731272Y-73183279D01*
X150731279Y-73183292D01*
X150829824Y-73330773D01*
X150829827Y-73330777D01*
X150955250Y-73456200D01*
X150955254Y-73456203D01*
X151102735Y-73554748D01*
X151102748Y-73554755D01*
X151225652Y-73605662D01*
X151266623Y-73622633D01*
X151266625Y-73622633D01*
X151266630Y-73622635D01*
X151440593Y-73657238D01*
X151440596Y-73657239D01*
X151440598Y-73657239D01*
X151617981Y-73657239D01*
X151622246Y-73656819D01*
X151690892Y-73669839D01*
X151741602Y-73717904D01*
X151752328Y-73741899D01*
X151757400Y-73757508D01*
X151760944Y-73768416D01*
X151857451Y-73957820D01*
X151982390Y-74129786D01*
X152132713Y-74280109D01*
X152304679Y-74405048D01*
X152304681Y-74405049D01*
X152304684Y-74405051D01*
X152494088Y-74501557D01*
X152696257Y-74567246D01*
X152906213Y-74600500D01*
X152906214Y-74600500D01*
X153118786Y-74600500D01*
X153118787Y-74600500D01*
X153328743Y-74567246D01*
X153530912Y-74501557D01*
X153720316Y-74405051D01*
X153872091Y-74294781D01*
X153892286Y-74280109D01*
X153892288Y-74280106D01*
X153892292Y-74280104D01*
X154042604Y-74129792D01*
X154042606Y-74129788D01*
X154042609Y-74129786D01*
X154167548Y-73957820D01*
X154167547Y-73957820D01*
X154167551Y-73957816D01*
X154264057Y-73768412D01*
X154329746Y-73566243D01*
X154363000Y-73356287D01*
X154363000Y-73143713D01*
X154343311Y-73019405D01*
X154340238Y-73000000D01*
X156185269Y-73000000D01*
X157079488Y-73000000D01*
X157046575Y-73057007D01*
X157012500Y-73184174D01*
X157012500Y-73315826D01*
X157046575Y-73442993D01*
X157079488Y-73500000D01*
X156185269Y-73500000D01*
X156195742Y-73566126D01*
X156195742Y-73566129D01*
X156261404Y-73768217D01*
X156357879Y-73957557D01*
X156482772Y-74129459D01*
X156482776Y-74129464D01*
X156633035Y-74279723D01*
X156633040Y-74279727D01*
X156804942Y-74404620D01*
X156994282Y-74501095D01*
X157196371Y-74566757D01*
X157262500Y-74577231D01*
X157262500Y-73683012D01*
X157319507Y-73715925D01*
X157446674Y-73750000D01*
X157578326Y-73750000D01*
X157705493Y-73715925D01*
X157762500Y-73683012D01*
X157762500Y-74577230D01*
X157828626Y-74566757D01*
X157828629Y-74566757D01*
X158030717Y-74501095D01*
X158220057Y-74404620D01*
X158391959Y-74279727D01*
X158391964Y-74279723D01*
X158542223Y-74129464D01*
X158542227Y-74129459D01*
X158667120Y-73957557D01*
X158763595Y-73768217D01*
X158829257Y-73566129D01*
X158829257Y-73566126D01*
X158839731Y-73500000D01*
X157945512Y-73500000D01*
X157978425Y-73442993D01*
X158012500Y-73315826D01*
X158012500Y-73184174D01*
X157978425Y-73057007D01*
X157945512Y-73000000D01*
X158839731Y-73000000D01*
X158829257Y-72933873D01*
X158829257Y-72933870D01*
X158763595Y-72731782D01*
X158667120Y-72542442D01*
X158542227Y-72370540D01*
X158542223Y-72370535D01*
X158391964Y-72220276D01*
X158391959Y-72220272D01*
X158220057Y-72095379D01*
X158030715Y-71998903D01*
X157828624Y-71933241D01*
X157762500Y-71922768D01*
X157762500Y-72816988D01*
X157705493Y-72784075D01*
X157578326Y-72750000D01*
X157446674Y-72750000D01*
X157319507Y-72784075D01*
X157262500Y-72816988D01*
X157262500Y-71922768D01*
X157262499Y-71922768D01*
X157196375Y-71933241D01*
X156994284Y-71998903D01*
X156804942Y-72095379D01*
X156633040Y-72220272D01*
X156633035Y-72220276D01*
X156482776Y-72370535D01*
X156482772Y-72370540D01*
X156357879Y-72542442D01*
X156261404Y-72731782D01*
X156195742Y-72933870D01*
X156195742Y-72933873D01*
X156185269Y-73000000D01*
X154340238Y-73000000D01*
X154335960Y-72972989D01*
X154329746Y-72933757D01*
X154264057Y-72731588D01*
X154167551Y-72542184D01*
X154167549Y-72542181D01*
X154167548Y-72542179D01*
X154042609Y-72370213D01*
X153892290Y-72219894D01*
X153892285Y-72219890D01*
X153799529Y-72152499D01*
X153756863Y-72097169D01*
X153750884Y-72027556D01*
X153783489Y-71965761D01*
X153784638Y-71964595D01*
X154012997Y-71736236D01*
X154074319Y-71702753D01*
X154088537Y-71700515D01*
X154088689Y-71700500D01*
X154088691Y-71700500D01*
X154088693Y-71700499D01*
X154088699Y-71700499D01*
X154262658Y-71665896D01*
X154262661Y-71665894D01*
X154262666Y-71665894D01*
X154426547Y-71598013D01*
X154574035Y-71499464D01*
X154574038Y-71499461D01*
X154628966Y-71444534D01*
X154699461Y-71374038D01*
X154699464Y-71374035D01*
X154798013Y-71226547D01*
X154865894Y-71062666D01*
X154900500Y-70888691D01*
X154900500Y-70711309D01*
X154900500Y-70711306D01*
X154900499Y-70711304D01*
X154865896Y-70537341D01*
X154865893Y-70537332D01*
X154850429Y-70499999D01*
X154839360Y-70473275D01*
X154798016Y-70373459D01*
X154798009Y-70373446D01*
X154699464Y-70225965D01*
X154699461Y-70225961D01*
X154574038Y-70100538D01*
X154574034Y-70100535D01*
X154426553Y-70001990D01*
X154426540Y-70001983D01*
X154262667Y-69934106D01*
X154262658Y-69934103D01*
X154088694Y-69899500D01*
X154088691Y-69899500D01*
X153911309Y-69899500D01*
X153911306Y-69899500D01*
X153737341Y-69934103D01*
X153737332Y-69934106D01*
X153573459Y-70001983D01*
X153573446Y-70001990D01*
X153425965Y-70100535D01*
X153425961Y-70100538D01*
X153300538Y-70225961D01*
X153300535Y-70225965D01*
X153201990Y-70373446D01*
X153201983Y-70373459D01*
X153134106Y-70537332D01*
X153134103Y-70537341D01*
X153099500Y-70711304D01*
X153099500Y-70800753D01*
X153079815Y-70867792D01*
X153027011Y-70913547D01*
X152957853Y-70923491D01*
X152894297Y-70894466D01*
X152872398Y-70869644D01*
X152825689Y-70799740D01*
X152825686Y-70799736D01*
X152700263Y-70674313D01*
X152700259Y-70674310D01*
X152552778Y-70575765D01*
X152552765Y-70575758D01*
X152388892Y-70507881D01*
X152388883Y-70507878D01*
X152214919Y-70473275D01*
X152214916Y-70473275D01*
X152037534Y-70473275D01*
X152037531Y-70473275D01*
X151863566Y-70507878D01*
X151863557Y-70507881D01*
X151699684Y-70575758D01*
X151699671Y-70575765D01*
X151552190Y-70674310D01*
X151552186Y-70674313D01*
X151426763Y-70799736D01*
X151426760Y-70799740D01*
X151328215Y-70947221D01*
X151328208Y-70947234D01*
X151260331Y-71111107D01*
X151260329Y-71111115D01*
X151241420Y-71206175D01*
X151209035Y-71268086D01*
X151148319Y-71302660D01*
X151078549Y-71298919D01*
X151050912Y-71285085D01*
X150926553Y-71201990D01*
X150926540Y-71201983D01*
X150762667Y-71134106D01*
X150762658Y-71134103D01*
X150588694Y-71099500D01*
X150588691Y-71099500D01*
X150411309Y-71099500D01*
X150411306Y-71099500D01*
X150237341Y-71134103D01*
X150237332Y-71134106D01*
X150073459Y-71201983D01*
X150073446Y-71201990D01*
X149925965Y-71300535D01*
X149925961Y-71300538D01*
X149800538Y-71425961D01*
X149800535Y-71425965D01*
X149701990Y-71573446D01*
X149701983Y-71573459D01*
X149634106Y-71737332D01*
X149634103Y-71737341D01*
X149599500Y-71911304D01*
X149599500Y-71958983D01*
X149579815Y-72026022D01*
X149527011Y-72071777D01*
X149457853Y-72081721D01*
X149419205Y-72069468D01*
X149280715Y-71998903D01*
X149078624Y-71933241D01*
X149012500Y-71922768D01*
X149012500Y-72816988D01*
X148955493Y-72784075D01*
X148828326Y-72750000D01*
X148696674Y-72750000D01*
X148569507Y-72784075D01*
X148512500Y-72816988D01*
X148512500Y-71922768D01*
X148512499Y-71922768D01*
X148446375Y-71933241D01*
X148244284Y-71998903D01*
X148054942Y-72095379D01*
X147883040Y-72220272D01*
X147883035Y-72220276D01*
X147732776Y-72370535D01*
X147732772Y-72370540D01*
X147607879Y-72542442D01*
X147511404Y-72731782D01*
X147445742Y-72933870D01*
X147445742Y-72933873D01*
X147435269Y-73000000D01*
X145590238Y-73000000D01*
X145585960Y-72972989D01*
X145579746Y-72933757D01*
X145514057Y-72731588D01*
X145417551Y-72542184D01*
X145417549Y-72542181D01*
X145417548Y-72542179D01*
X145292609Y-72370213D01*
X145142286Y-72219890D01*
X144970320Y-72094951D01*
X144780914Y-71998444D01*
X144780913Y-71998443D01*
X144780912Y-71998443D01*
X144578743Y-71932754D01*
X144578741Y-71932753D01*
X144578740Y-71932753D01*
X144417457Y-71907208D01*
X144368787Y-71899500D01*
X144156213Y-71899500D01*
X144107542Y-71907208D01*
X143946260Y-71932753D01*
X143744085Y-71998444D01*
X143554679Y-72094951D01*
X143382713Y-72219890D01*
X143232390Y-72370213D01*
X143107451Y-72542179D01*
X143010944Y-72731585D01*
X142945253Y-72933760D01*
X142931688Y-73019406D01*
X142912000Y-73143713D01*
X141000500Y-73143713D01*
X141000500Y-69411304D01*
X146099500Y-69411304D01*
X146099500Y-69588695D01*
X146134103Y-69762658D01*
X146134106Y-69762667D01*
X146201983Y-69926540D01*
X146201990Y-69926553D01*
X146300535Y-70074034D01*
X146300538Y-70074038D01*
X146425961Y-70199461D01*
X146425965Y-70199464D01*
X146573446Y-70298009D01*
X146573459Y-70298016D01*
X146680278Y-70342261D01*
X146734682Y-70386101D01*
X146756747Y-70452395D01*
X146739468Y-70520095D01*
X146735929Y-70525712D01*
X146703214Y-70574673D01*
X146703208Y-70574684D01*
X146635331Y-70738557D01*
X146635328Y-70738566D01*
X146600725Y-70912529D01*
X146600725Y-71089920D01*
X146635328Y-71263883D01*
X146635331Y-71263892D01*
X146703208Y-71427765D01*
X146703215Y-71427778D01*
X146801760Y-71575259D01*
X146801763Y-71575263D01*
X146927186Y-71700686D01*
X146927190Y-71700689D01*
X147074671Y-71799234D01*
X147074684Y-71799241D01*
X147197588Y-71850148D01*
X147238559Y-71867119D01*
X147238561Y-71867119D01*
X147238566Y-71867121D01*
X147412529Y-71901724D01*
X147412532Y-71901725D01*
X147412534Y-71901725D01*
X147589918Y-71901725D01*
X147589919Y-71901724D01*
X147647907Y-71890189D01*
X147763883Y-71867121D01*
X147763886Y-71867119D01*
X147763891Y-71867119D01*
X147903760Y-71809183D01*
X147927765Y-71799241D01*
X147927765Y-71799240D01*
X147927772Y-71799238D01*
X148075260Y-71700689D01*
X148200689Y-71575260D01*
X148299238Y-71427772D01*
X148299987Y-71425965D01*
X148321497Y-71374034D01*
X148367119Y-71263891D01*
X148374548Y-71226547D01*
X148397510Y-71111107D01*
X148401725Y-71089916D01*
X148401725Y-70912534D01*
X148401725Y-70912531D01*
X148401724Y-70912529D01*
X148367121Y-70738566D01*
X148367118Y-70738557D01*
X148299241Y-70574684D01*
X148299234Y-70574671D01*
X148200689Y-70427190D01*
X148200686Y-70427186D01*
X148138044Y-70364544D01*
X148104559Y-70303221D01*
X148101725Y-70276863D01*
X148101725Y-69922169D01*
X148101724Y-69922165D01*
X148096866Y-69904032D01*
X148060802Y-69769440D01*
X148020401Y-69699464D01*
X147981745Y-69632509D01*
X147930610Y-69581374D01*
X147925340Y-69574355D01*
X147916039Y-69549527D01*
X147903334Y-69526260D01*
X147901728Y-69511326D01*
X147900829Y-69508926D01*
X147901257Y-69506944D01*
X147900500Y-69499902D01*
X147900500Y-69411306D01*
X147900499Y-69411304D01*
X147865896Y-69237341D01*
X147865893Y-69237332D01*
X147798016Y-69073459D01*
X147798009Y-69073446D01*
X147699464Y-68925965D01*
X147699461Y-68925961D01*
X147574038Y-68800538D01*
X147574034Y-68800535D01*
X147436024Y-68708319D01*
X147436023Y-68708318D01*
X147426554Y-68701991D01*
X147426540Y-68701983D01*
X147262667Y-68634106D01*
X147262658Y-68634103D01*
X147148038Y-68611304D01*
X155599500Y-68611304D01*
X155599500Y-68788695D01*
X155634103Y-68962658D01*
X155634106Y-68962667D01*
X155701983Y-69126540D01*
X155701990Y-69126553D01*
X155800535Y-69274034D01*
X155800538Y-69274038D01*
X155925961Y-69399461D01*
X155925965Y-69399464D01*
X156073446Y-69498009D01*
X156073459Y-69498016D01*
X156192094Y-69547155D01*
X156237334Y-69565894D01*
X156237336Y-69565894D01*
X156237341Y-69565896D01*
X156411304Y-69600499D01*
X156411307Y-69600500D01*
X156411309Y-69600500D01*
X156588693Y-69600500D01*
X156733357Y-69571724D01*
X156802949Y-69577951D01*
X156845782Y-69609124D01*
X156847041Y-69607866D01*
X156976774Y-69737599D01*
X156976778Y-69737602D01*
X157124259Y-69836147D01*
X157124272Y-69836154D01*
X157247176Y-69887061D01*
X157288147Y-69904032D01*
X157288149Y-69904032D01*
X157288154Y-69904034D01*
X157462117Y-69938637D01*
X157462120Y-69938638D01*
X157462122Y-69938638D01*
X157639506Y-69938638D01*
X157639507Y-69938637D01*
X157722319Y-69922165D01*
X157813471Y-69904034D01*
X157813474Y-69904032D01*
X157813479Y-69904032D01*
X157977360Y-69836151D01*
X158124848Y-69737602D01*
X158250277Y-69612173D01*
X158335046Y-69485307D01*
X158388658Y-69440503D01*
X158457983Y-69431796D01*
X158521011Y-69461950D01*
X158541250Y-69485308D01*
X158600535Y-69574034D01*
X158600538Y-69574038D01*
X158725961Y-69699461D01*
X158725965Y-69699464D01*
X158873446Y-69798009D01*
X158873459Y-69798016D01*
X158996363Y-69848923D01*
X159037334Y-69865894D01*
X159037336Y-69865894D01*
X159037341Y-69865896D01*
X159211304Y-69900499D01*
X159211307Y-69900500D01*
X159211309Y-69900500D01*
X159388693Y-69900500D01*
X159388694Y-69900499D01*
X159446682Y-69888964D01*
X159562658Y-69865896D01*
X159562661Y-69865894D01*
X159562666Y-69865894D01*
X159726547Y-69798013D01*
X159874035Y-69699464D01*
X159936681Y-69636817D01*
X159998002Y-69603334D01*
X160024361Y-69600500D01*
X160352343Y-69600500D01*
X160352347Y-69600501D01*
X160510461Y-69600501D01*
X160551479Y-69589509D01*
X160564495Y-69588828D01*
X160576406Y-69591658D01*
X160595182Y-69591045D01*
X160597429Y-69591491D01*
X160598153Y-69591636D01*
X160616324Y-69601144D01*
X160632472Y-69604982D01*
X160641414Y-69614273D01*
X160660060Y-69624030D01*
X160673457Y-69647565D01*
X160680924Y-69655323D01*
X160682545Y-69663530D01*
X160694625Y-69684750D01*
X160692938Y-69716128D01*
X160694468Y-69723867D01*
X160692216Y-69729567D01*
X160690876Y-69754519D01*
X160674264Y-69786134D01*
X160650641Y-69818648D01*
X160557744Y-70000968D01*
X160494509Y-70195582D01*
X160462500Y-70397682D01*
X160462500Y-70602317D01*
X160494509Y-70804417D01*
X160557744Y-70999031D01*
X160650641Y-71181350D01*
X160650647Y-71181359D01*
X160683023Y-71225921D01*
X160683024Y-71225922D01*
X161362500Y-70546446D01*
X161362500Y-70552661D01*
X161389759Y-70654394D01*
X161442420Y-70745606D01*
X161516894Y-70820080D01*
X161608106Y-70872741D01*
X161709839Y-70900000D01*
X161716053Y-70900000D01*
X161036576Y-71579474D01*
X161081150Y-71611859D01*
X161263468Y-71704755D01*
X161458082Y-71767990D01*
X161660183Y-71800000D01*
X161864817Y-71800000D01*
X162066917Y-71767990D01*
X162261531Y-71704755D01*
X162443849Y-71611859D01*
X162488421Y-71579474D01*
X161808947Y-70900000D01*
X161815161Y-70900000D01*
X161916894Y-70872741D01*
X162008106Y-70820080D01*
X162082580Y-70745606D01*
X162135241Y-70654394D01*
X162162500Y-70552661D01*
X162162500Y-70546447D01*
X162841974Y-71225921D01*
X162874359Y-71181349D01*
X162967255Y-70999031D01*
X163030490Y-70804417D01*
X163062500Y-70602317D01*
X163062500Y-70397682D01*
X163030490Y-70195582D01*
X162967255Y-70000968D01*
X162874359Y-69818650D01*
X162841974Y-69774077D01*
X162841974Y-69774076D01*
X162162500Y-70453551D01*
X162162500Y-70447339D01*
X162135241Y-70345606D01*
X162082580Y-70254394D01*
X162008106Y-70179920D01*
X161916894Y-70127259D01*
X161815161Y-70100000D01*
X161808946Y-70100000D01*
X162488422Y-69420524D01*
X162488421Y-69420523D01*
X162443859Y-69388147D01*
X162443850Y-69388141D01*
X162261531Y-69295244D01*
X162066917Y-69232009D01*
X161864817Y-69200000D01*
X161684570Y-69200000D01*
X161654339Y-69191123D01*
X161623629Y-69183992D01*
X161621061Y-69181351D01*
X161617531Y-69180315D01*
X161596901Y-69156507D01*
X161574918Y-69133901D01*
X161574185Y-69130291D01*
X161571776Y-69127511D01*
X161567290Y-69096316D01*
X161561022Y-69065427D01*
X161562171Y-69060711D01*
X161561832Y-69058353D01*
X161569005Y-69031048D01*
X161569489Y-69029801D01*
X161597298Y-68962666D01*
X161599070Y-68953753D01*
X161603005Y-68943639D01*
X161617968Y-68924221D01*
X161624724Y-68911304D01*
X190599500Y-68911304D01*
X190599500Y-69088695D01*
X190634103Y-69262658D01*
X190634106Y-69262667D01*
X190701983Y-69426540D01*
X190701990Y-69426553D01*
X190800535Y-69574034D01*
X190800538Y-69574038D01*
X190925961Y-69699461D01*
X190925965Y-69699464D01*
X191073446Y-69798009D01*
X191073459Y-69798016D01*
X191196363Y-69848923D01*
X191237334Y-69865894D01*
X191237336Y-69865894D01*
X191237341Y-69865896D01*
X191411304Y-69900499D01*
X191411307Y-69900500D01*
X191411309Y-69900500D01*
X191588693Y-69900500D01*
X191588694Y-69900499D01*
X191646682Y-69888964D01*
X191762658Y-69865896D01*
X191762661Y-69865894D01*
X191762666Y-69865894D01*
X191926547Y-69798013D01*
X192074035Y-69699464D01*
X192199464Y-69574035D01*
X192298013Y-69426547D01*
X192365894Y-69262666D01*
X192370932Y-69237341D01*
X192400499Y-69088695D01*
X192400500Y-69088693D01*
X192400500Y-68911306D01*
X192400499Y-68911304D01*
X192365896Y-68737341D01*
X192365893Y-68737332D01*
X192313858Y-68611706D01*
X192304419Y-68564254D01*
X192304419Y-68124038D01*
X196899500Y-68124038D01*
X196899500Y-68375962D01*
X196909222Y-68437341D01*
X196938910Y-68624785D01*
X197016760Y-68864383D01*
X197066839Y-68962667D01*
X197123290Y-69073459D01*
X197131132Y-69088848D01*
X197279201Y-69292649D01*
X197279205Y-69292654D01*
X197457345Y-69470794D01*
X197457350Y-69470798D01*
X197623701Y-69591658D01*
X197661155Y-69618870D01*
X197790452Y-69684750D01*
X197885616Y-69733239D01*
X197885618Y-69733239D01*
X197885621Y-69733241D01*
X198125215Y-69811090D01*
X198374038Y-69850500D01*
X198374039Y-69850500D01*
X198625961Y-69850500D01*
X198625962Y-69850500D01*
X198874785Y-69811090D01*
X199114379Y-69733241D01*
X199338845Y-69618870D01*
X199542656Y-69470793D01*
X199720793Y-69292656D01*
X199868870Y-69088845D01*
X199983241Y-68864379D01*
X200061090Y-68624785D01*
X200100500Y-68375962D01*
X200100500Y-68124038D01*
X200061090Y-67875215D01*
X199983241Y-67635621D01*
X199983239Y-67635618D01*
X199983239Y-67635616D01*
X199941747Y-67554184D01*
X199868870Y-67411155D01*
X199834015Y-67363181D01*
X199720798Y-67207350D01*
X199720794Y-67207345D01*
X199542654Y-67029205D01*
X199542649Y-67029201D01*
X199338848Y-66881132D01*
X199338847Y-66881131D01*
X199338845Y-66881130D01*
X199268747Y-66845413D01*
X199114383Y-66766760D01*
X198874785Y-66688910D01*
X198625962Y-66649500D01*
X198374038Y-66649500D01*
X198249626Y-66669205D01*
X198125214Y-66688910D01*
X197885616Y-66766760D01*
X197661151Y-66881132D01*
X197457350Y-67029201D01*
X197457345Y-67029205D01*
X197279205Y-67207345D01*
X197279201Y-67207350D01*
X197131132Y-67411151D01*
X197016760Y-67635616D01*
X196952267Y-67834106D01*
X196938910Y-67875215D01*
X196899500Y-68124038D01*
X192304419Y-68124038D01*
X192304419Y-64481350D01*
X192324104Y-64414311D01*
X192325317Y-64412459D01*
X192351932Y-64372628D01*
X192419813Y-64208747D01*
X192434348Y-64135678D01*
X192454418Y-64034776D01*
X192454419Y-64034774D01*
X192454419Y-63857387D01*
X192454418Y-63857385D01*
X192419815Y-63683422D01*
X192419812Y-63683413D01*
X192351935Y-63519540D01*
X192351928Y-63519527D01*
X192253383Y-63372046D01*
X192253380Y-63372042D01*
X192127957Y-63246619D01*
X192127953Y-63246616D01*
X191980472Y-63148071D01*
X191980459Y-63148064D01*
X191816586Y-63080187D01*
X191816577Y-63080184D01*
X191642613Y-63045581D01*
X191642610Y-63045581D01*
X191465228Y-63045581D01*
X191465225Y-63045581D01*
X191291260Y-63080184D01*
X191291251Y-63080187D01*
X191127378Y-63148064D01*
X191127365Y-63148071D01*
X190979884Y-63246616D01*
X190979880Y-63246619D01*
X190854457Y-63372042D01*
X190854454Y-63372046D01*
X190755909Y-63519527D01*
X190755902Y-63519540D01*
X190688025Y-63683413D01*
X190688022Y-63683422D01*
X190653419Y-63857385D01*
X190653419Y-64034776D01*
X190688022Y-64208739D01*
X190688025Y-64208748D01*
X190755903Y-64372623D01*
X190755904Y-64372624D01*
X190755906Y-64372628D01*
X190782521Y-64412459D01*
X190803399Y-64479136D01*
X190803419Y-64481350D01*
X190803419Y-68384034D01*
X190783734Y-68451073D01*
X190782521Y-68452925D01*
X190701990Y-68573446D01*
X190701983Y-68573459D01*
X190634106Y-68737332D01*
X190634103Y-68737341D01*
X190599500Y-68911304D01*
X161624724Y-68911304D01*
X161629330Y-68902497D01*
X161638917Y-68897036D01*
X161645653Y-68888296D01*
X161668741Y-68880049D01*
X161690043Y-68867917D01*
X161703378Y-68867678D01*
X161711452Y-68864795D01*
X161722403Y-68867338D01*
X161742761Y-68866974D01*
X161911304Y-68900499D01*
X161911307Y-68900500D01*
X161911309Y-68900500D01*
X162088693Y-68900500D01*
X162088694Y-68900499D01*
X162150044Y-68888296D01*
X162262658Y-68865896D01*
X162262661Y-68865894D01*
X162262666Y-68865894D01*
X162426547Y-68798013D01*
X162574035Y-68699464D01*
X162699464Y-68574035D01*
X162798013Y-68426547D01*
X162865894Y-68262666D01*
X162900500Y-68088691D01*
X162900500Y-67911309D01*
X162900500Y-67911306D01*
X162900499Y-67911304D01*
X162865896Y-67737341D01*
X162865893Y-67737332D01*
X162798016Y-67573459D01*
X162798009Y-67573446D01*
X162699464Y-67425965D01*
X162699461Y-67425961D01*
X162574038Y-67300538D01*
X162574034Y-67300535D01*
X162426553Y-67201990D01*
X162426540Y-67201983D01*
X162262667Y-67134106D01*
X162262658Y-67134103D01*
X162088694Y-67099500D01*
X162088691Y-67099500D01*
X161911309Y-67099500D01*
X161911306Y-67099500D01*
X161737341Y-67134103D01*
X161737332Y-67134106D01*
X161573459Y-67201983D01*
X161573446Y-67201990D01*
X161425966Y-67300534D01*
X161394643Y-67331857D01*
X161363318Y-67363182D01*
X161301998Y-67396666D01*
X161275639Y-67399500D01*
X159724361Y-67399500D01*
X159657322Y-67379815D01*
X159636684Y-67363185D01*
X159574035Y-67300536D01*
X159574034Y-67300535D01*
X159574033Y-67300534D01*
X159426553Y-67201990D01*
X159426540Y-67201983D01*
X159262667Y-67134106D01*
X159262658Y-67134103D01*
X159088694Y-67099500D01*
X159088691Y-67099500D01*
X158911309Y-67099500D01*
X158911304Y-67099500D01*
X158748691Y-67131846D01*
X158679100Y-67125619D01*
X158623922Y-67082756D01*
X158600678Y-67016866D01*
X158600500Y-67010229D01*
X158600500Y-66300097D01*
X158620185Y-66233058D01*
X158636819Y-66212416D01*
X159480517Y-65368719D01*
X159480517Y-65368718D01*
X159480520Y-65368716D01*
X159484155Y-65362418D01*
X159503859Y-65336738D01*
X159559506Y-65281092D01*
X159559511Y-65281088D01*
X159569714Y-65270884D01*
X159569716Y-65270884D01*
X159681520Y-65159080D01*
X159727721Y-65079057D01*
X159754723Y-65032288D01*
X159754724Y-65032285D01*
X159754726Y-65032282D01*
X159760577Y-65022149D01*
X159801501Y-64869421D01*
X159801501Y-64711307D01*
X159801501Y-64703712D01*
X159801500Y-64703694D01*
X159801500Y-64298694D01*
X159801500Y-64288696D01*
X159801501Y-64288694D01*
X159801501Y-64223358D01*
X159821186Y-64156319D01*
X159821191Y-64156314D01*
X159837815Y-64135683D01*
X159899464Y-64074035D01*
X159998013Y-63926547D01*
X160065894Y-63762666D01*
X160069619Y-63743942D01*
X160100499Y-63588695D01*
X160100500Y-63588693D01*
X160100500Y-63411306D01*
X160100499Y-63411304D01*
X160065896Y-63237341D01*
X160065893Y-63237332D01*
X159998016Y-63073459D01*
X159998009Y-63073446D01*
X159899464Y-62925965D01*
X159899461Y-62925961D01*
X159774038Y-62800538D01*
X159774034Y-62800535D01*
X159626553Y-62701990D01*
X159626540Y-62701983D01*
X159585569Y-62685013D01*
X159462667Y-62634106D01*
X159462658Y-62634103D01*
X159288694Y-62599500D01*
X159288691Y-62599500D01*
X159111309Y-62599500D01*
X159111306Y-62599500D01*
X158937341Y-62634103D01*
X158937332Y-62634106D01*
X158773459Y-62701983D01*
X158773446Y-62701990D01*
X158625965Y-62800535D01*
X158625961Y-62800538D01*
X158500538Y-62925961D01*
X158500535Y-62925965D01*
X158401990Y-63073446D01*
X158401983Y-63073459D01*
X158334106Y-63237332D01*
X158334103Y-63237341D01*
X158299500Y-63411304D01*
X158299500Y-63525501D01*
X158279815Y-63592540D01*
X158227011Y-63638295D01*
X158222953Y-63640062D01*
X158073455Y-63701985D01*
X158073446Y-63701990D01*
X157925965Y-63800535D01*
X157925961Y-63800538D01*
X157800538Y-63925961D01*
X157800535Y-63925965D01*
X157701990Y-64073446D01*
X157701983Y-64073459D01*
X157634106Y-64237332D01*
X157634103Y-64237341D01*
X157599500Y-64411304D01*
X157599500Y-64499902D01*
X157579815Y-64566941D01*
X157563181Y-64587583D01*
X157118481Y-65032282D01*
X157118479Y-65032284D01*
X157099499Y-65065160D01*
X157091476Y-65079057D01*
X157039423Y-65169215D01*
X156998499Y-65321943D01*
X156998499Y-65321945D01*
X156998499Y-65490046D01*
X156998500Y-65490059D01*
X156998500Y-67699901D01*
X156989854Y-67729343D01*
X156983331Y-67759330D01*
X156979577Y-67764344D01*
X156978815Y-67766940D01*
X156962180Y-67787584D01*
X156929432Y-67820331D01*
X156868108Y-67853815D01*
X156798417Y-67848829D01*
X156794342Y-67847226D01*
X156762666Y-67834106D01*
X156762659Y-67834104D01*
X156762658Y-67834104D01*
X156762658Y-67834103D01*
X156588694Y-67799500D01*
X156588691Y-67799500D01*
X156411309Y-67799500D01*
X156411306Y-67799500D01*
X156237341Y-67834103D01*
X156237332Y-67834106D01*
X156073459Y-67901983D01*
X156073446Y-67901990D01*
X155925965Y-68000535D01*
X155925961Y-68000538D01*
X155800538Y-68125961D01*
X155800535Y-68125965D01*
X155701990Y-68273446D01*
X155701983Y-68273459D01*
X155634106Y-68437332D01*
X155634103Y-68437341D01*
X155599500Y-68611304D01*
X147148038Y-68611304D01*
X147088694Y-68599500D01*
X147088691Y-68599500D01*
X146911309Y-68599500D01*
X146911306Y-68599500D01*
X146737341Y-68634103D01*
X146737332Y-68634106D01*
X146573459Y-68701983D01*
X146573446Y-68701990D01*
X146425965Y-68800535D01*
X146425961Y-68800538D01*
X146300538Y-68925961D01*
X146300535Y-68925965D01*
X146201990Y-69073446D01*
X146201983Y-69073459D01*
X146134106Y-69237332D01*
X146134103Y-69237341D01*
X146099500Y-69411304D01*
X141000500Y-69411304D01*
X141000500Y-62575324D01*
X182698214Y-62575324D01*
X182698214Y-62827247D01*
X182737624Y-63076071D01*
X182815474Y-63315669D01*
X182864203Y-63411304D01*
X182919352Y-63519540D01*
X182929846Y-63540134D01*
X183077915Y-63743935D01*
X183077919Y-63743940D01*
X183256059Y-63922080D01*
X183256064Y-63922084D01*
X183411167Y-64034772D01*
X183459869Y-64070156D01*
X183602898Y-64143033D01*
X183684330Y-64184525D01*
X183684332Y-64184525D01*
X183684335Y-64184527D01*
X183923929Y-64262376D01*
X184172752Y-64301786D01*
X184172753Y-64301786D01*
X184424675Y-64301786D01*
X184424676Y-64301786D01*
X184673499Y-64262376D01*
X184913093Y-64184527D01*
X185137559Y-64070156D01*
X185341370Y-63922079D01*
X185519507Y-63743942D01*
X185667584Y-63540131D01*
X185781955Y-63315665D01*
X185846092Y-63118269D01*
X185876339Y-63068910D01*
X192076378Y-56868872D01*
X196499500Y-56868872D01*
X196499500Y-57131127D01*
X196521472Y-57298009D01*
X196533730Y-57391116D01*
X196570606Y-57528739D01*
X196601602Y-57644418D01*
X196601605Y-57644428D01*
X196701953Y-57886690D01*
X196701958Y-57886700D01*
X196833075Y-58113803D01*
X196992718Y-58321851D01*
X196992726Y-58321860D01*
X197178140Y-58507274D01*
X197178148Y-58507281D01*
X197178149Y-58507282D01*
X197226554Y-58544424D01*
X197386196Y-58666924D01*
X197613299Y-58798041D01*
X197613309Y-58798046D01*
X197855571Y-58898394D01*
X197855581Y-58898398D01*
X198108884Y-58966270D01*
X198368880Y-59000500D01*
X198368887Y-59000500D01*
X198631113Y-59000500D01*
X198631120Y-59000500D01*
X198891116Y-58966270D01*
X199144419Y-58898398D01*
X199386697Y-58798043D01*
X199613803Y-58666924D01*
X199821851Y-58507282D01*
X199821855Y-58507277D01*
X199821860Y-58507274D01*
X200007274Y-58321860D01*
X200007277Y-58321855D01*
X200007282Y-58321851D01*
X200166924Y-58113803D01*
X200298043Y-57886697D01*
X200398398Y-57644419D01*
X200466270Y-57391116D01*
X200500500Y-57131120D01*
X200500500Y-56868880D01*
X200466270Y-56608884D01*
X200398398Y-56355581D01*
X200372544Y-56293163D01*
X200298046Y-56113309D01*
X200298041Y-56113299D01*
X200166924Y-55886196D01*
X200025574Y-55701987D01*
X200007282Y-55678149D01*
X200007281Y-55678148D01*
X200007274Y-55678140D01*
X199821860Y-55492726D01*
X199821851Y-55492718D01*
X199613803Y-55333075D01*
X199386700Y-55201958D01*
X199386690Y-55201953D01*
X199144428Y-55101605D01*
X199144421Y-55101603D01*
X199144419Y-55101602D01*
X198891116Y-55033730D01*
X198833339Y-55026123D01*
X198631127Y-54999500D01*
X198631120Y-54999500D01*
X198368880Y-54999500D01*
X198368872Y-54999500D01*
X198137772Y-55029926D01*
X198108884Y-55033730D01*
X197903766Y-55088691D01*
X197855581Y-55101602D01*
X197855571Y-55101605D01*
X197613309Y-55201953D01*
X197613299Y-55201958D01*
X197386196Y-55333075D01*
X197178148Y-55492718D01*
X196992718Y-55678148D01*
X196833075Y-55886196D01*
X196701958Y-56113299D01*
X196701953Y-56113309D01*
X196601605Y-56355571D01*
X196601602Y-56355581D01*
X196573703Y-56459704D01*
X196533730Y-56608885D01*
X196499500Y-56868872D01*
X192076378Y-56868872D01*
X196833432Y-52111819D01*
X196894755Y-52078334D01*
X196921113Y-52075500D01*
X197709046Y-52075500D01*
X197776085Y-52095185D01*
X197785157Y-52102495D01*
X197785355Y-52102232D01*
X197907664Y-52193793D01*
X197907671Y-52193797D01*
X198042517Y-52244091D01*
X198042516Y-52244091D01*
X198049444Y-52244835D01*
X198102127Y-52250500D01*
X200297872Y-52250499D01*
X200357483Y-52244091D01*
X200492331Y-52193796D01*
X200607546Y-52107546D01*
X200693796Y-51992331D01*
X200744091Y-51857483D01*
X200750500Y-51797873D01*
X200750499Y-49602128D01*
X200744091Y-49542517D01*
X200712513Y-49457853D01*
X200693797Y-49407671D01*
X200693793Y-49407664D01*
X200607547Y-49292455D01*
X200607544Y-49292452D01*
X200492335Y-49206206D01*
X200492328Y-49206202D01*
X200357482Y-49155908D01*
X200357483Y-49155908D01*
X200297883Y-49149501D01*
X200297881Y-49149500D01*
X200297873Y-49149500D01*
X200297864Y-49149500D01*
X198102129Y-49149500D01*
X198102123Y-49149501D01*
X198042516Y-49155908D01*
X197907671Y-49206202D01*
X197907664Y-49206206D01*
X197785355Y-49297768D01*
X197783560Y-49295370D01*
X197735404Y-49321666D01*
X197709046Y-49324500D01*
X196191746Y-49324500D01*
X196120465Y-49335790D01*
X195977901Y-49358370D01*
X195771993Y-49425272D01*
X195771990Y-49425273D01*
X195579080Y-49523567D01*
X195491150Y-49587453D01*
X195491149Y-49587454D01*
X195403920Y-49650828D01*
X183931090Y-61123657D01*
X183881728Y-61153907D01*
X183684330Y-61218046D01*
X183459865Y-61332418D01*
X183256064Y-61480487D01*
X183256059Y-61480491D01*
X183077919Y-61658631D01*
X183077915Y-61658636D01*
X182929846Y-61862437D01*
X182815474Y-62086902D01*
X182737624Y-62326500D01*
X182698214Y-62575324D01*
X141000500Y-62575324D01*
X141000500Y-56411304D01*
X171599500Y-56411304D01*
X171599500Y-56588695D01*
X171634103Y-56762658D01*
X171634106Y-56762667D01*
X171701983Y-56926540D01*
X171701990Y-56926553D01*
X171800535Y-57074034D01*
X171800538Y-57074038D01*
X171925961Y-57199461D01*
X171925965Y-57199464D01*
X172073446Y-57298009D01*
X172073459Y-57298016D01*
X172123606Y-57318787D01*
X172237334Y-57365894D01*
X172237336Y-57365894D01*
X172237341Y-57365896D01*
X172411304Y-57400499D01*
X172411307Y-57400500D01*
X172411309Y-57400500D01*
X172588693Y-57400500D01*
X172588694Y-57400499D01*
X172646682Y-57388964D01*
X172762658Y-57365896D01*
X172762661Y-57365894D01*
X172762666Y-57365894D01*
X172926547Y-57298013D01*
X173074035Y-57199464D01*
X173167286Y-57106213D01*
X177499500Y-57106213D01*
X177499500Y-57318787D01*
X177532754Y-57528743D01*
X177570339Y-57644418D01*
X177598444Y-57730914D01*
X177694951Y-57920320D01*
X177819890Y-58092286D01*
X177970213Y-58242609D01*
X178142179Y-58367548D01*
X178142181Y-58367549D01*
X178142184Y-58367551D01*
X178331588Y-58464057D01*
X178533757Y-58529746D01*
X178743713Y-58563000D01*
X178743714Y-58563000D01*
X179256286Y-58563000D01*
X179256287Y-58563000D01*
X179466243Y-58529746D01*
X179668412Y-58464057D01*
X179857816Y-58367551D01*
X179920717Y-58321851D01*
X180029786Y-58242609D01*
X180029788Y-58242606D01*
X180029792Y-58242604D01*
X180180104Y-58092292D01*
X180180106Y-58092288D01*
X180180109Y-58092286D01*
X180305048Y-57920320D01*
X180305047Y-57920320D01*
X180305051Y-57920316D01*
X180401557Y-57730912D01*
X180467246Y-57528743D01*
X180500500Y-57318787D01*
X180500500Y-57106213D01*
X180467246Y-56896257D01*
X180401557Y-56694088D01*
X180334501Y-56562483D01*
X182499500Y-56562483D01*
X182499500Y-57862501D01*
X182499501Y-57862518D01*
X182510000Y-57965296D01*
X182510001Y-57965299D01*
X182552081Y-58092286D01*
X182565186Y-58131834D01*
X182657288Y-58281156D01*
X182781344Y-58405212D01*
X182930666Y-58497314D01*
X183097203Y-58552499D01*
X183199991Y-58563000D01*
X184800008Y-58562999D01*
X184902797Y-58552499D01*
X185069334Y-58497314D01*
X185218656Y-58405212D01*
X185342712Y-58281156D01*
X185434814Y-58131834D01*
X185489999Y-57965297D01*
X185500500Y-57862509D01*
X185500499Y-56562492D01*
X185489999Y-56459703D01*
X185434814Y-56293166D01*
X185342712Y-56143844D01*
X185218656Y-56019788D01*
X185069334Y-55927686D01*
X184902797Y-55872501D01*
X184902795Y-55872500D01*
X184800010Y-55862000D01*
X183199998Y-55862000D01*
X183199981Y-55862001D01*
X183097203Y-55872500D01*
X183097200Y-55872501D01*
X182930668Y-55927685D01*
X182930663Y-55927687D01*
X182781342Y-56019789D01*
X182657289Y-56143842D01*
X182565187Y-56293163D01*
X182565186Y-56293166D01*
X182510001Y-56459703D01*
X182510001Y-56459704D01*
X182510000Y-56459704D01*
X182499500Y-56562483D01*
X180334501Y-56562483D01*
X180305051Y-56504684D01*
X180305049Y-56504681D01*
X180305048Y-56504679D01*
X180180109Y-56332713D01*
X180029786Y-56182390D01*
X179857820Y-56057451D01*
X179668414Y-55960944D01*
X179668413Y-55960943D01*
X179668412Y-55960943D01*
X179466243Y-55895254D01*
X179466241Y-55895253D01*
X179466240Y-55895253D01*
X179280885Y-55865896D01*
X179256287Y-55862000D01*
X178743713Y-55862000D01*
X178719115Y-55865896D01*
X178533760Y-55895253D01*
X178331585Y-55960944D01*
X178142179Y-56057451D01*
X177970213Y-56182390D01*
X177819890Y-56332713D01*
X177694951Y-56504679D01*
X177598444Y-56694085D01*
X177532753Y-56896260D01*
X177504596Y-57074038D01*
X177499500Y-57106213D01*
X173167286Y-57106213D01*
X173199464Y-57074035D01*
X173214073Y-57052170D01*
X173227251Y-57032450D01*
X173298009Y-56926553D01*
X173298009Y-56926552D01*
X173298013Y-56926547D01*
X173365894Y-56762666D01*
X173400500Y-56588691D01*
X173400500Y-56500097D01*
X173420185Y-56433058D01*
X173436819Y-56412416D01*
X174212416Y-55636819D01*
X174239343Y-55622115D01*
X174265162Y-55605523D01*
X174271362Y-55604631D01*
X174273739Y-55603334D01*
X174300097Y-55600500D01*
X174413331Y-55600500D01*
X174413347Y-55600501D01*
X174420943Y-55600501D01*
X174579054Y-55600501D01*
X174579057Y-55600501D01*
X174731785Y-55559577D01*
X174781904Y-55530639D01*
X174868716Y-55480520D01*
X174980520Y-55368716D01*
X174980520Y-55368714D01*
X174990728Y-55358507D01*
X174990730Y-55358504D01*
X179387819Y-50961415D01*
X179449142Y-50927930D01*
X179518834Y-50932914D01*
X179574767Y-50974786D01*
X179599184Y-51040250D01*
X179599500Y-51049096D01*
X179599500Y-51110221D01*
X179633985Y-51327952D01*
X179702103Y-51537603D01*
X179702104Y-51537606D01*
X179802187Y-51734025D01*
X179931752Y-51912358D01*
X179931756Y-51912363D01*
X180087636Y-52068243D01*
X180087641Y-52068247D01*
X180243192Y-52181260D01*
X180265978Y-52197815D01*
X180356799Y-52244091D01*
X180462393Y-52297895D01*
X180462396Y-52297896D01*
X180567221Y-52331955D01*
X180672049Y-52366015D01*
X180889778Y-52400500D01*
X180889779Y-52400500D01*
X181110221Y-52400500D01*
X181110222Y-52400500D01*
X181327951Y-52366015D01*
X181537606Y-52297895D01*
X181734022Y-52197815D01*
X181912365Y-52068242D01*
X182068242Y-51912365D01*
X182197815Y-51734022D01*
X182297895Y-51537606D01*
X182366015Y-51327951D01*
X182400500Y-51110222D01*
X182400500Y-50889778D01*
X182366015Y-50672049D01*
X182297895Y-50462394D01*
X182297895Y-50462393D01*
X182232487Y-50334025D01*
X182197815Y-50265978D01*
X182134003Y-50178148D01*
X182068247Y-50087641D01*
X182068243Y-50087636D01*
X181912363Y-49931756D01*
X181912358Y-49931752D01*
X181734025Y-49802187D01*
X181734024Y-49802186D01*
X181734022Y-49802185D01*
X181671096Y-49770122D01*
X181537606Y-49702104D01*
X181537603Y-49702103D01*
X181327952Y-49633985D01*
X181219086Y-49616742D01*
X181110222Y-49599500D01*
X181049096Y-49599500D01*
X180982057Y-49579815D01*
X180936302Y-49527011D01*
X180926358Y-49457853D01*
X180955383Y-49394297D01*
X180961415Y-49387819D01*
X183912416Y-46436819D01*
X183973739Y-46403334D01*
X184000097Y-46400500D01*
X184088693Y-46400500D01*
X184088694Y-46400499D01*
X184146682Y-46388964D01*
X184262658Y-46365896D01*
X184262661Y-46365894D01*
X184262666Y-46365894D01*
X184426547Y-46298013D01*
X184574035Y-46199464D01*
X184699464Y-46074035D01*
X184798013Y-45926547D01*
X184865894Y-45762666D01*
X184900500Y-45588691D01*
X184900500Y-45577973D01*
X197649500Y-45577973D01*
X197649500Y-45822026D01*
X197666055Y-45926553D01*
X197687679Y-46063076D01*
X197763096Y-46295185D01*
X197818200Y-46403334D01*
X197873896Y-46512642D01*
X198017339Y-46710076D01*
X198017343Y-46710081D01*
X198189918Y-46882656D01*
X198189923Y-46882660D01*
X198362136Y-47007779D01*
X198387361Y-47026106D01*
X198604815Y-47136904D01*
X198836924Y-47212321D01*
X199077973Y-47250500D01*
X199077974Y-47250500D01*
X199322026Y-47250500D01*
X199322027Y-47250500D01*
X199563076Y-47212321D01*
X199795185Y-47136904D01*
X200012639Y-47026106D01*
X200210083Y-46882655D01*
X200382655Y-46710083D01*
X200526106Y-46512639D01*
X200636904Y-46295185D01*
X200712321Y-46063076D01*
X200750500Y-45822027D01*
X200750500Y-45577973D01*
X200712321Y-45336924D01*
X200636904Y-45104815D01*
X200526106Y-44887361D01*
X200463024Y-44800536D01*
X200382660Y-44689923D01*
X200382656Y-44689918D01*
X200210081Y-44517343D01*
X200210076Y-44517339D01*
X200012642Y-44373896D01*
X200012641Y-44373895D01*
X200012639Y-44373894D01*
X199795185Y-44263096D01*
X199563076Y-44187679D01*
X199563074Y-44187678D01*
X199563072Y-44187678D01*
X199394769Y-44161021D01*
X199322027Y-44149500D01*
X199077973Y-44149500D01*
X199022093Y-44158350D01*
X198836927Y-44187678D01*
X198604812Y-44263097D01*
X198387357Y-44373896D01*
X198189923Y-44517339D01*
X198189918Y-44517343D01*
X198017343Y-44689918D01*
X198017339Y-44689923D01*
X197873896Y-44887357D01*
X197763097Y-45104812D01*
X197687678Y-45336927D01*
X197649500Y-45577973D01*
X184900500Y-45577973D01*
X184900500Y-45411309D01*
X184900500Y-45411306D01*
X184900499Y-45411304D01*
X184865896Y-45237341D01*
X184865893Y-45237332D01*
X184798016Y-45073459D01*
X184798009Y-45073446D01*
X184699464Y-44925965D01*
X184699461Y-44925961D01*
X184574038Y-44800538D01*
X184574034Y-44800535D01*
X184426553Y-44701990D01*
X184426540Y-44701983D01*
X184262667Y-44634106D01*
X184262658Y-44634103D01*
X184088694Y-44599500D01*
X184088691Y-44599500D01*
X183911309Y-44599500D01*
X183911306Y-44599500D01*
X183737341Y-44634103D01*
X183737332Y-44634106D01*
X183573459Y-44701983D01*
X183573446Y-44701990D01*
X183425965Y-44800535D01*
X183425961Y-44800538D01*
X183300538Y-44925961D01*
X183300535Y-44925965D01*
X183201990Y-45073446D01*
X183201983Y-45073459D01*
X183134106Y-45237332D01*
X183134103Y-45237341D01*
X183099500Y-45411304D01*
X183099500Y-45499903D01*
X183079815Y-45566942D01*
X183063181Y-45587584D01*
X174287584Y-54363181D01*
X174226261Y-54396666D01*
X174199903Y-54399500D01*
X173920940Y-54399500D01*
X173880019Y-54410464D01*
X173880019Y-54410465D01*
X173842751Y-54420451D01*
X173768214Y-54440423D01*
X173768209Y-54440426D01*
X173631290Y-54519475D01*
X173631282Y-54519481D01*
X173529821Y-54620943D01*
X173519480Y-54631284D01*
X173519478Y-54631286D01*
X173049160Y-55101605D01*
X172587584Y-55563181D01*
X172526261Y-55596666D01*
X172499903Y-55599500D01*
X172411306Y-55599500D01*
X172237341Y-55634103D01*
X172237332Y-55634106D01*
X172073459Y-55701983D01*
X172073446Y-55701990D01*
X171925965Y-55800535D01*
X171925961Y-55800538D01*
X171800538Y-55925961D01*
X171800535Y-55925965D01*
X171701990Y-56073446D01*
X171701983Y-56073459D01*
X171634106Y-56237332D01*
X171634103Y-56237341D01*
X171599500Y-56411304D01*
X141000500Y-56411304D01*
X141000500Y-53911304D01*
X157599500Y-53911304D01*
X157599500Y-54088695D01*
X157634103Y-54262658D01*
X157634106Y-54262667D01*
X157701983Y-54426540D01*
X157701990Y-54426553D01*
X157800535Y-54574034D01*
X157800538Y-54574038D01*
X157925961Y-54699461D01*
X157925965Y-54699464D01*
X158073446Y-54798009D01*
X158073453Y-54798013D01*
X158222954Y-54859937D01*
X158277355Y-54903776D01*
X158299421Y-54970070D01*
X158299500Y-54974497D01*
X158299500Y-55088695D01*
X158334103Y-55262658D01*
X158334106Y-55262667D01*
X158401983Y-55426540D01*
X158401990Y-55426553D01*
X158500535Y-55574034D01*
X158500538Y-55574038D01*
X158625961Y-55699461D01*
X158625965Y-55699464D01*
X158773446Y-55798009D01*
X158773459Y-55798016D01*
X158896363Y-55848923D01*
X158937334Y-55865894D01*
X158937336Y-55865894D01*
X158937341Y-55865896D01*
X159111304Y-55900499D01*
X159111307Y-55900500D01*
X159111309Y-55900500D01*
X159288693Y-55900500D01*
X159288694Y-55900499D01*
X159360602Y-55886196D01*
X159462658Y-55865896D01*
X159462661Y-55865894D01*
X159462666Y-55865894D01*
X159626547Y-55798013D01*
X159774035Y-55699464D01*
X159899464Y-55574035D01*
X159998013Y-55426547D01*
X160065894Y-55262666D01*
X160100500Y-55088691D01*
X160100500Y-54911309D01*
X160091042Y-54863762D01*
X160092885Y-54807474D01*
X160100500Y-54779057D01*
X160100500Y-54620943D01*
X160100500Y-53224361D01*
X160120185Y-53157322D01*
X160136814Y-53136684D01*
X160199464Y-53074035D01*
X160298013Y-52926547D01*
X160365894Y-52762666D01*
X160400500Y-52588691D01*
X160400500Y-52411309D01*
X160400500Y-52411306D01*
X160400499Y-52411304D01*
X160365896Y-52237341D01*
X160365893Y-52237332D01*
X160298016Y-52073459D01*
X160298009Y-52073446D01*
X160199464Y-51925965D01*
X160199461Y-51925961D01*
X160074038Y-51800538D01*
X160074034Y-51800535D01*
X159926553Y-51701990D01*
X159926540Y-51701983D01*
X159821321Y-51658401D01*
X159810958Y-51650050D01*
X159798320Y-51645881D01*
X159784282Y-51628554D01*
X159766917Y-51614561D01*
X159762713Y-51601932D01*
X159754337Y-51591593D01*
X159751895Y-51569427D01*
X159744852Y-51548266D01*
X159747973Y-51533827D01*
X159746686Y-51522144D01*
X159754927Y-51501656D01*
X159757744Y-51488627D01*
X159761270Y-51481536D01*
X159798013Y-51426547D01*
X159821903Y-51368872D01*
X164999500Y-51368872D01*
X164999500Y-51631127D01*
X165021805Y-51800538D01*
X165033730Y-51891116D01*
X165092867Y-52111819D01*
X165101602Y-52144418D01*
X165101605Y-52144428D01*
X165201953Y-52386690D01*
X165201958Y-52386700D01*
X165333075Y-52613803D01*
X165492718Y-52821851D01*
X165492726Y-52821860D01*
X165678140Y-53007274D01*
X165678148Y-53007281D01*
X165886196Y-53166924D01*
X166113299Y-53298041D01*
X166113309Y-53298046D01*
X166355571Y-53398394D01*
X166355581Y-53398398D01*
X166608884Y-53466270D01*
X166868880Y-53500500D01*
X166868887Y-53500500D01*
X167131113Y-53500500D01*
X167131120Y-53500500D01*
X167391116Y-53466270D01*
X167644419Y-53398398D01*
X167886697Y-53298043D01*
X168113803Y-53166924D01*
X168321851Y-53007282D01*
X168321855Y-53007277D01*
X168321860Y-53007274D01*
X168507274Y-52821860D01*
X168507277Y-52821855D01*
X168507282Y-52821851D01*
X168666924Y-52613803D01*
X168798043Y-52386697D01*
X168898398Y-52144419D01*
X168966270Y-51891116D01*
X169000500Y-51631120D01*
X169000500Y-51368880D01*
X168966270Y-51108884D01*
X168898398Y-50855581D01*
X168898394Y-50855571D01*
X168798046Y-50613309D01*
X168798041Y-50613299D01*
X168666924Y-50386196D01*
X168525574Y-50201987D01*
X168507282Y-50178149D01*
X168507281Y-50178148D01*
X168507274Y-50178140D01*
X168321860Y-49992726D01*
X168321851Y-49992718D01*
X168113803Y-49833075D01*
X167886700Y-49701958D01*
X167886690Y-49701953D01*
X167644423Y-49601603D01*
X167614497Y-49593584D01*
X167391116Y-49533730D01*
X167333339Y-49526123D01*
X167131127Y-49499500D01*
X167131120Y-49499500D01*
X166868880Y-49499500D01*
X166868872Y-49499500D01*
X166637772Y-49529926D01*
X166608884Y-49533730D01*
X166363426Y-49599500D01*
X166355581Y-49601602D01*
X166355571Y-49601605D01*
X166113309Y-49701953D01*
X166113299Y-49701958D01*
X165886196Y-49833075D01*
X165678148Y-49992718D01*
X165492718Y-50178148D01*
X165333075Y-50386196D01*
X165201958Y-50613299D01*
X165201953Y-50613309D01*
X165101605Y-50855571D01*
X165101602Y-50855581D01*
X165052121Y-51040250D01*
X165033730Y-51108885D01*
X164999500Y-51368872D01*
X159821903Y-51368872D01*
X159865894Y-51262666D01*
X159875219Y-51215790D01*
X159900499Y-51088695D01*
X159900500Y-51088693D01*
X159900500Y-50911306D01*
X159900499Y-50911304D01*
X159865896Y-50737341D01*
X159865893Y-50737332D01*
X159798016Y-50573459D01*
X159798009Y-50573446D01*
X159699464Y-50425965D01*
X159699461Y-50425961D01*
X159574038Y-50300538D01*
X159574034Y-50300535D01*
X159426553Y-50201990D01*
X159426540Y-50201983D01*
X159262667Y-50134106D01*
X159262658Y-50134103D01*
X159088694Y-50099500D01*
X159088691Y-50099500D01*
X158911309Y-50099500D01*
X158911306Y-50099500D01*
X158737341Y-50134103D01*
X158737332Y-50134106D01*
X158573459Y-50201983D01*
X158573446Y-50201990D01*
X158425965Y-50300535D01*
X158425961Y-50300538D01*
X158300538Y-50425961D01*
X158300535Y-50425965D01*
X158201990Y-50573446D01*
X158201983Y-50573459D01*
X158134106Y-50737332D01*
X158134103Y-50737341D01*
X158099500Y-50911304D01*
X158099500Y-50999902D01*
X158079815Y-51066941D01*
X158075407Y-51073350D01*
X158069835Y-51080928D01*
X158019480Y-51131284D01*
X157974115Y-51209860D01*
X157970695Y-51215782D01*
X157970690Y-51215790D01*
X157943631Y-51262658D01*
X157940423Y-51268215D01*
X157899499Y-51420943D01*
X157899499Y-51420945D01*
X157899499Y-51589046D01*
X157899500Y-51589059D01*
X157899500Y-53275638D01*
X157879815Y-53342677D01*
X157863181Y-53363319D01*
X157800538Y-53425961D01*
X157800535Y-53425965D01*
X157701990Y-53573446D01*
X157701983Y-53573459D01*
X157634106Y-53737332D01*
X157634103Y-53737341D01*
X157599500Y-53911304D01*
X141000500Y-53911304D01*
X141000500Y-49489778D01*
X172099500Y-49489778D01*
X172099500Y-49710221D01*
X172133985Y-49927952D01*
X172202103Y-50137603D01*
X172202104Y-50137606D01*
X172267512Y-50265974D01*
X172285122Y-50300535D01*
X172302187Y-50334025D01*
X172431752Y-50512358D01*
X172431756Y-50512363D01*
X172587636Y-50668243D01*
X172587641Y-50668247D01*
X172682742Y-50737341D01*
X172765978Y-50797815D01*
X172879349Y-50855581D01*
X172962393Y-50897895D01*
X172962396Y-50897896D01*
X173054834Y-50927930D01*
X173172049Y-50966015D01*
X173389778Y-51000500D01*
X173389779Y-51000500D01*
X173610221Y-51000500D01*
X173610222Y-51000500D01*
X173827951Y-50966015D01*
X174037606Y-50897895D01*
X174234022Y-50797815D01*
X174412365Y-50668242D01*
X174568242Y-50512365D01*
X174697815Y-50334022D01*
X174797895Y-50137606D01*
X174866015Y-49927951D01*
X174900500Y-49710222D01*
X174900500Y-49489778D01*
X174866015Y-49272049D01*
X174797895Y-49062394D01*
X174797895Y-49062393D01*
X174763237Y-48994375D01*
X174697815Y-48865978D01*
X174681260Y-48843192D01*
X174568247Y-48687641D01*
X174568243Y-48687636D01*
X174412363Y-48531756D01*
X174412358Y-48531752D01*
X174234025Y-48402187D01*
X174234024Y-48402186D01*
X174234022Y-48402185D01*
X174171096Y-48370122D01*
X174037606Y-48302104D01*
X174037603Y-48302103D01*
X173827952Y-48233985D01*
X173719086Y-48216742D01*
X173610222Y-48199500D01*
X173389778Y-48199500D01*
X173317201Y-48210995D01*
X173172047Y-48233985D01*
X172962396Y-48302103D01*
X172962393Y-48302104D01*
X172765974Y-48402187D01*
X172587641Y-48531752D01*
X172587636Y-48531756D01*
X172431756Y-48687636D01*
X172431752Y-48687641D01*
X172302187Y-48865974D01*
X172202104Y-49062393D01*
X172202103Y-49062396D01*
X172133985Y-49272047D01*
X172099500Y-49489778D01*
X141000500Y-49489778D01*
X141000500Y-47704000D01*
X141020185Y-47636961D01*
X141072989Y-47591206D01*
X141124500Y-47580000D01*
X177600000Y-47580000D01*
X177600000Y-42124500D01*
X177619685Y-42057461D01*
X177672489Y-42011706D01*
X177724000Y-42000500D01*
X203375500Y-42000500D01*
X203442539Y-42020185D01*
G37*
%TD.AperFunction*%
%TD*%
M02*
