%TF.GenerationSoftware,KiCad,Pcbnew,9.0.7*%
%TF.CreationDate,2026-03-15T14:15:07+02:00*%
%TF.ProjectId,esp32_light_switch,65737033-325f-46c6-9967-68745f737769,rev?*%
%TF.SameCoordinates,Original*%
%TF.FileFunction,Paste,Top*%
%TF.FilePolarity,Positive*%
%FSLAX46Y46*%
G04 Gerber Fmt 4.6, Leading zero omitted, Abs format (unit mm)*
G04 Created by KiCad (PCBNEW 9.0.7) date 2026-03-15 14:15:07*
%MOMM*%
%LPD*%
G01*
G04 APERTURE LIST*
G04 Aperture macros list*
%AMRoundRect*
0 Rectangle with rounded corners*
0 $1 Rounding radius*
0 $2 $3 $4 $5 $6 $7 $8 $9 X,Y pos of 4 corners*
0 Add a 4 corners polygon primitive as box body*
4,1,4,$2,$3,$4,$5,$6,$7,$8,$9,$2,$3,0*
0 Add four circle primitives for the rounded corners*
1,1,$1+$1,$2,$3*
1,1,$1+$1,$4,$5*
1,1,$1+$1,$6,$7*
1,1,$1+$1,$8,$9*
0 Add four rect primitives between the rounded corners*
20,1,$1+$1,$2,$3,$4,$5,0*
20,1,$1+$1,$4,$5,$6,$7,0*
20,1,$1+$1,$6,$7,$8,$9,0*
20,1,$1+$1,$8,$9,$2,$3,0*%
G04 Aperture macros list end*
%ADD10RoundRect,0.250000X-0.337500X-0.475000X0.337500X-0.475000X0.337500X0.475000X-0.337500X0.475000X0*%
%ADD11RoundRect,0.250000X-0.350000X-0.450000X0.350000X-0.450000X0.350000X0.450000X-0.350000X0.450000X0*%
%ADD12RoundRect,0.250000X-0.550000X0.550000X-0.550000X-0.550000X0.550000X-0.550000X0.550000X0.550000X0*%
%ADD13RoundRect,0.150000X0.512500X0.150000X-0.512500X0.150000X-0.512500X-0.150000X0.512500X-0.150000X0*%
%ADD14RoundRect,0.250000X0.337500X0.475000X-0.337500X0.475000X-0.337500X-0.475000X0.337500X-0.475000X0*%
%ADD15RoundRect,0.250000X0.350000X0.450000X-0.350000X0.450000X-0.350000X-0.450000X0.350000X-0.450000X0*%
%ADD16R,1.500000X0.900000*%
%ADD17R,0.900000X1.500000*%
%ADD18R,0.900000X0.900000*%
%ADD19RoundRect,0.250000X-0.450000X0.350000X-0.450000X-0.350000X0.450000X-0.350000X0.450000X0.350000X0*%
%ADD20RoundRect,0.250000X-0.475000X0.337500X-0.475000X-0.337500X0.475000X-0.337500X0.475000X0.337500X0*%
%ADD21RoundRect,0.250001X0.944999X-0.872499X0.944999X0.872499X-0.944999X0.872499X-0.944999X-0.872499X0*%
%ADD22RoundRect,0.090000X-0.360000X0.660000X-0.360000X-0.660000X0.360000X-0.660000X0.360000X0.660000X0*%
G04 APERTURE END LIST*
D10*
%TO.C,C6*%
X148462500Y-69500000D03*
X150537500Y-69500000D03*
%TD*%
D11*
%TO.C,R6*%
X142762500Y-90000000D03*
X144762500Y-90000000D03*
%TD*%
D10*
%TO.C,C9*%
X147697009Y-85076767D03*
X149772009Y-85076767D03*
%TD*%
%TO.C,C4*%
X151725000Y-82500000D03*
X153800000Y-82500000D03*
%TD*%
D12*
%TO.C,U2*%
X191270000Y-43190000D03*
X188730000Y-43190000D03*
X188730000Y-50810000D03*
X191270000Y-50810000D03*
%TD*%
D13*
%TO.C,U3*%
X162400000Y-79885000D03*
X162400000Y-78935000D03*
X162400000Y-77985000D03*
X160125000Y-77985000D03*
X160125000Y-79885000D03*
%TD*%
D14*
%TO.C,C8*%
X157800000Y-82500000D03*
X155725000Y-82500000D03*
%TD*%
D11*
%TO.C,R2*%
X143500000Y-69500000D03*
X145500000Y-69500000D03*
%TD*%
D15*
%TO.C,R1*%
X149762500Y-82500000D03*
X147762500Y-82500000D03*
%TD*%
D11*
%TO.C,R4*%
X184000000Y-43000000D03*
X186000000Y-43000000D03*
%TD*%
D15*
%TO.C,R3*%
X157762500Y-85000000D03*
X155762500Y-85000000D03*
%TD*%
D16*
%TO.C,U1*%
X144850000Y-48880000D03*
X144850000Y-50150000D03*
X144850000Y-51420000D03*
X144850000Y-52690000D03*
X144850000Y-53960000D03*
X144850000Y-55230000D03*
X144850000Y-56500000D03*
X144850000Y-57770000D03*
X144850000Y-59040000D03*
X144850000Y-60310000D03*
X144850000Y-61580000D03*
X144850000Y-62850000D03*
X144850000Y-64120000D03*
X144850000Y-65390000D03*
D17*
X147890000Y-66640000D03*
X149160000Y-66640000D03*
X150430000Y-66640000D03*
X151700000Y-66640000D03*
X152970000Y-66640000D03*
X154240000Y-66640000D03*
X155510000Y-66640000D03*
X156780000Y-66640000D03*
X158050000Y-66640000D03*
X159320000Y-66640000D03*
D16*
X162350000Y-65390000D03*
X162350000Y-64120000D03*
X162350000Y-62850000D03*
X162350000Y-61580000D03*
X162350000Y-60310000D03*
X162350000Y-59040000D03*
X162350000Y-57770000D03*
X162350000Y-56500000D03*
X162350000Y-55230000D03*
X162350000Y-53960000D03*
X162350000Y-52690000D03*
X162350000Y-51420000D03*
X162350000Y-50150000D03*
X162350000Y-48880000D03*
D18*
X150700000Y-55200000D03*
X150700000Y-56600000D03*
X150700000Y-58000000D03*
X152100000Y-55200000D03*
X152100000Y-56600000D03*
X152100000Y-58000000D03*
X153500000Y-55200000D03*
X153500000Y-56600000D03*
X153500000Y-58000000D03*
%TD*%
D19*
%TO.C,R5*%
X185500000Y-49500000D03*
X185500000Y-51500000D03*
%TD*%
D20*
%TO.C,C1*%
X142000000Y-49500000D03*
X142000000Y-51575000D03*
%TD*%
D21*
%TO.C,C5*%
X161762500Y-88557500D03*
X161762500Y-83442500D03*
%TD*%
D20*
%TO.C,C2*%
X142000000Y-53962500D03*
X142000000Y-56037500D03*
%TD*%
D22*
%TO.C,D1*%
X145262500Y-82500000D03*
X141962500Y-82500000D03*
X141962500Y-87400000D03*
X145262500Y-87400000D03*
%TD*%
M02*
