M48
; DRILL file {KiCad 9.0.7} date 2026-03-15T14:15:03+0200
; FORMAT={-:-/ absolute / metric / decimal}
; #@! TF.CreationDate,2026-03-15T14:15:03+02:00
; #@! TF.GenerationSoftware,Kicad,Pcbnew,9.0.7
; #@! TF.FileFunction,Plated,1,2,PTH
FMAT,2
METRIC
; #@! TA.AperFunction,Plated,PTH,ViaDrill
T1C0.300
; #@! TA.AperFunction,Plated,PTH,ComponentDrill
T2C0.300
; #@! TA.AperFunction,Plated,PTH,ComponentDrill
T3C0.800
; #@! TA.AperFunction,Plated,PTH,ComponentDrill
T4C1.000
; #@! TA.AperFunction,Plated,PTH,ComponentDrill
T5C1.100
; #@! TA.AperFunction,Plated,PTH,ViaDrill
T6C1.250
; #@! TA.AperFunction,Plated,PTH,ComponentDrill
T7C1.300
; #@! TA.AperFunction,Plated,PTH,ComponentDrill
T8C1.400
%
G90
G05
T1
X142.0Y-85.5
X143.0Y-48.5
X143.0Y-57.5
X146.5Y-49.0
X147.0Y-69.5
X147.501Y-71.001
X148.5Y-65.0
X149.842Y-83.8
X150.29Y-79.29
X150.338Y-86.5
X150.5Y-72.0
X151.48Y-85.075
X151.529Y-72.757
X151.732Y-78.477
X152.0Y-69.5
X152.126Y-71.374
X152.5Y-81.5
X153.0Y-86.5
X154.0Y-70.8
X154.0Y-86.0
X154.584Y-83.922
X156.5Y-68.7
X157.5Y-86.5
X157.551Y-69.038
X158.5Y-54.0
X158.5Y-64.5
X159.0Y-51.0
X159.0Y-68.0
X159.0Y-83.0
X159.2Y-55.0
X159.2Y-63.5
X159.3Y-69.0
X159.5Y-52.5
X160.5Y-49.5
X160.731Y-68.7
X162.0Y-68.0
X162.0Y-77.0
X163.0Y-90.5
X172.5Y-56.5
X184.0Y-45.5
X189.902Y-42.4
X191.5Y-69.0
X191.554Y-63.946
T2
X150.7Y-55.9
X150.7Y-57.3
X151.4Y-55.2
X151.4Y-56.6
X151.4Y-58.0
X152.075Y-55.9
X152.075Y-57.3
X152.8Y-55.2
X152.8Y-56.6
X152.8Y-58.0
X153.5Y-55.9
X153.5Y-57.3
T3
X161.762Y-70.5
X161.762Y-75.5
X173.5Y-49.6
X181.0Y-51.0
T4
X144.262Y-73.25
X144.262Y-79.75
X148.498Y-88.5
X148.762Y-73.25
X148.762Y-79.75
X151.037Y-88.5
X153.012Y-73.25
X153.012Y-79.75
X155.262Y-88.5
X157.512Y-73.25
X157.512Y-79.75
X157.802Y-88.5
X174.0Y-86.292
X179.0Y-57.212
X184.0Y-57.212
X189.0Y-86.292
T5
X195.92Y-87.0
X198.46Y-87.0
X201.0Y-87.0
T6
X184.299Y-62.701
T7
X198.5Y-57.0
X198.5Y-79.5
T8
X199.2Y-45.7
X199.2Y-50.7
M30
