%TF.GenerationSoftware,KiCad,Pcbnew,9.0.7*%
%TF.CreationDate,2026-03-15T14:15:07+02:00*%
%TF.ProjectId,esp32_light_switch,65737033-325f-46c6-9967-68745f737769,rev?*%
%TF.SameCoordinates,Original*%
%TF.FileFunction,Copper,L1,Top*%
%TF.FilePolarity,Positive*%
%FSLAX46Y46*%
G04 Gerber Fmt 4.6, Leading zero omitted, Abs format (unit mm)*
G04 Created by KiCad (PCBNEW 9.0.7) date 2026-03-15 14:15:07*
%MOMM*%
%LPD*%
G01*
G04 APERTURE LIST*
G04 Aperture macros list*
%AMRoundRect*
0 Rectangle with rounded corners*
0 $1 Rounding radius*
0 $2 $3 $4 $5 $6 $7 $8 $9 X,Y pos of 4 corners*
0 Add a 4 corners polygon primitive as box body*
4,1,4,$2,$3,$4,$5,$6,$7,$8,$9,$2,$3,0*
0 Add four circle primitives for the rounded corners*
1,1,$1+$1,$2,$3*
1,1,$1+$1,$4,$5*
1,1,$1+$1,$6,$7*
1,1,$1+$1,$8,$9*
0 Add four rect primitives between the rounded corners*
20,1,$1+$1,$2,$3,$4,$5,0*
20,1,$1+$1,$4,$5,$6,$7,0*
20,1,$1+$1,$6,$7,$8,$9,0*
20,1,$1+$1,$8,$9,$2,$3,0*%
G04 Aperture macros list end*
%TA.AperFunction,ComponentPad*%
%ADD10C,1.700000*%
%TD*%
%TA.AperFunction,ComponentPad*%
%ADD11R,2.100000X2.100000*%
%TD*%
%TA.AperFunction,ComponentPad*%
%ADD12C,2.100000*%
%TD*%
%TA.AperFunction,SMDPad,CuDef*%
%ADD13RoundRect,0.250000X-0.337500X-0.475000X0.337500X-0.475000X0.337500X0.475000X-0.337500X0.475000X0*%
%TD*%
%TA.AperFunction,ComponentPad*%
%ADD14RoundRect,0.250000X-0.750000X0.600000X-0.750000X-0.600000X0.750000X-0.600000X0.750000X0.600000X0*%
%TD*%
%TA.AperFunction,ComponentPad*%
%ADD15O,2.000000X1.700000*%
%TD*%
%TA.AperFunction,SMDPad,CuDef*%
%ADD16RoundRect,0.250000X-0.350000X-0.450000X0.350000X-0.450000X0.350000X0.450000X-0.350000X0.450000X0*%
%TD*%
%TA.AperFunction,ComponentPad*%
%ADD17C,1.800000*%
%TD*%
%TA.AperFunction,SMDPad,CuDef*%
%ADD18RoundRect,0.250000X-0.550000X0.550000X-0.550000X-0.550000X0.550000X-0.550000X0.550000X0.550000X0*%
%TD*%
%TA.AperFunction,SMDPad,CuDef*%
%ADD19RoundRect,0.150000X0.512500X0.150000X-0.512500X0.150000X-0.512500X-0.150000X0.512500X-0.150000X0*%
%TD*%
%TA.AperFunction,SMDPad,CuDef*%
%ADD20RoundRect,0.250000X0.337500X0.475000X-0.337500X0.475000X-0.337500X-0.475000X0.337500X-0.475000X0*%
%TD*%
%TA.AperFunction,SMDPad,CuDef*%
%ADD21RoundRect,0.250000X0.350000X0.450000X-0.350000X0.450000X-0.350000X-0.450000X0.350000X-0.450000X0*%
%TD*%
%TA.AperFunction,ComponentPad*%
%ADD22R,1.905000X2.000000*%
%TD*%
%TA.AperFunction,ComponentPad*%
%ADD23O,1.905000X2.000000*%
%TD*%
%TA.AperFunction,ComponentPad*%
%ADD24C,3.000000*%
%TD*%
%TA.AperFunction,SMDPad,CuDef*%
%ADD25R,1.500000X0.900000*%
%TD*%
%TA.AperFunction,SMDPad,CuDef*%
%ADD26R,0.900000X1.500000*%
%TD*%
%TA.AperFunction,SMDPad,CuDef*%
%ADD27R,0.900000X0.900000*%
%TD*%
%TA.AperFunction,HeatsinkPad*%
%ADD28C,0.800000*%
%TD*%
%TA.AperFunction,HeatsinkPad*%
%ADD29R,3.800000X3.800000*%
%TD*%
%TA.AperFunction,SMDPad,CuDef*%
%ADD30RoundRect,0.250000X-0.450000X0.350000X-0.450000X-0.350000X0.450000X-0.350000X0.450000X0.350000X0*%
%TD*%
%TA.AperFunction,SMDPad,CuDef*%
%ADD31RoundRect,0.250000X-0.475000X0.337500X-0.475000X-0.337500X0.475000X-0.337500X0.475000X0.337500X0*%
%TD*%
%TA.AperFunction,ComponentPad*%
%ADD32R,1.700000X1.700000*%
%TD*%
%TA.AperFunction,SMDPad,CuDef*%
%ADD33RoundRect,0.250001X0.944999X-0.872499X0.944999X0.872499X-0.944999X0.872499X-0.944999X-0.872499X0*%
%TD*%
%TA.AperFunction,ComponentPad*%
%ADD34C,1.600000*%
%TD*%
%TA.AperFunction,SMDPad,CuDef*%
%ADD35RoundRect,0.090000X-0.360000X0.660000X-0.360000X-0.660000X0.360000X-0.660000X0.360000X0.660000X0*%
%TD*%
%TA.AperFunction,ViaPad*%
%ADD36C,0.800000*%
%TD*%
%TA.AperFunction,ViaPad*%
%ADD37C,2.200000*%
%TD*%
%TA.AperFunction,Conductor*%
%ADD38C,0.200000*%
%TD*%
%TA.AperFunction,Conductor*%
%ADD39C,1.750000*%
%TD*%
%TA.AperFunction,Conductor*%
%ADD40C,0.500000*%
%TD*%
G04 APERTURE END LIST*
D10*
%TO.P,SW1,1,A*%
%TO.N,GND*%
X157512500Y-73250000D03*
X157512500Y-79750000D03*
%TO.P,SW1,2,B*%
%TO.N,EN*%
X153012500Y-73250000D03*
X153012500Y-79750000D03*
%TD*%
D11*
%TO.P,J2,1,Pin_1*%
%TO.N,220V_OUT*%
X199200000Y-50700000D03*
D12*
%TO.P,J2,2,Pin_2*%
%TO.N,220V_IN_UNSAFE*%
X199200000Y-45700000D03*
%TD*%
D13*
%TO.P,C6,1*%
%TO.N,BOOT*%
X148462500Y-69500000D03*
%TO.P,C6,2*%
%TO.N,GND*%
X150537500Y-69500000D03*
%TD*%
D14*
%TO.P,PS2,1,AC/L*%
%TO.N,220V_IN*%
X184000000Y-57212500D03*
D15*
%TO.P,PS2,2,AC/N*%
%TO.N,220V_OUT*%
X179000000Y-57212500D03*
%TO.P,PS2,3,-Vout*%
%TO.N,GND*%
X189000000Y-86292500D03*
%TO.P,PS2,4,+Vout*%
%TO.N,5V*%
X174000000Y-86292500D03*
%TD*%
D16*
%TO.P,R6,1*%
%TO.N,LED_CTRL*%
X142762500Y-90000000D03*
%TO.P,R6,2*%
%TO.N,Net-(D1-DIN)*%
X144762500Y-90000000D03*
%TD*%
D13*
%TO.P,C9,1*%
%TO.N,3V3*%
X147697009Y-85076767D03*
%TO.P,C9,2*%
%TO.N,GND*%
X149772009Y-85076767D03*
%TD*%
%TO.P,C4,1*%
%TO.N,GND*%
X151725000Y-82500000D03*
%TO.P,C4,2*%
%TO.N,EN*%
X153800000Y-82500000D03*
%TD*%
D17*
%TO.P,RV1,1*%
%TO.N,220V_IN*%
X181000000Y-51000000D03*
%TO.P,RV1,2*%
%TO.N,220V_OUT*%
X173500000Y-49600000D03*
%TD*%
D18*
%TO.P,U2,1*%
%TO.N,Net-(R4-Pad2)*%
X191270000Y-43190000D03*
%TO.P,U2,2*%
%TO.N,GND*%
X188730000Y-43190000D03*
%TO.P,U2,3*%
%TO.N,LIGHT_TRIAC_COUPLER_OUT*%
X188730000Y-50810000D03*
%TO.P,U2,4*%
%TO.N,220V_IN*%
X191270000Y-50810000D03*
%TD*%
D19*
%TO.P,U3,1,IN*%
%TO.N,5V*%
X162400000Y-79885000D03*
%TO.P,U3,2,GND*%
%TO.N,GND*%
X162400000Y-78935000D03*
%TO.P,U3,3,EN*%
%TO.N,5V*%
X162400000Y-77985000D03*
%TO.P,U3,4,BP*%
%TO.N,Net-(U3-BP)*%
X160125000Y-77985000D03*
%TO.P,U3,5,OUT*%
%TO.N,3V3*%
X160125000Y-79885000D03*
%TD*%
D20*
%TO.P,C8,1*%
%TO.N,GND*%
X157800000Y-82500000D03*
%TO.P,C8,2*%
%TO.N,Net-(J3-Pin_1)*%
X155725000Y-82500000D03*
%TD*%
D16*
%TO.P,R2,1*%
%TO.N,3V3*%
X143500000Y-69500000D03*
%TO.P,R2,2*%
%TO.N,BOOT*%
X145500000Y-69500000D03*
%TD*%
D21*
%TO.P,R1,1*%
%TO.N,3V3*%
X149762500Y-82500000D03*
%TO.P,R1,2*%
%TO.N,EN*%
X147762500Y-82500000D03*
%TD*%
D22*
%TO.P,Q2,1,A1*%
%TO.N,220V_OUT*%
X201000000Y-87000000D03*
D23*
%TO.P,Q2,2,A2*%
%TO.N,220V_IN*%
X198460000Y-87000000D03*
%TO.P,Q2,3,G*%
%TO.N,LIGHT_TRIAC_GATE*%
X195920000Y-87000000D03*
%TD*%
D16*
%TO.P,R4,1*%
%TO.N,LIGHT_CTRL*%
X184000000Y-43000000D03*
%TO.P,R4,2*%
%TO.N,Net-(R4-Pad2)*%
X186000000Y-43000000D03*
%TD*%
D21*
%TO.P,R3,1*%
%TO.N,3V3*%
X157762500Y-85000000D03*
%TO.P,R3,2*%
%TO.N,TOGGLE_SW*%
X155762500Y-85000000D03*
%TD*%
D24*
%TO.P,F1,1*%
%TO.N,220V_IN_UNSAFE*%
X198500000Y-57000000D03*
%TO.P,F1,2*%
%TO.N,220V_IN*%
X198500000Y-79500000D03*
%TD*%
D25*
%TO.P,U1,1,GND*%
%TO.N,GND*%
X144850000Y-48880000D03*
%TO.P,U1,2,VDD*%
%TO.N,3V3*%
X144850000Y-50150000D03*
%TO.P,U1,3,EN*%
%TO.N,EN*%
X144850000Y-51420000D03*
%TO.P,U1,4,SENSOR_VP*%
%TO.N,unconnected-(U1-SENSOR_VP-Pad4)*%
X144850000Y-52690000D03*
%TO.P,U1,5,SENSOR_VN*%
%TO.N,unconnected-(U1-SENSOR_VN-Pad5)*%
X144850000Y-53960000D03*
%TO.P,U1,6,IO34*%
%TO.N,unconnected-(U1-IO34-Pad6)*%
X144850000Y-55230000D03*
%TO.P,U1,7,IO35*%
%TO.N,unconnected-(U1-IO35-Pad7)*%
X144850000Y-56500000D03*
%TO.P,U1,8,IO32*%
%TO.N,unconnected-(U1-IO32-Pad8)*%
X144850000Y-57770000D03*
%TO.P,U1,9,IO33*%
%TO.N,unconnected-(U1-IO33-Pad9)*%
X144850000Y-59040000D03*
%TO.P,U1,10,IO25*%
%TO.N,LED_CTRL*%
X144850000Y-60310000D03*
%TO.P,U1,11,IO26*%
%TO.N,unconnected-(U1-IO26-Pad11)*%
X144850000Y-61580000D03*
%TO.P,U1,12,IO27*%
%TO.N,unconnected-(U1-IO27-Pad12)*%
X144850000Y-62850000D03*
%TO.P,U1,13,IO14*%
%TO.N,unconnected-(U1-IO14-Pad13)*%
X144850000Y-64120000D03*
%TO.P,U1,14,IO12*%
%TO.N,unconnected-(U1-IO12-Pad14)*%
X144850000Y-65390000D03*
D26*
%TO.P,U1,15,GND*%
%TO.N,GND*%
X147890000Y-66640000D03*
%TO.P,U1,16,IO13*%
%TO.N,unconnected-(U1-IO13-Pad16)*%
X149160000Y-66640000D03*
%TO.P,U1,17,NC*%
%TO.N,unconnected-(U1-NC-Pad17)*%
X150430000Y-66640000D03*
%TO.P,U1,18,NC*%
%TO.N,unconnected-(U1-NC-Pad18)*%
X151700000Y-66640000D03*
%TO.P,U1,19,NC*%
%TO.N,unconnected-(U1-NC-Pad19)*%
X152970000Y-66640000D03*
%TO.P,U1,20,NC*%
%TO.N,unconnected-(U1-NC-Pad20)*%
X154240000Y-66640000D03*
%TO.P,U1,21,NC*%
%TO.N,unconnected-(U1-NC-Pad21)*%
X155510000Y-66640000D03*
%TO.P,U1,22,NC*%
%TO.N,unconnected-(U1-NC-Pad22)*%
X156780000Y-66640000D03*
%TO.P,U1,23,IO15*%
%TO.N,unconnected-(U1-IO15-Pad23)*%
X158050000Y-66640000D03*
%TO.P,U1,24,IO2*%
%TO.N,unconnected-(U1-IO2-Pad24)*%
X159320000Y-66640000D03*
D25*
%TO.P,U1,25,IO0*%
%TO.N,BOOT*%
X162350000Y-65390000D03*
%TO.P,U1,26,IO4*%
%TO.N,unconnected-(U1-IO4-Pad26)*%
X162350000Y-64120000D03*
%TO.P,U1,27,IO16*%
%TO.N,unconnected-(U1-IO16-Pad27)*%
X162350000Y-62850000D03*
%TO.P,U1,28,IO17*%
%TO.N,LIGHT_CTRL*%
X162350000Y-61580000D03*
%TO.P,U1,29,IO5*%
%TO.N,unconnected-(U1-IO5-Pad29)*%
X162350000Y-60310000D03*
%TO.P,U1,30,IO18*%
%TO.N,unconnected-(U1-IO18-Pad30)*%
X162350000Y-59040000D03*
%TO.P,U1,31,IO19*%
%TO.N,unconnected-(U1-IO19-Pad31)*%
X162350000Y-57770000D03*
%TO.P,U1,32,NC*%
%TO.N,unconnected-(U1-NC-Pad32)*%
X162350000Y-56500000D03*
%TO.P,U1,33,IO21*%
%TO.N,TOGGLE_SW*%
X162350000Y-55230000D03*
%TO.P,U1,34,RXD0/IO3*%
%TO.N,USART0_RX*%
X162350000Y-53960000D03*
%TO.P,U1,35,TXD0/IO1*%
%TO.N,USART0_TX*%
X162350000Y-52690000D03*
%TO.P,U1,36,IO22*%
%TO.N,unconnected-(U1-IO22-Pad36)*%
X162350000Y-51420000D03*
%TO.P,U1,37,IO23*%
%TO.N,unconnected-(U1-IO23-Pad37)*%
X162350000Y-50150000D03*
%TO.P,U1,38,GND*%
%TO.N,GND*%
X162350000Y-48880000D03*
D27*
%TO.P,U1,39,GND*%
X150700000Y-55200000D03*
D28*
X150700000Y-55900000D03*
D27*
X150700000Y-56600000D03*
D28*
X150700000Y-57300000D03*
D27*
X150700000Y-58000000D03*
D28*
X151400000Y-55200000D03*
X151400000Y-56600000D03*
X151400000Y-58000000D03*
X152075000Y-55900000D03*
X152075000Y-57300000D03*
D27*
X152100000Y-55200000D03*
X152100000Y-56600000D03*
D29*
X152100000Y-56600000D03*
D27*
X152100000Y-58000000D03*
D28*
X152800000Y-55200000D03*
X152800000Y-56600000D03*
X152800000Y-58000000D03*
D27*
X153500000Y-55200000D03*
D28*
X153500000Y-55900000D03*
D27*
X153500000Y-56600000D03*
D28*
X153500000Y-57300000D03*
D27*
X153500000Y-58000000D03*
%TD*%
D30*
%TO.P,R5,1*%
%TO.N,LIGHT_TRIAC_COUPLER_OUT*%
X185500000Y-49500000D03*
%TO.P,R5,2*%
%TO.N,LIGHT_TRIAC_GATE*%
X185500000Y-51500000D03*
%TD*%
D31*
%TO.P,C1,1*%
%TO.N,GND*%
X142000000Y-49500000D03*
%TO.P,C1,2*%
%TO.N,3V3*%
X142000000Y-51575000D03*
%TD*%
D10*
%TO.P,SW2,1,A*%
%TO.N,GND*%
X148762500Y-73250000D03*
X148762500Y-79750000D03*
%TO.P,SW2,2,B*%
%TO.N,BOOT*%
X144262500Y-73250000D03*
X144262500Y-79750000D03*
%TD*%
D32*
%TO.P,J1,1,Pin_1*%
%TO.N,USART0_TX*%
X151037500Y-88500000D03*
D10*
%TO.P,J1,2,Pin_2*%
%TO.N,USART0_RX*%
X148497500Y-88500000D03*
%TD*%
D33*
%TO.P,C5,1*%
%TO.N,GND*%
X161762500Y-88557500D03*
%TO.P,C5,2*%
%TO.N,3V3*%
X161762500Y-83442500D03*
%TD*%
D31*
%TO.P,C2,1*%
%TO.N,3V3*%
X142000000Y-53962500D03*
%TO.P,C2,2*%
%TO.N,GND*%
X142000000Y-56037500D03*
%TD*%
D34*
%TO.P,C7,1*%
%TO.N,Net-(U3-BP)*%
X161762500Y-75500000D03*
%TO.P,C7,2*%
%TO.N,GND*%
X161762500Y-70500000D03*
%TD*%
D32*
%TO.P,J3,1,Pin_1*%
%TO.N,Net-(J3-Pin_1)*%
X157802500Y-88500000D03*
D10*
%TO.P,J3,2,Pin_2*%
%TO.N,TOGGLE_SW*%
X155262500Y-88500000D03*
%TD*%
D35*
%TO.P,D1,1,VDD*%
%TO.N,3V3*%
X145262500Y-82500000D03*
%TO.P,D1,2,DOUT*%
%TO.N,unconnected-(D1-DOUT-Pad2)*%
X141962500Y-82500000D03*
%TO.P,D1,3,VSS*%
%TO.N,GND*%
X141962500Y-87400000D03*
%TO.P,D1,4,DIN*%
%TO.N,Net-(D1-DIN)*%
X145262500Y-87400000D03*
%TD*%
D36*
%TO.N,GND*%
X142000000Y-85500000D03*
X163000000Y-90500000D03*
X189901661Y-42400000D03*
X148500000Y-65000000D03*
X149841980Y-83800000D03*
X152000000Y-69500000D03*
X143000000Y-48500000D03*
X152500000Y-81500000D03*
X159000000Y-83000000D03*
X160500000Y-49500000D03*
X146500000Y-49000000D03*
X143000000Y-57500000D03*
X162000000Y-77000000D03*
%TO.N,3V3*%
X157500000Y-86500000D03*
X154000000Y-86000000D03*
%TO.N,EN*%
X147501225Y-71001225D03*
X147000000Y-69500000D03*
%TO.N,BOOT*%
X159000000Y-68000000D03*
X162000000Y-68000000D03*
%TO.N,LIGHT_CTRL*%
X184000000Y-45500000D03*
X172500000Y-56500000D03*
%TO.N,TOGGLE_SW*%
X154584269Y-83921503D03*
X153000000Y-86500000D03*
X160731404Y-68700000D03*
X159300000Y-69000000D03*
%TO.N,USART0_RX*%
X150337500Y-86500000D03*
X150290090Y-79290090D03*
X152126225Y-71373775D03*
X150500000Y-72000000D03*
X157550813Y-69038138D03*
X159200000Y-63500000D03*
X159500000Y-52500000D03*
X159200000Y-55000000D03*
%TO.N,USART0_TX*%
X151479841Y-85075018D03*
X158500000Y-64500000D03*
X151529289Y-72756739D03*
X154000000Y-70800000D03*
X158500000Y-54000000D03*
X159000000Y-51000000D03*
X151732362Y-78476884D03*
X156500000Y-68700000D03*
D37*
%TO.N,220V_OUT*%
X184298714Y-62701286D03*
D36*
%TO.N,LIGHT_TRIAC_GATE*%
X191500000Y-69000000D03*
X191553919Y-63946081D03*
%TD*%
D38*
%TO.N,GND*%
X188730000Y-43190000D02*
X189110000Y-43190000D01*
X149841980Y-83800000D02*
X149841980Y-85006796D01*
X151725000Y-82275000D02*
X152500000Y-81500000D01*
X163000000Y-89795000D02*
X161762500Y-88557500D01*
X147890000Y-66640000D02*
X147890000Y-65610000D01*
X149841980Y-85006796D02*
X149772009Y-85076767D01*
X161120000Y-48880000D02*
X160500000Y-49500000D01*
X162400000Y-78935000D02*
X162045532Y-78935000D01*
X161557500Y-88557500D02*
X161500000Y-88500000D01*
X150537500Y-69500000D02*
X152000000Y-69500000D01*
X142000000Y-56500000D02*
X143000000Y-57500000D01*
X158500000Y-82500000D02*
X159000000Y-83000000D01*
X157512500Y-73250000D02*
X157512500Y-79750000D01*
X141962500Y-87400000D02*
X141962500Y-85537500D01*
X162045532Y-78935000D02*
X161436500Y-78325968D01*
X161436500Y-78325968D02*
X161436500Y-77563500D01*
X144850000Y-48880000D02*
X146380000Y-48880000D01*
X162350000Y-48880000D02*
X161120000Y-48880000D01*
X146380000Y-48880000D02*
X146500000Y-49000000D01*
X163000000Y-90500000D02*
X163000000Y-89795000D01*
X148762500Y-79750000D02*
X148762500Y-73250000D01*
X189111661Y-43190000D02*
X189901661Y-42400000D01*
X141962500Y-85537500D02*
X142000000Y-85500000D01*
X161762500Y-88557500D02*
X161557500Y-88557500D01*
X142000000Y-49500000D02*
X143000000Y-48500000D01*
X142000000Y-56037500D02*
X142000000Y-56500000D01*
X188730000Y-43190000D02*
X189111661Y-43190000D01*
X161436500Y-77563500D02*
X162000000Y-77000000D01*
X147890000Y-65610000D02*
X148500000Y-65000000D01*
X157800000Y-82500000D02*
X158500000Y-82500000D01*
X151725000Y-82500000D02*
X151725000Y-82275000D01*
%TO.N,3V3*%
X157263500Y-85499000D02*
X157762500Y-85000000D01*
X149762500Y-82500000D02*
X148761500Y-83501000D01*
X152899000Y-84399000D02*
X151661500Y-84399000D01*
X142037500Y-53962500D02*
X143500000Y-52500000D01*
X160125000Y-79885000D02*
X161762500Y-81522500D01*
X144500000Y-82500000D02*
X145262500Y-82500000D01*
X160000000Y-75000000D02*
X159500000Y-75500000D01*
X160071000Y-65660000D02*
X160071000Y-68278943D01*
X159500000Y-75500000D02*
X159500000Y-77195400D01*
X159161500Y-77533900D02*
X159161500Y-78921500D01*
X144850000Y-50150000D02*
X155650000Y-50150000D01*
X148761500Y-83501000D02*
X146263500Y-83501000D01*
X160071000Y-68278943D02*
X160000000Y-68349943D01*
X143425000Y-50150000D02*
X144850000Y-50150000D01*
X159161500Y-78921500D02*
X160125000Y-79885000D01*
X143900000Y-50150000D02*
X144850000Y-50150000D01*
X142000000Y-51575000D02*
X143425000Y-50150000D01*
X155650000Y-50150000D02*
X160000000Y-54500000D01*
X143500000Y-52500000D02*
X143500000Y-50550000D01*
X142000000Y-53962500D02*
X142037500Y-53962500D01*
X151661500Y-84399000D02*
X149762500Y-82500000D01*
X157500000Y-86500000D02*
X157500000Y-85262500D01*
X143500000Y-69500000D02*
X142000000Y-71000000D01*
X142000000Y-71000000D02*
X142000000Y-80000000D01*
X142000000Y-80000000D02*
X144500000Y-82500000D01*
X160000000Y-68349943D02*
X160000000Y-75000000D01*
X157762500Y-85000000D02*
X160205000Y-85000000D01*
X145262500Y-82500000D02*
X147697009Y-84934509D01*
X160000000Y-54500000D02*
X160000000Y-65589000D01*
X146263500Y-83501000D02*
X145262500Y-82500000D01*
X159500000Y-77195400D02*
X159161500Y-77533900D01*
X160205000Y-85000000D02*
X161762500Y-83442500D01*
X147697009Y-84934509D02*
X147697009Y-85076767D01*
X157500000Y-85262500D02*
X157762500Y-85000000D01*
X161762500Y-81522500D02*
X161762500Y-83442500D01*
X152899000Y-84399000D02*
X154000000Y-85500000D01*
X160000000Y-65589000D02*
X160071000Y-65660000D01*
X154000000Y-85500000D02*
X154000000Y-86000000D01*
X143500000Y-50550000D02*
X143900000Y-50150000D01*
%TO.N,Net-(U3-BP)*%
X161762500Y-75500000D02*
X160125000Y-77137500D01*
X160125000Y-77137500D02*
X160125000Y-77985000D01*
%TO.N,EN*%
X150943015Y-71180515D02*
X147680515Y-71180515D01*
X147680515Y-71180515D02*
X147501225Y-71001225D01*
X145800000Y-51420000D02*
X146831985Y-52451985D01*
X147000000Y-69500000D02*
X146831985Y-69331985D01*
X150820130Y-79750000D02*
X153012500Y-79750000D01*
X153012500Y-73250000D02*
X153012500Y-79750000D01*
X146831985Y-69331985D02*
X146831985Y-52451985D01*
X153800000Y-80537500D02*
X153012500Y-79750000D01*
X148070130Y-82500000D02*
X150820130Y-79750000D01*
X144850000Y-51420000D02*
X145800000Y-51420000D01*
X150943015Y-71180515D02*
X153012500Y-73250000D01*
X153800000Y-82500000D02*
X153800000Y-80537500D01*
X147762500Y-82500000D02*
X148070130Y-82500000D01*
%TO.N,BOOT*%
X148012500Y-69500000D02*
X144262500Y-73250000D01*
X159000000Y-68000000D02*
X149962500Y-68000000D01*
X149962500Y-68000000D02*
X148462500Y-69500000D01*
X162000000Y-68000000D02*
X162000000Y-67500000D01*
X145500000Y-69500000D02*
X145500000Y-72012500D01*
X144262500Y-73250000D02*
X144262500Y-79750000D01*
X159000000Y-68000000D02*
X159361002Y-68000000D01*
X148462500Y-69500000D02*
X148012500Y-69500000D01*
X162000000Y-67500000D02*
X162350000Y-67150000D01*
X162350000Y-65390000D02*
X162350000Y-67150000D01*
X145500000Y-72012500D02*
X144262500Y-73250000D01*
%TO.N,5V*%
X163062499Y-79885000D02*
X162400000Y-79885000D01*
X174000000Y-86292500D02*
X168807500Y-86292500D01*
X163363500Y-78594032D02*
X163363500Y-79583999D01*
X168807500Y-86292500D02*
X162400000Y-79885000D01*
X163363500Y-79583999D02*
X163062499Y-79885000D01*
X162754468Y-77985000D02*
X163363500Y-78594032D01*
X162400000Y-77985000D02*
X162754468Y-77985000D01*
%TO.N,LIGHT_CTRL*%
X167420000Y-61580000D02*
X162350000Y-61580000D01*
X172500000Y-56500000D02*
X167420000Y-61580000D01*
X184000000Y-45500000D02*
X184000000Y-43000000D01*
%TO.N,TOGGLE_SW*%
X155262500Y-88500000D02*
X155000000Y-88500000D01*
X155000000Y-88500000D02*
X153000000Y-86500000D01*
X155762500Y-85000000D02*
X155762500Y-88000000D01*
X155762500Y-88000000D02*
X155262500Y-88500000D01*
X160731404Y-68700000D02*
X160731404Y-67131404D01*
X154688500Y-83817272D02*
X154688500Y-73311500D01*
X160600000Y-67000000D02*
X160600000Y-56100000D01*
X160600000Y-56100000D02*
X161470000Y-55230000D01*
X154688500Y-73311500D02*
X159000000Y-69000000D01*
X161470000Y-55230000D02*
X162350000Y-55230000D01*
X159000000Y-69000000D02*
X159300000Y-69000000D01*
X154584269Y-83921503D02*
X154688500Y-83817272D01*
X160731404Y-67131404D02*
X160600000Y-67000000D01*
%TO.N,Net-(R4-Pad2)*%
X191270000Y-43190000D02*
X190169000Y-44291000D01*
X187291000Y-44291000D02*
X186000000Y-43000000D01*
X190169000Y-44291000D02*
X187291000Y-44291000D01*
%TO.N,Net-(D1-DIN)*%
X145262500Y-87400000D02*
X145262500Y-89500000D01*
X145262500Y-89500000D02*
X144762500Y-90000000D01*
%TO.N,LED_CTRL*%
X142762500Y-90000000D02*
X141101000Y-88338500D01*
X143900000Y-60310000D02*
X144850000Y-60310000D01*
X141101000Y-63109000D02*
X143900000Y-60310000D01*
X141101000Y-88338500D02*
X141101000Y-63109000D01*
%TO.N,Net-(J3-Pin_1)*%
X156663500Y-87361000D02*
X157518950Y-88216450D01*
X157802500Y-88500000D02*
X157802500Y-88802500D01*
X155725000Y-82500000D02*
X156663500Y-83438500D01*
X156663500Y-83438500D02*
X156663500Y-87361000D01*
%TO.N,USART0_RX*%
X155100000Y-71500000D02*
X155100000Y-71488951D01*
X150290090Y-79290090D02*
X150290090Y-78709910D01*
X150500000Y-78500000D02*
X150500000Y-72000000D01*
X150337500Y-86660000D02*
X150337500Y-86500000D01*
X148497500Y-88500000D02*
X150337500Y-86660000D01*
X152126225Y-71373775D02*
X152252450Y-71500000D01*
X152252450Y-71500000D02*
X155100000Y-71500000D01*
X160960000Y-53960000D02*
X159500000Y-52500000D01*
X162350000Y-53960000D02*
X160960000Y-53960000D01*
X155100000Y-71488951D02*
X157550813Y-69038138D01*
X150290090Y-78709910D02*
X150500000Y-78500000D01*
X159200000Y-55000000D02*
X159200000Y-63500000D01*
%TO.N,USART0_TX*%
X154000000Y-70800000D02*
X154400000Y-70800000D01*
X162350000Y-52690000D02*
X160690000Y-52690000D01*
X151037500Y-88500000D02*
X150476549Y-87939049D01*
X151037500Y-88500000D02*
X151037500Y-85462500D01*
X154400000Y-70800000D02*
X156500000Y-68700000D01*
X151529289Y-78273811D02*
X151529289Y-72756739D01*
X160690000Y-52690000D02*
X159000000Y-51000000D01*
X151037500Y-85462500D02*
X151424982Y-85075018D01*
X151732362Y-78476884D02*
X151529289Y-78273811D01*
X151424982Y-85075018D02*
X151479841Y-85075018D01*
X158500000Y-54000000D02*
X158500000Y-64500000D01*
D39*
%TO.N,220V_IN_UNSAFE*%
X198500000Y-57000000D02*
X194624000Y-53124000D01*
X199200000Y-45700000D02*
X197911348Y-45700000D01*
X197911348Y-45700000D02*
X194624000Y-48987348D01*
X194624000Y-53124000D02*
X194624000Y-48987348D01*
D40*
%TO.N,220V_IN*%
X191270000Y-49943562D02*
X188850438Y-47524000D01*
D39*
X198500000Y-79500000D02*
X198500000Y-73402392D01*
D40*
X184063380Y-47524000D02*
X181000000Y-50587380D01*
D39*
X198460000Y-87000000D02*
X198460000Y-79540000D01*
D40*
X188850438Y-47524000D02*
X184063380Y-47524000D01*
D39*
X181000000Y-54212500D02*
X181000000Y-51000000D01*
D40*
X191270000Y-50810000D02*
X191270000Y-49943562D01*
D39*
X198500000Y-73402392D02*
X184000000Y-58902392D01*
X184000000Y-58902392D02*
X184000000Y-57212500D01*
X181000000Y-54212500D02*
X184000000Y-57212500D01*
X198460000Y-79540000D02*
X198500000Y-79500000D01*
%TO.N,220V_OUT*%
X202376000Y-86412500D02*
X201788500Y-87000000D01*
X180701286Y-62701286D02*
X179000000Y-61000000D01*
X199200000Y-50700000D02*
X202376000Y-53876000D01*
X184298714Y-62701286D02*
X180701286Y-62701286D01*
X173500000Y-49600000D02*
X173500000Y-51712500D01*
X173500000Y-51712500D02*
X179000000Y-57212500D01*
X179000000Y-61000000D02*
X179000000Y-57212500D01*
X202376000Y-53876000D02*
X202376000Y-86412500D01*
D40*
%TO.N,LIGHT_TRIAC_GATE*%
X190500000Y-70000000D02*
X190500000Y-81580000D01*
X195920000Y-87000000D02*
X190500000Y-81580000D01*
X191500000Y-69000000D02*
X190500000Y-70000000D01*
X191553919Y-57553919D02*
X191553919Y-63946081D01*
X185500000Y-51500000D02*
X191553919Y-57553919D01*
%TO.N,LIGHT_TRIAC_COUPLER_OUT*%
X187420000Y-49500000D02*
X188730000Y-50810000D01*
X185500000Y-49500000D02*
X187420000Y-49500000D01*
%TD*%
M02*
